Galada.ufo
<glyph name="exclam" format="1">
  <advance width="224"/>
  <unicode hex="0021"/>
  <outline>
    <contour>
      <point x="150" y="231" type="line"/>
      <point x="280" y="700" type="line"/>
      <point x="136" y="700" type="line"/>
      <point x="65" y="231" type="line"/>
    </contour>
    <contour>
      <point x="160" y="80" type="curve" smooth="yes"/>
      <point x="160" y="124"/>
      <point x="125" y="159"/>
      <point x="81" y="159" type="curve" smooth="yes"/>
      <point x="37" y="159"/>
      <point x="1" y="124"/>
      <point x="1" y="80" type="curve" smooth="yes"/>
      <point x="1" y="36"/>
      <point x="37" y="0"/>
      <point x="81" y="0" type="curve" smooth="yes"/>
      <point x="125" y="0"/>
      <point x="160" y="36"/>
    </contour>
  </outline>
</glyph>
<glyph name="quotedbl" format="1">
  <advance width="420"/>
  <unicode hex="0022"/>
  <outline>
    <contour>
      <point x="62" y="561" type="line"/>
      <point x="137" y="561" type="line"/>
      <point x="228" y="750" type="line"/>
      <point x="123" y="750" type="line"/>
    </contour>
    <contour>
      <point x="219" y="561" type="line"/>
      <point x="294" y="561" type="line"/>
      <point x="385" y="750" type="line"/>
      <point x="280" y="750" type="line"/>
    </contour>
  </outline>
</glyph>
<glyph name="numbersign" format="1">
  <advance width="659"/>
  <unicode hex="0023"/>
  <outline>
    <contour>
      <point x="307" y="-27" type="line"/>
      <point x="364" y="-27" type="line"/>
      <point x="394" y="111" type="line"/>
      <point x="504" y="111" type="line"/>
      <point x="524" y="213" type="line"/>
      <point x="417" y="213" type="line"/>
      <point x="442" y="326" type="line"/>
      <point x="548" y="326" type="line"/>
      <point x="568" y="428" type="line"/>
      <point x="464" y="428" type="line"/>
      <point x="529" y="718" type="line"/>
      <point x="441" y="718" type="line"/>
      <point x="389" y="428" type="line"/>
      <point x="284" y="428" type="line"/>
      <point x="349" y="718" type="line"/>
      <point x="261" y="718" type="line"/>
      <point x="209" y="428" type="line"/>
      <point x="110" y="428" type="line"/>
      <point x="89" y="326" type="line"/>
      <point x="191" y="326" type="line"/>
      <point x="170" y="213" type="line"/>
      <point x="66" y="213" type="line"/>
      <point x="45" y="111" type="line"/>
      <point x="152" y="111" type="line"/>
      <point x="127" y="-27" type="line"/>
      <point x="184" y="-27" type="line"/>
      <point x="214" y="111" type="line"/>
      <point x="332" y="111" type="line"/>
    </contour>
    <contour>
      <point x="262" y="326" type="line"/>
      <point x="371" y="326" type="line"/>
      <point x="350" y="213" type="line"/>
      <point x="237" y="213" type="line"/>
    </contour>
  </outline>
</glyph>
<glyph name="dollar" format="1">
  <advance width="403"/>
  <unicode hex="0024"/>
  <outline>
    <contour>
      <point x="110" y="-27" type="line"/>
      <point x="137" y="-27" type="line"/>
      <point x="166" y="107" type="line"/>
      <point x="270" y="109"/>
      <point x="346" y="160"/>
      <point x="346" y="255" type="curve" smooth="yes"/>
      <point x="346" y="337"/>
      <point x="284" y="375"/>
      <point x="233" y="408" type="curve"/>
      <point x="269" y="569" type="line"/>
      <point x="291" y="560"/>
      <point x="301" y="540"/>
      <point x="301" y="525" type="curve" smooth="yes"/>
      <point x="301" y="504"/>
      <point x="294" y="483"/>
      <point x="277" y="473" type="curve"/>
      <point x="290" y="457"/>
      <point x="300" y="450"/>
      <point x="316" y="450" type="curve" smooth="yes"/>
      <point x="346" y="450"/>
      <point x="364" y="480"/>
      <point x="364" y="526" type="curve" smooth="yes"/>
      <point x="364" y="582"/>
      <point x="320" y="602"/>
      <point x="277" y="609" type="curve"/>
      <point x="302" y="718" type="line"/>
      <point x="244" y="718" type="line"/>
      <point x="225" y="612" type="line"/>
      <point x="151" y="609"/>
      <point x="71" y="555"/>
      <point x="71" y="481" type="curve" smooth="yes"/>
      <point x="71" y="417"/>
      <point x="129" y="384"/>
      <point x="177" y="344" type="curve"/>
      <point x="141" y="148" type="line"/>
      <point x="119" y="158"/>
      <point x="99" y="180"/>
      <point x="99" y="209" type="curve" smooth="yes"/>
      <point x="99" y="249"/>
      <point x="111" y="278"/>
      <point x="139" y="283" type="curve"/>
      <point x="139" y="296"/>
      <point x="124" y="308"/>
      <point x="96" y="308" type="curve" smooth="yes"/>
      <point x="57" y="308"/>
      <point x="24" y="274"/>
      <point x="24" y="222" type="curve" smooth="yes"/>
      <point x="24" y="143"/>
      <point x="73" y="113"/>
      <point x="134" y="108" type="curve"/>
    </contour>
    <contour>
      <point x="241" y="234" type="curve" smooth="yes"/>
      <point x="241" y="190"/>
      <point x="223" y="150"/>
      <point x="175" y="144" type="curve"/>
      <point x="212" y="310" type="line"/>
      <point x="229" y="289"/>
      <point x="241" y="265"/>
    </contour>
    <contour>
      <point x="166" y="500" type="curve" smooth="yes"/>
      <point x="166" y="530"/>
      <point x="179" y="566"/>
      <point x="218" y="574" type="curve"/>
      <point x="194" y="439" type="line"/>
      <point x="177" y="456"/>
      <point x="166" y="475"/>
    </contour>
  </outline>
</glyph>
<glyph name="ampersand" format="1">
  <advance width="682"/>
  <unicode hex="0026"/>
  <outline>
    <contour>
      <point x="676" y="413" type="line"/>
      <point x="659" y="383"/>
      <point x="618" y="370"/>
      <point x="581" y="370" type="curve" smooth="yes"/>
      <point x="556" y="370"/>
      <point x="533" y="375"/>
      <point x="505" y="375" type="curve" smooth="yes"/>
      <point x="402" y="375"/>
      <point x="332" y="316"/>
      <point x="312" y="234" type="curve"/>
      <point x="319" y="233" type="line"/>
      <point x="338" y="263"/>
      <point x="369" y="278"/>
      <point x="413" y="278" type="curve" smooth="yes"/>
      <point x="436" y="278"/>
      <point x="459" y="274"/>
      <point x="484" y="273" type="curve"/>
      <point x="453" y="126"/>
      <point x="373" y="84"/>
      <point x="303" y="84" type="curve" smooth="yes"/>
      <point x="239" y="84"/>
      <point x="186" y="144"/>
      <point x="186" y="217" type="curve" smooth="yes"/>
      <point x="186" y="286"/>
      <point x="233" y="366"/>
      <point x="360" y="418" type="curve"/>
      <point x="266" y="460"/>
      <point x="228" y="525"/>
      <point x="228" y="583" type="curve" smooth="yes"/>
      <point x="228" y="650"/>
      <point x="277" y="706"/>
      <point x="350" y="706" type="curve" smooth="yes"/>
      <point x="414" y="706"/>
      <point x="416" y="648"/>
      <point x="416" y="632" type="curve" smooth="yes"/>
      <point x="416" y="607"/>
      <point x="397" y="557"/>
      <point x="372" y="550" type="curve"/>
      <point x="391" y="528"/>
      <point x="413" y="524"/>
      <point x="429" y="524" type="curve" smooth="yes"/>
      <point x="480" y="524"/>
      <point x="499" y="563"/>
      <point x="499" y="616" type="curve" smooth="yes"/>
      <point x="499" y="713"/>
      <point x="408" y="750"/>
      <point x="315" y="750" type="curve" smooth="yes"/>
      <point x="173" y="750"/>
      <point x="93" y="660"/>
      <point x="93" y="569" type="curve" smooth="yes"/>
      <point x="93" y="512"/>
      <point x="124" y="454"/>
      <point x="192" y="417" type="curve"/>
      <point x="71" y="392"/>
      <point x="11" y="292"/>
      <point x="11" y="196" type="curve" smooth="yes"/>
      <point x="11" y="93"/>
      <point x="80" y="-6"/>
      <point x="218" y="-6" type="curve" smooth="yes"/>
      <point x="316" y="-6"/>
      <point x="454" y="0"/>
      <point x="530" y="274" type="curve"/>
      <point x="612" y="288"/>
      <point x="682" y="358"/>
      <point x="682" y="413" type="curve"/>
    </contour>
  </outline>
</glyph>
<glyph name="quotesingle" format="1">
  <advance width="197"/>
  <unicode hex="0027"/>
  <outline>
    <contour>
      <point x="15" y="561" type="line"/>
      <point x="90" y="561" type="line"/>
      <point x="181" y="750" type="line"/>
      <point x="76" y="750" type="line"/>
    </contour>
  </outline>
</glyph>
<glyph name="parenleft" format="1">
  <advance width="437"/>
  <unicode hex="0028"/>
  <outline>
    <contour>
      <point x="464" y="750" type="line"/>
      <point x="266" y="655"/>
      <point x="138" y="361"/>
      <point x="138" y="100" type="curve" smooth="yes"/>
      <point x="138" y="-36"/>
      <point x="173" y="-164"/>
      <point x="251" y="-250" type="curve"/>
      <point x="284" y="-221" type="line"/>
      <point x="233" y="-146"/>
      <point x="211" y="-41"/>
      <point x="211" y="73" type="curve" smooth="yes"/>
      <point x="211" y="333"/>
      <point x="328" y="636"/>
      <point x="477" y="710" type="curve"/>
    </contour>
  </outline>
</glyph>
<glyph name="asterisk" format="1">
  <advance width="515"/>
  <unicode hex="002A"/>
  <outline>
    <contour>
      <point x="223" y="752" type="line"/>
      <point x="223" y="617" type="line"/>
      <point x="116" y="679" type="line"/>
      <point x="86" y="627" type="line"/>
      <point x="195" y="564" type="line"/>
      <point x="86" y="501" type="line"/>
      <point x="116" y="449" type="line"/>
      <point x="223" y="511" type="line"/>
      <point x="223" y="376" type="line"/>
      <point x="287" y="376" type="line"/>
      <point x="287" y="511" type="line"/>
      <point x="394" y="449" type="line"/>
      <point x="424" y="501" type="line"/>
      <point x="315" y="564" type="line"/>
      <point x="424" y="627" type="line"/>
      <point x="394" y="679" type="line"/>
      <point x="287" y="617" type="line"/>
      <point x="287" y="752" type="line"/>
    </contour>
  </outline>
</glyph>
<glyph name="plus" format="1">
  <advance width="515"/>
  <unicode hex="002B"/>
  <outline>
    <contour>
      <point x="345" y="439" type="line"/>
      <point x="232" y="439" type="line"/>
      <point x="205" y="317" type="line"/>
      <point x="77" y="317" type="line"/>
      <point x="53" y="205" type="line"/>
      <point x="181" y="205" type="line"/>
      <point x="154" y="82" type="line"/>
      <point x="267" y="82" type="line"/>
      <point x="294" y="205" type="line"/>
      <point x="422" y="205" type="line"/>
      <point x="445" y="317" type="line"/>
      <point x="318" y="317" type="line"/>
    </contour>
  </outline>
</glyph>
<glyph name="comma" format="1">
  <advance width="216"/>
  <unicode hex="002C"/>
  <outline>
    <contour>
      <point x="24" y="75" type="curve" smooth="yes"/>
      <point x="24" y="42"/>
      <point x="45" y="19"/>
      <point x="71" y="2" type="curve" smooth="yes"/>
      <point x="80" y="-4"/>
      <point x="84" y="-11"/>
      <point x="84" y="-18" type="curve" smooth="yes"/>
      <point x="84" y="-55"/>
      <point x="32" y="-73"/>
      <point x="32" y="-109" type="curve" smooth="yes" name="hr01"/>
      <point x="32" y="-115"/>
      <point x="34" y="-121"/>
      <point x="41" y="-126" type="curve"/>
      <point x="123" y="-69"/>
      <point x="171" y="19"/>
      <point x="171" y="79" type="curve" smooth="yes"/>
      <point x="171" y="123"/>
      <point x="147" y="155"/>
      <point x="103" y="155" type="curve" smooth="yes"/>
      <point x="59" y="155"/>
      <point x="24" y="119"/>
    </contour>
  </outline>
</glyph>
<glyph name="hyphen" format="1">
  <advance width="290"/>
  <unicode hex="002D"/>
  <outline>
    <contour>
      <point x="237" y="301" type="line"/>
      <point x="37" y="301" type="line"/>
      <point x="19" y="222" type="line"/>
      <point x="220" y="222" type="line"/>
    </contour>
  </outline>
</glyph>
<glyph name="period" format="1">
  <advance width="263"/>
  <unicode hex="002E"/>
  <outline>
    <contour>
      <point x="31" y="75" type="curve" smooth="yes"/>
      <point x="31" y="31"/>
      <point x="66" y="-4"/>
      <point x="110" y="-4" type="curve" smooth="yes"/>
      <point x="154" y="-4"/>
      <point x="190" y="31"/>
      <point x="190" y="75" type="curve" smooth="yes"/>
      <point x="190" y="119"/>
      <point x="154" y="155"/>
      <point x="110" y="155" type="curve" smooth="yes"/>
      <point x="66" y="155"/>
      <point x="31" y="119"/>
    </contour>
  </outline>
</glyph>
<glyph name="slash" format="1">
  <advance width="311"/>
  <unicode hex="002F"/>
  <outline>
    <contour>
      <point x="295" y="750" type="line"/>
      <point x="223" y="750" type="line"/>
      <point x="11" y="-250" type="line"/>
      <point x="83" y="-250" type="line"/>
    </contour>
  </outline>
</glyph>
<glyph name="one" format="1">
  <advance width="317"/>
  <unicode hex="0031"/>
  <outline>
    <contour>
      <point x="324" y="748" type="line"/>
      <point x="203" y="676"/>
      <point x="125" y="670"/>
      <point x="70" y="670" type="curve"/>
      <point x="58" y="624" type="line"/>
      <point x="153" y="624" type="line"/>
      <point x="21" y="0" type="line"/>
      <point x="165" y="0" type="line"/>
    </contour>
  </outline>
</glyph>
<glyph name="two" format="1">
  <advance width="492"/>
  <unicode hex="0032"/>
  <outline>
    <contour>
      <point x="286" y="114" type="curve" smooth="yes"/>
      <point x="206" y="118"/>
      <point x="149" y="132"/>
      <point x="106" y="132" type="curve"/>
      <point x="189" y="267"/>
      <point x="462" y="365"/>
      <point x="462" y="588" type="curve" smooth="yes"/>
      <point x="462" y="685"/>
      <point x="409" y="749"/>
      <point x="272" y="749" type="curve" smooth="yes"/>
      <point x="121" y="749"/>
      <point x="66" y="670"/>
      <point x="66" y="602" type="curve" smooth="yes"/>
      <point x="66" y="544"/>
      <point x="97" y="512"/>
      <point x="137" y="512" type="curve" smooth="yes"/>
      <point x="161" y="512"/>
      <point x="188" y="523"/>
      <point x="214" y="546" type="curve"/>
      <point x="186" y="554"/>
      <point x="176" y="591"/>
      <point x="176" y="614" type="curve" smooth="yes"/>
      <point x="176" y="664"/>
      <point x="190" y="695"/>
      <point x="257" y="695" type="curve" smooth="yes"/>
      <point x="286" y="695"/>
      <point x="318" y="662"/>
      <point x="318" y="613" type="curve" smooth="yes"/>
      <point x="318" y="347"/>
      <point x="-12" y="248"/>
      <point x="-12" y="29" type="curve" smooth="yes"/>
      <point x="-12" y="19"/>
      <point x="-11" y="8"/>
      <point x="-9" y="-3" type="curve"/>
      <point x="11" y="4"/>
      <point x="47" y="25"/>
      <point x="70" y="25" type="curve" smooth="yes"/>
      <point x="172" y="25"/>
      <point x="209" y="-11"/>
      <point x="318" y="-11" type="curve" smooth="yes"/>
      <point x="417" y="-11"/>
      <point x="437" y="40"/>
      <point x="437" y="139" type="curve" smooth="yes"/>
      <point x="437" y="153"/>
      <point x="437" y="167"/>
      <point x="436" y="183" type="curve"/>
      <point x="380" y="130"/>
      <point x="359" y="114"/>
    </contour>
  </outline>
</glyph>
<glyph name="three" format="1">
  <advance width="514"/>
  <unicode hex="0033"/>
  <outline>
    <contour>
      <point x="205" y="257" type="curve"/>
      <point x="197" y="293"/>
      <point x="169" y="308"/>
      <point x="124" y="308" type="curve" smooth="yes"/>
      <point x="47" y="308"/>
      <point x="6" y="250"/>
      <point x="6" y="156" type="curve" smooth="yes"/>
      <point x="6" y="12"/>
      <point x="147" y="-5"/>
      <point x="227" y="-5" type="curve" smooth="yes"/>
      <point x="376" y="-5"/>
      <point x="485" y="134"/>
      <point x="485" y="255" type="curve" smooth="yes"/>
      <point x="485" y="326"/>
      <point x="448" y="390"/>
      <point x="361" y="417" type="curve"/>
      <point x="453" y="463"/>
      <point x="497" y="536"/>
      <point x="497" y="602" type="curve" smooth="yes"/>
      <point x="497" y="681"/>
      <point x="435" y="749"/>
      <point x="321" y="749" type="curve" smooth="yes"/>
      <point x="170" y="749"/>
      <point x="105" y="670"/>
      <point x="105" y="602" type="curve" smooth="yes"/>
      <point x="105" y="544"/>
      <point x="136" y="512"/>
      <point x="176" y="512" type="curve" smooth="yes"/>
      <point x="200" y="512"/>
      <point x="227" y="523"/>
      <point x="253" y="546" type="curve"/>
      <point x="225" y="554"/>
      <point x="215" y="591"/>
      <point x="215" y="614" type="curve" smooth="yes"/>
      <point x="215" y="664"/>
      <point x="239" y="695"/>
      <point x="306" y="695" type="curve" smooth="yes"/>
      <point x="348" y="695"/>
      <point x="369" y="661"/>
      <point x="369" y="616" type="curve" smooth="yes"/>
      <point x="369" y="546"/>
      <point x="315" y="449"/>
      <point x="199" y="418" type="curve"/>
      <point x="291" y="387"/>
      <point x="328" y="308"/>
      <point x="328" y="232" type="curve" smooth="yes"/>
      <point x="328" y="143"/>
      <point x="278" y="58"/>
      <point x="206" y="58" type="curve" smooth="yes"/>
      <point x="153" y="58"/>
      <point x="117" y="72"/>
      <point x="117" y="139" type="curve" smooth="yes"/>
      <point x="117" y="189"/>
      <point x="124" y="250"/>
    </contour>
  </outline>
</glyph>
<glyph name="four" format="1">
  <advance width="476"/>
  <unicode hex="0034"/>
  <outline>
    <contour>
      <point x="252" y="275" type="line" name="hr00"/>
      <point x="193" y="0" type="line"/>
      <point x="337" y="0" type="line"/>
      <point x="395" y="275" type="line"/>
      <point x="455" y="275" type="line"/>
      <point x="475" y="349" type="line"/>
      <point x="411" y="349" type="line"/>
      <point x="497" y="750" type="line"/>
      <point x="349" y="730" type="line"/>
      <point x="268" y="349" type="line"/>
      <point x="112" y="349" type="line"/>
      <point x="163" y="444"/>
      <point x="258" y="528"/>
      <point x="258" y="655" type="curve" smooth="yes"/>
      <point x="258" y="718"/>
      <point x="205" y="750"/>
      <point x="147" y="750" type="curve"/>
      <point x="152" y="730"/>
      <point x="154" y="710"/>
      <point x="154" y="690" type="curve" smooth="yes"/>
      <point x="154" y="544"/>
      <point x="44" y="385"/>
      <point x="8" y="275" type="curve"/>
    </contour>
  </outline>
</glyph>
<glyph name="five" format="1">
  <advance width="517"/>
  <unicode hex="0035"/>
  <outline>
    <contour>
      <point x="500" y="749" type="curve"/>
      <point x="439" y="725"/>
      <point x="389" y="717"/>
      <point x="338" y="717" type="curve" smooth="yes"/>
      <point x="283" y="717"/>
      <point x="228" y="726"/>
      <point x="158" y="734" type="curve"/>
      <point x="76" y="335" type="line"/>
      <point x="114" y="359"/>
      <point x="171" y="391"/>
      <point x="226" y="391" type="curve" smooth="yes"/>
      <point x="301" y="391"/>
      <point x="335" y="322"/>
      <point x="335" y="260" type="curve" smooth="yes"/>
      <point x="335" y="158"/>
      <point x="299" y="50"/>
      <point x="216" y="50" type="curve" smooth="yes"/>
      <point x="171" y="50"/>
      <point x="126" y="69"/>
      <point x="126" y="128" type="curve" smooth="yes"/>
      <point x="126" y="197"/>
      <point x="163" y="223"/>
      <point x="216" y="230" type="curve"/>
      <point x="208" y="266"/>
      <point x="186" y="281"/>
      <point x="141" y="281" type="curve" smooth="yes"/>
      <point x="85" y="281"/>
      <point x="15" y="239"/>
      <point x="15" y="145" type="curve" smooth="yes"/>
      <point x="15" y="10"/>
      <point x="110" y="-5"/>
      <point x="204" y="-5" type="curve" smooth="yes"/>
      <point x="387" y="-5"/>
      <point x="481" y="131"/>
      <point x="481" y="266" type="curve" smooth="yes"/>
      <point x="481" y="381"/>
      <point x="426" y="475"/>
      <point x="304" y="475" type="curve" smooth="yes"/>
      <point x="268" y="475"/>
      <point x="226" y="466"/>
      <point x="180" y="444" type="curve"/>
      <point x="220" y="625" type="line"/>
      <point x="265" y="620"/>
      <point x="329" y="600"/>
      <point x="392" y="600" type="curve" smooth="yes"/>
      <point x="468" y="600"/>
      <point x="502" y="649"/>
      <point x="502" y="716" type="curve" smooth="yes"/>
      <point x="502" y="727"/>
      <point x="501" y="738"/>
    </contour>
  </outline>
</glyph>
<glyph name="six" format="1">
  <advance width="497"/>
  <unicode hex="0036"/>
  <outline>
    <contour>
      <point x="225" y="305" type="curve"/>
      <point x="248" y="352"/>
      <point x="276" y="381"/>
      <point x="313" y="381" type="curve" smooth="yes"/>
      <point x="356" y="381"/>
      <point x="366" y="325"/>
      <point x="366" y="284" type="curve" smooth="yes"/>
      <point x="366" y="177"/>
      <point x="297" y="61"/>
      <point x="233" y="61" type="curve" smooth="yes"/>
      <point x="184" y="61"/>
      <point x="150" y="79"/>
      <point x="150" y="180" type="curve" smooth="yes"/>
      <point x="150" y="202"/>
      <point x="152" y="227"/>
      <point x="155" y="258" type="curve" smooth="yes"/>
      <point x="197" y="674"/>
      <point x="340" y="690"/>
      <point x="366" y="690" type="curve" smooth="yes"/>
      <point x="395" y="690"/>
      <point x="416" y="663"/>
      <point x="416" y="636" type="curve" smooth="yes"/>
      <point x="416" y="623"/>
      <point x="411" y="610"/>
      <point x="400" y="600" type="curve"/>
      <point x="461" y="603"/>
      <point x="489" y="634"/>
      <point x="489" y="668" type="curve" smooth="yes"/>
      <point x="489" y="707"/>
      <point x="449" y="750"/>
      <point x="374" y="750" type="curve" smooth="yes"/>
      <point x="152" y="750"/>
      <point x="37" y="531"/>
      <point x="17" y="230" type="curve" smooth="yes"/>
      <point x="16" y="217"/>
      <point x="16" y="205"/>
      <point x="16" y="193" type="curve" smooth="yes"/>
      <point x="16" y="87"/>
      <point x="51" y="-5"/>
      <point x="211" y="-5" type="curve" smooth="yes"/>
      <point x="357" y="-5"/>
      <point x="481" y="127"/>
      <point x="481" y="298" type="curve" smooth="yes"/>
      <point x="481" y="376"/>
      <point x="441" y="463"/>
      <point x="346" y="463" type="curve" smooth="yes"/>
      <point x="270" y="463"/>
      <point x="205" y="421"/>
      <point x="205" y="363" type="curve" smooth="yes"/>
      <point x="205" y="345"/>
      <point x="211" y="325"/>
    </contour>
  </outline>
</glyph>
<glyph name="eight" format="1">
  <advance width="499"/>
  <unicode hex="0038"/>
  <outline>
    <contour>
      <point x="208" y="58" type="curve" smooth="yes"/>
      <point x="161" y="58"/>
      <point x="137" y="101"/>
      <point x="137" y="158" type="curve" smooth="yes"/>
      <point x="137" y="231"/>
      <point x="177" y="328"/>
      <point x="260" y="383" type="curve"/>
      <point x="304" y="345"/>
      <point x="323" y="288"/>
      <point x="323" y="232" type="curve" smooth="yes"/>
      <point x="323" y="143"/>
      <point x="276" y="58"/>
    </contour>
    <contour>
      <point x="203" y="-5" type="curve" smooth="yes"/>
      <point x="364" y="-5"/>
      <point x="480" y="139"/>
      <point x="480" y="261" type="curve" smooth="yes"/>
      <point x="480" y="329"/>
      <point x="444" y="391"/>
      <point x="359" y="417" type="curve"/>
      <point x="452" y="462"/>
      <point x="499" y="537"/>
      <point x="499" y="604" type="curve" smooth="yes"/>
      <point x="499" y="682"/>
      <point x="436" y="749"/>
      <point x="310" y="749" type="curve" smooth="yes"/>
      <point x="178" y="749"/>
      <point x="87" y="649"/>
      <point x="87" y="553" type="curve" smooth="yes"/>
      <point x="87" y="501"/>
      <point x="113" y="451"/>
      <point x="172" y="417" type="curve"/>
      <point x="50" y="383"/>
      <point x="-8" y="287"/>
      <point x="-8" y="196" type="curve" smooth="yes"/>
      <point x="-8" y="93"/>
      <point x="66" y="-5"/>
    </contour>
    <contour>
      <point x="271" y="451" type="curve"/>
      <point x="235" y="481"/>
      <point x="218" y="527"/>
      <point x="218" y="572" type="curve" smooth="yes"/>
      <point x="218" y="640"/>
      <point x="255" y="704"/>
      <point x="320" y="704" type="curve" smooth="yes"/>
      <point x="354" y="704"/>
      <point x="372" y="675"/>
      <point x="372" y="632" type="curve" smooth="yes"/>
      <point x="372" y="574"/>
      <point x="338" y="495"/>
    </contour>
  </outline>
</glyph>
<glyph name="nine" format="1">
  <advance width="489"/>
  <unicode hex="0039"/>
  <outline>
    <contour>
      <point x="288" y="424" type="curve"/>
      <point x="270" y="377"/>
      <point x="241" y="364"/>
      <point x="204" y="364" type="curve" smooth="yes"/>
      <point x="158" y="364"/>
      <point x="148" y="425"/>
      <point x="148" y="467" type="curve" smooth="yes"/>
      <point x="148" y="571"/>
      <point x="210" y="684"/>
      <point x="275" y="684" type="curve" smooth="yes"/>
      <point x="328" y="684"/>
      <point x="363" y="663"/>
      <point x="363" y="539" type="curve" smooth="yes"/>
      <point x="363" y="523"/>
      <point x="362" y="506"/>
      <point x="361" y="487" type="curve" smooth="yes"/>
      <point x="330" y="71"/>
      <point x="177" y="55"/>
      <point x="151" y="55" type="curve" smooth="yes"/>
      <point x="121" y="55"/>
      <point x="100" y="83"/>
      <point x="100" y="111" type="curve" smooth="yes"/>
      <point x="100" y="123"/>
      <point x="104" y="135"/>
      <point x="114" y="145" type="curve"/>
      <point x="54" y="142"/>
      <point x="27" y="112"/>
      <point x="27" y="80" type="curve" smooth="yes"/>
      <point x="27" y="40"/>
      <point x="70" y="-5"/>
      <point x="147" y="-5" type="curve" smooth="yes"/>
      <point x="358" y="-5"/>
      <point x="486" y="214"/>
      <point x="486" y="515" type="curve" smooth="yes"/>
      <point x="486" y="641"/>
      <point x="448" y="750"/>
      <point x="293" y="750" type="curve" smooth="yes"/>
      <point x="148" y="750"/>
      <point x="34" y="623"/>
      <point x="34" y="457" type="curve" smooth="yes"/>
      <point x="34" y="377"/>
      <point x="75" y="282"/>
      <point x="175" y="282" type="curve" smooth="yes"/>
      <point x="249" y="282"/>
      <point x="309" y="324"/>
      <point x="309" y="374" type="curve" smooth="yes"/>
      <point x="309" y="390"/>
      <point x="302" y="407"/>
    </contour>
  </outline>
</glyph>
<glyph name="colon" format="1">
  <advance width="267"/>
  <unicode hex="003A"/>
  <outline>
    <contour>
      <point x="41" y="135" type="curve" smooth="yes"/>
      <point x="41" y="91"/>
      <point x="76" y="56"/>
      <point x="120" y="56" type="curve" smooth="yes"/>
      <point x="164" y="56"/>
      <point x="200" y="91"/>
      <point x="200" y="135" type="curve" smooth="yes"/>
      <point x="200" y="179"/>
      <point x="164" y="215"/>
      <point x="120" y="215" type="curve" smooth="yes"/>
      <point x="76" y="215"/>
      <point x="41" y="179"/>
    </contour>
    <contour>
      <point x="91" y="375" type="curve" smooth="yes"/>
      <point x="91" y="331"/>
      <point x="126" y="296"/>
      <point x="170" y="296" type="curve" smooth="yes"/>
      <point x="214" y="296"/>
      <point x="250" y="331"/>
      <point x="250" y="375" type="curve" smooth="yes"/>
      <point x="250" y="419"/>
      <point x="214" y="455"/>
      <point x="170" y="455" type="curve" smooth="yes"/>
      <point x="126" y="455"/>
      <point x="91" y="419"/>
    </contour>
  </outline>
</glyph>
<glyph name="semicolon" format="1">
  <advance width="276"/>
  <unicode hex="003B"/>
  <outline>
    <contour>
      <point x="94" y="331" type="curve" smooth="yes"/>
      <point x="94" y="287"/>
      <point x="129" y="252"/>
      <point x="173" y="252" type="curve" smooth="yes"/>
      <point x="217" y="252"/>
      <point x="253" y="287"/>
      <point x="253" y="331" type="curve" smooth="yes"/>
      <point x="253" y="375"/>
      <point x="217" y="411"/>
      <point x="173" y="411" type="curve" smooth="yes"/>
      <point x="129" y="411"/>
      <point x="94" y="375"/>
    </contour>
    <contour>
      <point x="46" y="91" type="curve" smooth="yes"/>
      <point x="46" y="58"/>
      <point x="67" y="35"/>
      <point x="93" y="18" type="curve" smooth="yes"/>
      <point x="102" y="12"/>
      <point x="106" y="5"/>
      <point x="106" y="-2" type="curve" smooth="yes"/>
      <point x="106" y="-39"/>
      <point x="54" y="-57"/>
      <point x="54" y="-93" type="curve" smooth="yes"/>
      <point x="54" y="-99"/>
      <point x="56" y="-105"/>
      <point x="63" y="-110" type="curve"/>
      <point x="145" y="-53"/>
      <point x="193" y="35"/>
      <point x="193" y="95" type="curve" smooth="yes"/>
      <point x="193" y="139"/>
      <point x="169" y="171"/>
      <point x="125" y="171" type="curve" smooth="yes"/>
      <point x="81" y="171"/>
      <point x="46" y="135"/>
    </contour>
  </outline>
</glyph>
<glyph name="less" format="1">
  <advance width="359"/>
  <unicode hex="003C"/>
  <outline>
    <contour>
      <point x="336" y="429" type="line"/>
      <point x="29" y="279" type="line"/>
      <point x="20" y="238" type="line"/>
      <point x="267" y="101" type="line"/>
      <point x="279" y="158" type="line"/>
      <point x="85" y="254" type="line"/>
      <point x="326" y="374" type="line"/>
    </contour>
  </outline>
</glyph>
<glyph name="equal" format="1">
  <advance width="515"/>
  <unicode hex="003D"/>
  <outline>
    <contour>
      <point x="468" y="428" type="line"/>
      <point x="100" y="428" type="line"/>
      <point x="76" y="316" type="line"/>
      <point x="445" y="316" type="line"/>
    </contour>
    <contour>
      <point x="424" y="213" type="line"/>
      <point x="56" y="213" type="line"/>
      <point x="32" y="101" type="line"/>
      <point x="401" y="101" type="line"/>
    </contour>
  </outline>
</glyph>
<glyph name="greater" format="1">
  <advance width="344"/>
  <unicode hex="003E"/>
  <outline>
    <contour>
      <point x="75" y="374" type="line"/>
      <point x="269" y="254" type="line"/>
      <point x="29" y="158" type="line"/>
      <point x="15" y="101" type="line"/>
      <point x="319" y="225" type="line"/>
      <point x="330" y="279" type="line"/>
      <point x="84" y="429" type="line"/>
    </contour>
  </outline>
</glyph>
<glyph name="question" format="1">
  <advance width="441"/>
  <unicode hex="003F"/>
  <outline>
    <contour>
      <point x="425" y="579" type="curve" smooth="yes"/>
      <point x="425" y="646"/>
      <point x="402" y="700"/>
      <point x="265" y="700" type="curve" smooth="yes"/>
      <point x="114" y="700"/>
      <point x="55" y="607"/>
      <point x="55" y="539" type="curve" smooth="yes"/>
      <point x="55" y="483"/>
      <point x="92" y="455"/>
      <point x="131" y="455" type="curve" smooth="yes"/>
      <point x="159" y="455"/>
      <point x="187" y="469"/>
      <point x="204" y="497" type="curve"/>
      <point x="176" y="505"/>
      <point x="166" y="540"/>
      <point x="166" y="563" type="curve" smooth="yes"/>
      <point x="166" y="613"/>
      <point x="208" y="646"/>
      <point x="246" y="646" type="curve" smooth="yes"/>
      <point x="275" y="646"/>
      <point x="301" y="626"/>
      <point x="301" y="577" type="curve" smooth="yes"/>
      <point x="301" y="425"/>
      <point x="119" y="373"/>
      <point x="119" y="232" type="curve"/>
      <point x="185" y="232" type="line"/>
      <point x="234" y="381"/>
      <point x="425" y="386"/>
    </contour>
    <contour>
      <point x="207" y="80" type="curve" smooth="yes"/>
      <point x="207" y="124"/>
      <point x="172" y="159"/>
      <point x="128" y="159" type="curve" smooth="yes"/>
      <point x="84" y="159"/>
      <point x="48" y="124"/>
      <point x="48" y="80" type="curve" smooth="yes"/>
      <point x="48" y="36"/>
      <point x="84" y="0"/>
      <point x="128" y="0" type="curve" smooth="yes"/>
      <point x="172" y="0"/>
      <point x="207" y="36"/>
    </contour>
  </outline>
</glyph>
<glyph name="at" format="1">
  <advance width="562"/>
  <unicode hex="0040"/>
  <outline>
    <contour>
      <point x="394" y="99" type="curve" smooth="yes"/>
      <point x="389" y="103"/>
      <point x="377" y="111"/>
      <point x="370" y="111" type="curve" smooth="yes"/>
      <point x="362" y="111"/>
      <point x="353" y="104"/>
      <point x="347" y="98" type="curve" smooth="yes"/>
      <point x="316" y="67"/>
      <point x="266" y="52"/>
      <point x="204" y="52" type="curve" smooth="yes"/>
      <point x="138" y="52"/>
      <point x="102" y="98"/>
      <point x="102" y="163" type="curve" smooth="yes"/>
      <point x="102" y="350"/>
      <point x="212" y="493"/>
      <point x="324" y="493" type="curve" smooth="yes"/>
      <point x="409" y="493"/>
      <point x="424" y="458"/>
      <point x="424" y="412" type="curve" smooth="yes"/>
      <point x="424" y="359"/>
      <point x="388" y="190"/>
      <point x="347" y="190" type="curve" smooth="yes"/>
      <point x="339" y="190"/>
      <point x="334" y="196"/>
      <point x="334" y="209" type="curve" smooth="yes"/>
      <point x="334" y="216"/>
      <point x="336" y="224"/>
      <point x="338" y="232" type="curve" smooth="yes"/>
      <point x="383" y="424" type="line"/>
      <point x="327" y="430" type="line"/>
      <point x="323" y="415" type="line"/>
      <point x="316" y="425"/>
      <point x="303" y="432"/>
      <point x="290" y="432" type="curve" smooth="yes"/>
      <point x="197" y="432"/>
      <point x="154" y="245"/>
      <point x="154" y="199" type="curve" smooth="yes"/>
      <point x="154" y="166"/>
      <point x="175" y="121"/>
      <point x="207" y="121" type="curve" smooth="yes"/>
      <point x="240" y="121"/>
      <point x="272" y="132"/>
      <point x="285" y="144" type="curve"/>
      <point x="293" y="139"/>
      <point x="303" y="136"/>
      <point x="319" y="136" type="curve" smooth="yes"/>
      <point x="406" y="136"/>
      <point x="491" y="262"/>
      <point x="491" y="412" type="curve" smooth="yes"/>
      <point x="491" y="538"/>
      <point x="392" y="557"/>
      <point x="312" y="557" type="curve" smooth="yes"/>
      <point x="201" y="557"/>
      <point x="-8" y="435"/>
      <point x="-8" y="152" type="curve" smooth="yes"/>
      <point x="-8" y="15"/>
      <point x="87" y="-38"/>
      <point x="173" y="-38" type="curve" smooth="yes"/>
      <point x="249" y="-38"/>
      <point x="349" y="-9"/>
      <point x="402" y="71" type="curve" smooth="yes"/>
      <point x="404" y="74"/>
      <point x="407" y="77"/>
      <point x="407" y="82" type="curve" smooth="yes"/>
      <point x="407" y="85"/>
      <point x="404" y="91"/>
    </contour>
    <contour>
      <point x="270" y="185" type="line"/>
      <point x="265" y="182"/>
      <point x="260" y="180"/>
      <point x="255" y="180" type="curve" smooth="yes"/>
      <point x="223" y="180"/>
      <point x="219" y="189"/>
      <point x="219" y="212" type="curve" smooth="yes"/>
      <point x="219" y="265"/>
      <point x="248" y="390"/>
      <point x="294" y="390" type="curve" smooth="yes"/>
      <point x="300" y="390"/>
      <point x="309" y="389"/>
      <point x="315" y="383" type="curve"/>
      <point x="273" y="216" type="line"/>
      <point x="270" y="208"/>
      <point x="270" y="201"/>
      <point x="270" y="195" type="curve" smooth="yes"/>
    </contour>
  </outline>
</glyph>
<glyph name="B" format="1">
  <advance width="635"/>
  <unicode hex="0042"/>
  <outline>
    <contour>
      <point x="230" y="636" type="line"/>
      <point x="94" y="0" type="line"/>
      <point x="238" y="0" type="line"/>
      <point x="320" y="383" type="line"/>
      <point x="338" y="385"/>
      <point x="357" y="386"/>
      <point x="370" y="386" type="curve" smooth="yes"/>
      <point x="436" y="386"/>
      <point x="461" y="328"/>
      <point x="461" y="263" type="curve" smooth="yes"/>
      <point x="461" y="178"/>
      <point x="417" y="79"/>
      <point x="362" y="79" type="curve" smooth="yes"/>
      <point x="348" y="79"/>
      <point x="314" y="84"/>
      <point x="295" y="115" type="curve"/>
      <point x="286" y="90"/>
      <point x="282" y="69"/>
      <point x="282" y="52" type="curve" smooth="yes"/>
      <point x="282" y="-11"/>
      <point x="340" y="-17"/>
      <point x="400" y="-17" type="curve" smooth="yes"/>
      <point x="510" y="-17"/>
      <point x="599" y="140"/>
      <point x="599" y="269" type="curve" smooth="yes"/>
      <point x="599" y="347"/>
      <point x="566" y="416"/>
      <point x="484" y="432" type="curve"/>
      <point x="548" y="469"/>
      <point x="584" y="531"/>
      <point x="584" y="590" type="curve" smooth="yes"/>
      <point x="584" y="672"/>
      <point x="514" y="750"/>
      <point x="357" y="750" type="curve" smooth="yes"/>
      <point x="190" y="750"/>
      <point x="6" y="623"/>
      <point x="6" y="490" type="curve" smooth="yes"/>
      <point x="6" y="418"/>
      <point x="44" y="393"/>
      <point x="113" y="393" type="curve"/>
      <point x="112" y="402"/>
      <point x="99" y="410"/>
      <point x="99" y="461" type="curve" smooth="yes"/>
      <point x="99" y="613"/>
      <point x="207" y="704"/>
      <point x="369" y="704" type="curve" smooth="yes"/>
      <point x="447" y="704"/>
      <point x="479" y="655"/>
      <point x="479" y="599" type="curve" smooth="yes"/>
      <point x="479" y="523"/>
      <point x="420" y="434"/>
      <point x="337" y="434" type="curve" smooth="yes"/>
      <point x="330" y="434" type="line"/>
      <point x="378" y="656" type="line"/>
    </contour>
  </outline>
</glyph>
<glyph name="C" format="1">
  <advance width="497"/>
  <unicode hex="0043"/>
  <outline>
    <contour>
      <point x="500" y="180" type="line"/>
      <point x="463" y="116"/>
      <point x="390" y="84"/>
      <point x="313" y="84" type="curve" smooth="yes"/>
      <point x="205" y="84"/>
      <point x="181" y="140"/>
      <point x="181" y="271" type="curve" smooth="yes"/>
      <point x="181" y="449"/>
      <point x="260" y="703"/>
      <point x="383" y="703" type="curve" smooth="yes"/>
      <point x="447" y="703"/>
      <point x="452" y="648"/>
      <point x="452" y="632" type="curve" smooth="yes"/>
      <point x="452" y="607"/>
      <point x="433" y="557"/>
      <point x="408" y="550" type="curve"/>
      <point x="427" y="528"/>
      <point x="449" y="524"/>
      <point x="465" y="524" type="curve" smooth="yes"/>
      <point x="516" y="524"/>
      <point x="535" y="563"/>
      <point x="535" y="616" type="curve" smooth="yes"/>
      <point x="535" y="713"/>
      <point x="454" y="750"/>
      <point x="361" y="750" type="curve" smooth="yes"/>
      <point x="95" y="750"/>
      <point x="24" y="467"/>
      <point x="24" y="249" type="curve" smooth="yes"/>
      <point x="24" y="44"/>
      <point x="141" y="-6"/>
      <point x="243" y="-6" type="curve" smooth="yes"/>
      <point x="337" y="-6"/>
      <point x="470" y="24"/>
      <point x="523" y="170" type="curve"/>
    </contour>
  </outline>
</glyph>
<glyph name="E" format="1">
  <advance width="459"/>
  <unicode hex="0045"/>
  <outline>
    <contour>
      <point x="461" y="180" type="line"/>
      <point x="425" y="114"/>
      <point x="337" y="78"/>
      <point x="276" y="78" type="curve" smooth="yes"/>
      <point x="208" y="78"/>
      <point x="181" y="123"/>
      <point x="181" y="179" type="curve" smooth="yes"/>
      <point x="181" y="271"/>
      <point x="253" y="394"/>
      <point x="360" y="418" type="curve"/>
      <point x="288" y="437"/>
      <point x="259" y="494"/>
      <point x="259" y="552" type="curve" smooth="yes" name="hr01"/>
      <point x="259" y="622"/>
      <point x="302" y="693"/>
      <point x="361" y="693" type="curve" smooth="yes"/>
      <point x="388" y="693"/>
      <point x="416" y="678"/>
      <point x="416" y="637" type="curve" smooth="yes"/>
      <point x="416" y="603"/>
      <point x="397" y="558"/>
      <point x="372" y="550" type="curve"/>
      <point x="386" y="531"/>
      <point x="402" y="523"/>
      <point x="419" y="523" type="curve" smooth="yes" name="hr02"/>
      <point x="459" y="523"/>
      <point x="493" y="567"/>
      <point x="493" y="627" type="curve" smooth="yes"/>
      <point x="493" y="709"/>
      <point x="429" y="752"/>
      <point x="350" y="752" type="curve" smooth="yes"/>
      <point x="222" y="752"/>
      <point x="131" y="640"/>
      <point x="131" y="537" type="curve" smooth="yes"/>
      <point x="131" y="492"/>
      <point x="149" y="448"/>
      <point x="192" y="417" type="curve"/>
      <point x="77" y="389"/>
      <point x="7" y="263"/>
      <point x="7" y="158" type="curve" smooth="yes" name="hr03"/>
      <point x="7" y="64"/>
      <point x="63" y="-18"/>
      <point x="191" y="-18" type="curve" smooth="yes"/>
      <point x="310" y="-18"/>
      <point x="432" y="52"/>
      <point x="484" y="170" type="curve"/>
    </contour>
  </outline>
</glyph>
<glyph name="F" format="1">
  <advance width="495"/>
  <unicode hex="0046"/>
  <outline>
    <contour>
      <point x="322" y="419" type="line"/>
      <point x="371" y="649" type="line"/>
      <point x="418" y="639"/>
      <point x="465" y="630"/>
      <point x="511" y="630" type="curve"/>
      <point x="589" y="647"/>
      <point x="592" y="708"/>
      <point x="606" y="750" type="curve"/>
      <point x="578" y="741"/>
      <point x="547" y="738"/>
      <point x="516" y="738" type="curve" smooth="yes"/>
      <point x="453" y="738"/>
      <point x="390" y="750"/>
      <point x="350" y="750" type="curve" smooth="yes"/>
      <point x="103" y="750"/>
      <point x="9" y="623"/>
      <point x="9" y="490" type="curve" smooth="yes"/>
      <point x="9" y="418"/>
      <point x="47" y="393"/>
      <point x="116" y="393" type="curve"/>
      <point x="115" y="402"/>
      <point x="102" y="410"/>
      <point x="102" y="461" type="curve" smooth="yes"/>
      <point x="102" y="620"/>
      <point x="155" y="664"/>
      <point x="232" y="668" type="curve"/>
      <point x="88" y="0" type="line"/>
      <point x="232" y="0" type="line"/>
      <point x="306" y="345" type="line"/>
      <point x="456" y="345" type="line"/>
      <point x="476" y="419" type="line"/>
    </contour>
  </outline>
</glyph>
<glyph name="G" format="1">
  <advance width="578"/>
  <unicode hex="0047"/>
  <outline>
    <contour>
      <point x="417" y="418" type="line"/>
      <point x="374" y="229" type="line"/>
      <point x="353" y="201"/>
      <point x="326" y="192"/>
      <point x="289" y="192" type="curve" smooth="yes"/>
      <point x="206" y="192"/>
      <point x="173" y="268"/>
      <point x="173" y="357" type="curve" smooth="yes"/>
      <point x="173" y="516"/>
      <point x="285" y="703"/>
      <point x="395" y="703" type="curve" smooth="yes"/>
      <point x="459" y="703"/>
      <point x="464" y="648"/>
      <point x="464" y="632" type="curve" smooth="yes"/>
      <point x="464" y="607"/>
      <point x="445" y="557"/>
      <point x="420" y="550" type="curve"/>
      <point x="439" y="528"/>
      <point x="473" y="524"/>
      <point x="489" y="524" type="curve" smooth="yes"/>
      <point x="540" y="524"/>
      <point x="559" y="563"/>
      <point x="559" y="616" type="curve" smooth="yes"/>
      <point x="559" y="713"/>
      <point x="466" y="750"/>
      <point x="373" y="750" type="curve" smooth="yes"/>
      <point x="150" y="750"/>
      <point x="19" y="556"/>
      <point x="19" y="365" type="curve" smooth="yes"/>
      <point x="19" y="227"/>
      <point x="71" y="109"/>
      <point x="234" y="109" type="curve" smooth="yes"/>
      <point x="243" y="109"/>
      <point x="298" y="114"/>
      <point x="356" y="145" type="curve"/>
      <point x="316" y="-34" type="line" smooth="yes"/>
      <point x="293" y="-137"/>
      <point x="261" y="-157"/>
      <point x="216" y="-157" type="curve" smooth="yes"/>
      <point x="174" y="-157"/>
      <point x="153" y="-124"/>
      <point x="153" y="-89" type="curve" smooth="yes"/>
      <point x="153" y="-52"/>
      <point x="177" y="-13"/>
      <point x="223" y="-13" type="curve" smooth="yes"/>
      <point x="243" y="-13"/>
      <point x="258" y="-18"/>
      <point x="283" y="-39" type="curve"/>
      <point x="287" y="-24"/>
      <point x="289" y="-10"/>
      <point x="289" y="1" type="curve" smooth="yes"/>
      <point x="289" y="65"/>
      <point x="231" y="68"/>
      <point x="191" y="68" type="curve" smooth="yes"/>
      <point x="112" y="68"/>
      <point x="69" y="-1"/>
      <point x="69" y="-69" type="curve" smooth="yes"/>
      <point x="69" y="-138"/>
      <point x="113" y="-207"/>
      <point x="208" y="-207" type="curve" smooth="yes"/>
      <point x="372" y="-207"/>
      <point x="431" y="-111"/>
      <point x="464" y="42" type="curve" smooth="yes"/>
      <point x="546" y="418" type="line"/>
    </contour>
  </outline>
</glyph>
<glyph name="H" format="1">
  <advance width="631"/>
  <unicode hex="0048"/>
  <outline>
    <contour>
      <point x="397" y="748" type="line"/>
      <point x="384" y="749"/>
      <point x="371" y="750"/>
      <point x="357" y="750" type="curve" smooth="yes"/>
      <point x="190" y="750"/>
      <point x="6" y="623"/>
      <point x="6" y="490" type="curve" smooth="yes"/>
      <point x="6" y="418"/>
      <point x="44" y="393"/>
      <point x="113" y="393" type="curve"/>
      <point x="112" y="402"/>
      <point x="99" y="410"/>
      <point x="99" y="461" type="curve" smooth="yes"/>
      <point x="99" y="567"/>
      <point x="151" y="643"/>
      <point x="239" y="680" type="curve"/>
      <point x="94" y="0" type="line"/>
      <point x="238" y="0" type="line"/>
      <point x="318" y="377" type="line"/>
      <point x="334" y="379"/>
      <point x="353" y="381"/>
      <point x="372" y="381" type="curve" smooth="yes"/>
      <point x="393" y="381"/>
      <point x="414" y="379"/>
      <point x="436" y="371" type="curve"/>
      <point x="357" y="0" type="line"/>
      <point x="501" y="0" type="line"/>
      <point x="660" y="748" type="line"/>
      <point x="516" y="748" type="line"/>
      <point x="454" y="456" type="line"/>
      <point x="447" y="457"/>
      <point x="439" y="457"/>
      <point x="432" y="457" type="curve" smooth="yes"/>
      <point x="400" y="457"/>
      <point x="366" y="450"/>
      <point x="332" y="444" type="curve"/>
    </contour>
  </outline>
</glyph>
<glyph name="J" format="1">
  <advance width="536"/>
  <unicode hex="004A"/>
  <outline>
    <contour>
      <point x="538" y="750" type="line" smooth="yes"/>
      <point x="371" y="750"/>
      <point x="187" y="623"/>
      <point x="187" y="490" type="curve" smooth="yes"/>
      <point x="187" y="418"/>
      <point x="225" y="393"/>
      <point x="294" y="393" type="curve"/>
      <point x="293" y="402"/>
      <point x="280" y="410"/>
      <point x="280" y="461" type="curve" smooth="yes"/>
      <point x="280" y="568"/>
      <point x="334" y="644"/>
      <point x="421" y="680" type="curve"/>
      <point x="264" y="-34" type="line" smooth="yes"/>
      <point x="241" y="-137"/>
      <point x="214" y="-157"/>
      <point x="169" y="-157" type="curve" smooth="yes"/>
      <point x="140" y="-157"/>
      <point x="101" y="-139"/>
      <point x="101" y="-87" type="curve" smooth="yes"/>
      <point x="101" y="-50"/>
      <point x="125" y="-13"/>
      <point x="171" y="-13" type="curve" smooth="yes"/>
      <point x="191" y="-13"/>
      <point x="206" y="-18"/>
      <point x="231" y="-39" type="curve"/>
      <point x="235" y="-24"/>
      <point x="237" y="-10"/>
      <point x="237" y="1" type="curve" smooth="yes"/>
      <point x="237" y="65"/>
      <point x="179" y="68"/>
      <point x="139" y="68" type="curve" smooth="yes"/>
      <point x="60" y="68"/>
      <point x="17" y="2"/>
      <point x="17" y="-66" type="curve" smooth="yes"/>
      <point x="17" y="-149"/>
      <point x="70" y="-207"/>
      <point x="165" y="-207" type="curve" smooth="yes"/>
      <point x="329" y="-207"/>
      <point x="396" y="-113"/>
      <point x="428" y="40" type="curve" smooth="yes"/>
      <point x="578" y="750" type="line"/>
    </contour>
  </outline>
</glyph>
<glyph name="K" format="1">
  <advance width="601"/>
  <unicode hex="004B"/>
  <outline>
    <contour>
      <point x="397" y="748" type="line"/>
      <point x="384" y="749"/>
      <point x="371" y="750"/>
      <point x="357" y="750" type="curve" smooth="yes"/>
      <point x="190" y="750"/>
      <point x="6" y="623"/>
      <point x="6" y="490" type="curve" smooth="yes"/>
      <point x="6" y="418"/>
      <point x="44" y="393"/>
      <point x="113" y="393" type="curve"/>
      <point x="112" y="402"/>
      <point x="99" y="410"/>
      <point x="99" y="461" type="curve" smooth="yes"/>
      <point x="99" y="567"/>
      <point x="151" y="643"/>
      <point x="239" y="680" type="curve"/>
      <point x="94" y="0" type="line"/>
      <point x="238" y="0" type="line"/>
      <point x="318" y="376" type="line"/>
      <point x="331" y="379"/>
      <point x="342" y="380"/>
      <point x="351" y="380" type="curve" smooth="yes"/>
      <point x="396" y="380"/>
      <point x="411" y="353"/>
      <point x="411" y="313" type="curve" smooth="yes"/>
      <point x="411" y="237"/>
      <point x="358" y="116"/>
      <point x="358" y="50" type="curve" smooth="yes"/>
      <point x="358" y="17"/>
      <point x="371" y="-17"/>
      <point x="436" y="-17" type="curve" smooth="yes"/>
      <point x="460" y="-17"/>
      <point x="493" y="-12"/>
      <point x="535" y="0" type="curve"/>
      <point x="511" y="9"/>
      <point x="496" y="36"/>
      <point x="496" y="66" type="curve" smooth="yes"/>
      <point x="496" y="129"/>
      <point x="545" y="237"/>
      <point x="545" y="319" type="curve" smooth="yes"/>
      <point x="545" y="380"/>
      <point x="518" y="426"/>
      <point x="421" y="426" type="curve" smooth="yes"/>
      <point x="410" y="426"/>
      <point x="398" y="426"/>
      <point x="385" y="424" type="curve"/>
      <point x="664" y="745" type="line"/>
      <point x="559" y="745" type="line"/>
      <point x="559" y="746"/>
      <point x="394" y="527"/>
      <point x="331" y="442" type="curve"/>
    </contour>
  </outline>
</glyph>
<glyph name="M" format="1">
  <advance width="785"/>
  <unicode hex="004D"/>
  <outline>
    <contour>
      <point x="650" y="0" type="line"/>
      <point x="807" y="736" type="line"/>
      <point x="650" y="736" type="line"/>
      <point x="431" y="160" type="line"/>
      <point x="431" y="736" type="line"/>
      <point x="409" y="743"/>
      <point x="385" y="746"/>
      <point x="362" y="746" type="curve" smooth="yes"/>
      <point x="206" y="746"/>
      <point x="37" y="612"/>
      <point x="37" y="490" type="curve" smooth="yes"/>
      <point x="37" y="418"/>
      <point x="75" y="393"/>
      <point x="144" y="393" type="curve"/>
      <point x="143" y="402"/>
      <point x="130" y="410"/>
      <point x="130" y="461" type="curve" smooth="yes"/>
      <point x="130" y="576"/>
      <point x="191" y="655"/>
      <point x="291" y="687" type="curve"/>
      <point x="67" y="0" type="line"/>
      <point x="147" y="0" type="line"/>
      <point x="279" y="427" type="line"/>
      <point x="279" y="0" type="line"/>
      <point x="416" y="0" type="line"/>
      <point x="606" y="473" type="line"/>
      <point x="506" y="0" type="line"/>
    </contour>
  </outline>
</glyph>
<glyph name="N" format="1">
  <advance width="702"/>
  <unicode hex="004E"/>
  <outline>
    <contour>
      <point x="580" y="748" type="line"/>
      <point x="447" y="122" type="line"/>
      <point x="440" y="146"/>
      <point x="437" y="185"/>
      <point x="437" y="231" type="curve" smooth="yes"/>
      <point x="437" y="328"/>
      <point x="448" y="459"/>
      <point x="448" y="564" type="curve" smooth="yes"/>
      <point x="448" y="707"/>
      <point x="441" y="750"/>
      <point x="357" y="750" type="curve" smooth="yes"/>
      <point x="190" y="750"/>
      <point x="6" y="623"/>
      <point x="6" y="490" type="curve" smooth="yes"/>
      <point x="6" y="418"/>
      <point x="44" y="393"/>
      <point x="113" y="393" type="curve"/>
      <point x="112" y="402"/>
      <point x="99" y="410"/>
      <point x="99" y="461" type="curve" smooth="yes"/>
      <point x="99" y="567"/>
      <point x="151" y="643"/>
      <point x="239" y="680" type="curve"/>
      <point x="94" y="0" type="line"/>
      <point x="238" y="0" type="line"/>
      <point x="368" y="612" type="line"/>
      <point x="370" y="584"/>
      <point x="370" y="554"/>
      <point x="370" y="523" type="curve" smooth="yes"/>
      <point x="370" y="419"/>
      <point x="363" y="302"/>
      <point x="363" y="204" type="curve" smooth="yes"/>
      <point x="363" y="88"/>
      <point x="374" y="0"/>
      <point x="421" y="0" type="curve" smooth="yes"/>
      <point x="565" y="0" type="line"/>
      <point x="724" y="748" type="line"/>
    </contour>
  </outline>
</glyph>
<glyph name="Q" format="1">
  <advance width="658"/>
  <unicode hex="0051"/>
  <outline>
    <contour>
      <point x="378" y="656" type="curve"/>
      <point x="362" y="661"/>
      <point x="347" y="664"/>
      <point x="333" y="664" type="curve" smooth="yes"/>
      <point x="193" y="664"/>
      <point x="117" y="408"/>
      <point x="117" y="222" type="curve" smooth="yes"/>
      <point x="117" y="53"/>
      <point x="203" y="-9"/>
      <point x="332" y="-9" type="curve" smooth="yes"/>
      <point x="348" y="-9"/>
      <point x="363" y="-6"/>
      <point x="378" y="-2" type="curve"/>
      <point x="395" y="-58"/>
      <point x="420" y="-113"/>
      <point x="503" y="-113" type="curve" smooth="yes"/>
      <point x="546" y="-113"/>
      <point x="580" y="-96"/>
      <point x="606" y="-27" type="curve"/>
      <point x="598" y="-28"/>
      <point x="591" y="-29"/>
      <point x="584" y="-29" type="curve" smooth="yes"/>
      <point x="523" y="-29"/>
      <point x="492" y="7"/>
      <point x="463" y="48" type="curve"/>
      <point x="567" y="143"/>
      <point x="631" y="337"/>
      <point x="631" y="479" type="curve" smooth="yes"/>
      <point x="631" y="653"/>
      <point x="555" y="750"/>
      <point x="357" y="750" type="curve" smooth="yes"/>
      <point x="190" y="750"/>
      <point x="6" y="623"/>
      <point x="6" y="490" type="curve" smooth="yes"/>
      <point x="6" y="418"/>
      <point x="44" y="393"/>
      <point x="113" y="393" type="curve"/>
      <point x="112" y="402"/>
      <point x="99" y="410"/>
      <point x="99" y="461" type="curve" smooth="yes"/>
      <point x="99" y="613"/>
      <point x="207" y="704"/>
      <point x="369" y="704" type="curve" smooth="yes"/>
      <point x="495" y="704"/>
      <point x="515" y="610"/>
      <point x="515" y="500" type="curve" smooth="yes"/>
      <point x="515" y="367"/>
      <point x="461" y="208"/>
      <point x="398" y="127" type="curve"/>
      <point x="377" y="145"/>
      <point x="350" y="157"/>
      <point x="314" y="157" type="curve" smooth="yes"/>
      <point x="296" y="157"/>
      <point x="276" y="154"/>
      <point x="254" y="148" type="curve"/>
      <point x="247" y="174"/>
      <point x="243" y="205"/>
      <point x="243" y="238" type="curve" smooth="yes"/>
      <point x="243" y="402"/>
      <point x="296" y="548"/>
    </contour>
    <contour>
      <point x="289" y="120" type="curve" smooth="yes"/>
      <point x="319" y="120"/>
      <point x="336" y="104"/>
      <point x="348" y="82" type="curve"/>
      <point x="339" y="77"/>
      <point x="330" y="75"/>
      <point x="322" y="75" type="curve" smooth="yes"/>
      <point x="296" y="75"/>
      <point x="278" y="91"/>
      <point x="265" y="117" type="curve"/>
      <point x="274" y="119"/>
      <point x="282" y="120"/>
    </contour>
  </outline>
</glyph>
<glyph name="R" format="1">
  <advance width="601"/>
  <unicode hex="0052"/>
  <outline>
    <contour>
      <point x="230" y="636" type="line"/>
      <point x="94" y="0" type="line"/>
      <point x="238" y="0" type="line"/>
      <point x="318" y="377" type="line"/>
      <point x="330" y="380"/>
      <point x="341" y="381"/>
      <point x="350" y="381" type="curve" smooth="yes"/>
      <point x="395" y="381"/>
      <point x="410" y="353"/>
      <point x="410" y="313" type="curve" smooth="yes"/>
      <point x="410" y="237"/>
      <point x="358" y="116"/>
      <point x="358" y="50" type="curve" smooth="yes"/>
      <point x="358" y="17"/>
      <point x="371" y="-17"/>
      <point x="436" y="-17" type="curve" smooth="yes"/>
      <point x="460" y="-17"/>
      <point x="493" y="-12"/>
      <point x="535" y="0" type="curve"/>
      <point x="511" y="9"/>
      <point x="496" y="36"/>
      <point x="496" y="66" type="curve" smooth="yes"/>
      <point x="496" y="128"/>
      <point x="545" y="237"/>
      <point x="545" y="319" type="curve" smooth="yes"/>
      <point x="545" y="366"/>
      <point x="528" y="404"/>
      <point x="476" y="419" type="curve"/>
      <point x="545" y="459"/>
      <point x="584" y="529"/>
      <point x="584" y="590" type="curve" smooth="yes"/>
      <point x="584" y="672"/>
      <point x="515" y="750"/>
      <point x="357" y="750" type="curve" smooth="yes"/>
      <point x="190" y="750"/>
      <point x="6" y="623"/>
      <point x="6" y="490" type="curve" smooth="yes"/>
      <point x="6" y="418"/>
      <point x="44" y="393"/>
      <point x="113" y="393" type="curve"/>
      <point x="112" y="402"/>
      <point x="99" y="410"/>
      <point x="99" y="461" type="curve" smooth="yes"/>
      <point x="99" y="613"/>
      <point x="207" y="704"/>
      <point x="369" y="704" type="curve" smooth="yes"/>
      <point x="447" y="704"/>
      <point x="479" y="655"/>
      <point x="479" y="599" type="curve" smooth="yes"/>
      <point x="479" y="521"/>
      <point x="420" y="424"/>
      <point x="337" y="424" type="curve" smooth="yes"/>
      <point x="328" y="424" type="line"/>
      <point x="378" y="656" type="line"/>
    </contour>
  </outline>
</glyph>
<glyph name="S" format="1">
  <advance width="570"/>
  <unicode hex="0053"/>
  <outline>
    <contour>
      <point x="544" y="630" type="curve" smooth="yes"/>
      <point x="544" y="740"/>
      <point x="430" y="750"/>
      <point x="383" y="750" type="curve" smooth="yes"/>
      <point x="254" y="750"/>
      <point x="152" y="675"/>
      <point x="152" y="571" type="curve" smooth="yes"/>
      <point x="152" y="424"/>
      <point x="357" y="363"/>
      <point x="357" y="192" type="curve" smooth="yes" name="hr01"/>
      <point x="357" y="108"/>
      <point x="308" y="59"/>
      <point x="241" y="59" type="curve" smooth="yes"/>
      <point x="177" y="59"/>
      <point x="145" y="105"/>
      <point x="145" y="155" type="curve" smooth="yes"/>
      <point x="145" y="224"/>
      <point x="208" y="249"/>
      <point x="262" y="249" type="curve"/>
      <point x="259" y="301"/>
      <point x="209" y="315"/>
      <point x="174" y="315" type="curve" smooth="yes"/>
      <point x="104" y="315"/>
      <point x="27" y="259"/>
      <point x="27" y="151" type="curve" smooth="yes"/>
      <point x="27" y="29"/>
      <point x="125" y="-21"/>
      <point x="239" y="-21" type="curve" smooth="yes"/>
      <point x="384" y="-21"/>
      <point x="520" y="61"/>
      <point x="520" y="229" type="curve" smooth="yes"/>
      <point x="520" y="445"/>
      <point x="295" y="465"/>
      <point x="295" y="612" type="curve" smooth="yes" name="hr02"/>
      <point x="295" y="672"/>
      <point x="332" y="703"/>
      <point x="387" y="703" type="curve" smooth="yes"/>
      <point x="442" y="703"/>
      <point x="461" y="671"/>
      <point x="461" y="636" type="curve" smooth="yes"/>
      <point x="461" y="603"/>
      <point x="443" y="566"/>
      <point x="416" y="550" type="curve"/>
      <point x="429" y="535"/>
      <point x="444" y="529"/>
      <point x="462" y="529" type="curve" smooth="yes" name="hr03"/>
      <point x="512" y="529"/>
      <point x="544" y="572"/>
    </contour>
  </outline>
</glyph>
<glyph name="T" format="1">
  <advance width="481"/>
  <unicode hex="0054"/>
  <outline>
    <contour>
      <point x="624" y="618" type="curve" smooth="yes"/>
      <point x="704" y="618"/>
      <point x="705" y="705"/>
      <point x="719" y="747" type="curve"/>
      <point x="692" y="736"/>
      <point x="650" y="732"/>
      <point x="604" y="732" type="curve" smooth="yes"/>
      <point x="506" y="732"/>
      <point x="388" y="749"/>
      <point x="347" y="749" type="curve" smooth="yes"/>
      <point x="100" y="749"/>
      <point x="6" y="622"/>
      <point x="6" y="489" type="curve" smooth="yes"/>
      <point x="6" y="417"/>
      <point x="44" y="392"/>
      <point x="113" y="392" type="curve"/>
      <point x="112" y="401"/>
      <point x="99" y="409"/>
      <point x="99" y="460" type="curve" smooth="yes"/>
      <point x="99" y="629"/>
      <point x="187" y="661"/>
      <point x="299" y="661" type="curve"/>
      <point x="157" y="0" type="line"/>
      <point x="301" y="0" type="line"/>
      <point x="439" y="644" type="line"/>
      <point x="506" y="632"/>
      <point x="571" y="618"/>
    </contour>
  </outline>
</glyph>
<glyph name="V" format="1">
  <advance width="615"/>
  <unicode hex="0056"/>
  <outline>
    <contour>
      <point x="397" y="748" type="line"/>
      <point x="384" y="749"/>
      <point x="371" y="750"/>
      <point x="357" y="750" type="curve" smooth="yes"/>
      <point x="190" y="750"/>
      <point x="6" y="623"/>
      <point x="6" y="490" type="curve" smooth="yes"/>
      <point x="6" y="418"/>
      <point x="44" y="393"/>
      <point x="113" y="393" type="curve"/>
      <point x="112" y="402"/>
      <point x="99" y="410"/>
      <point x="99" y="461" type="curve" smooth="yes"/>
      <point x="99" y="571"/>
      <point x="155" y="649"/>
      <point x="264" y="683" type="curve"/>
      <point x="264" y="0" type="line"/>
      <point x="408" y="0" type="line"/>
      <point x="686" y="745" type="line"/>
      <point x="616" y="745" type="line"/>
      <point x="406" y="133" type="line"/>
    </contour>
  </outline>
</glyph>
<glyph name="W" format="1">
  <advance width="970"/>
  <unicode hex="0057"/>
  <outline>
    <contour>
      <point x="397" y="748" type="line"/>
      <point x="384" y="749"/>
      <point x="371" y="750"/>
      <point x="357" y="750" type="curve" smooth="yes"/>
      <point x="190" y="750"/>
      <point x="6" y="623"/>
      <point x="6" y="490" type="curve" smooth="yes"/>
      <point x="6" y="418"/>
      <point x="44" y="393"/>
      <point x="113" y="393" type="curve"/>
      <point x="112" y="402"/>
      <point x="99" y="410"/>
      <point x="99" y="461" type="curve" smooth="yes"/>
      <point x="99" y="571"/>
      <point x="155" y="649"/>
      <point x="264" y="683" type="curve"/>
      <point x="264" y="0" type="line"/>
      <point x="408" y="0" type="line"/>
      <point x="610" y="509" type="line"/>
      <point x="610" y="0" type="line"/>
      <point x="754" y="0" type="line"/>
      <point x="1032" y="745" type="line"/>
      <point x="962" y="745" type="line"/>
      <point x="743" y="133" type="line"/>
      <point x="743" y="745" type="line"/>
      <point x="616" y="745" type="line"/>
      <point x="406" y="133" type="line"/>
    </contour>
  </outline>
</glyph>
<glyph name="X" format="1">
  <advance width="620"/>
  <unicode hex="0058"/>
  <outline>
    <contour>
      <point x="552" y="0" type="line" name="hr00"/>
      <point x="458" y="454" type="line"/>
      <point x="626" y="745" type="line"/>
      <point x="556" y="745" type="line"/>
      <point x="440" y="540" type="line"/>
      <point x="397" y="748" type="line"/>
      <point x="384" y="749"/>
      <point x="371" y="750"/>
      <point x="357" y="750" type="curve" smooth="yes"/>
      <point x="190" y="750"/>
      <point x="6" y="623"/>
      <point x="6" y="490" type="curve" smooth="yes"/>
      <point x="6" y="418"/>
      <point x="44" y="393"/>
      <point x="113" y="393" type="curve"/>
      <point x="112" y="402"/>
      <point x="99" y="410"/>
      <point x="99" y="461" type="curve" smooth="yes"/>
      <point x="99" y="571"/>
      <point x="155" y="649"/>
      <point x="248" y="683" type="curve"/>
      <point x="322" y="332" type="line"/>
      <point x="134" y="0" type="line"/>
      <point x="195" y="0" type="line"/>
      <point x="340" y="250" type="line"/>
      <point x="393" y="0" type="line"/>
    </contour>
  </outline>
</glyph>
<glyph name="Y" format="1">
  <advance width="620"/>
  <unicode hex="0059"/>
  <outline>
    <contour>
      <point x="438" y="0" type="line" name="hr00"/>
      <point x="504" y="308" type="line"/>
      <point x="698" y="745" type="line"/>
      <point x="632" y="745" type="line"/>
      <point x="484" y="390" type="line"/>
      <point x="397" y="748" type="line"/>
      <point x="384" y="749"/>
      <point x="371" y="750"/>
      <point x="357" y="750" type="curve" smooth="yes"/>
      <point x="190" y="750"/>
      <point x="6" y="623"/>
      <point x="6" y="490" type="curve" smooth="yes"/>
      <point x="6" y="418"/>
      <point x="44" y="393"/>
      <point x="113" y="393" type="curve"/>
      <point x="112" y="402"/>
      <point x="99" y="410"/>
      <point x="99" y="461" type="curve" smooth="yes"/>
      <point x="99" y="571"/>
      <point x="155" y="649"/>
      <point x="248" y="683" type="curve"/>
      <point x="344" y="308" type="line"/>
      <point x="278" y="0" type="line"/>
    </contour>
  </outline>
</glyph>
<glyph name="Z" format="1">
  <advance width="542"/>
  <unicode hex="005A"/>
  <outline>
    <contour>
      <point x="407" y="85" type="curve"/>
      <point x="394" y="67"/>
      <point x="350" y="63"/>
      <point x="303" y="63" type="curve" smooth="yes"/>
      <point x="270" y="63"/>
      <point x="233" y="65"/>
      <point x="207" y="65" type="curve"/>
      <point x="552" y="750" type="line"/>
      <point x="209" y="750" type="line" smooth="yes"/>
      <point x="129" y="750"/>
      <point x="86" y="696"/>
      <point x="86" y="646" type="curve" smooth="yes"/>
      <point x="86" y="618"/>
      <point x="99" y="587"/>
      <point x="137" y="587" type="curve" smooth="yes"/>
      <point x="161" y="587"/>
      <point x="196" y="600"/>
      <point x="196" y="644" type="curve" smooth="yes"/>
      <point x="196" y="668"/>
      <point x="186" y="676"/>
      <point x="179" y="676" type="curve"/>
      <point x="179" y="694"/>
      <point x="224" y="698"/>
      <point x="271" y="698" type="curve" smooth="yes" name="hr01"/>
      <point x="305" y="698"/>
      <point x="340" y="696"/>
      <point x="361" y="696" type="curve"/>
      <point x="11" y="0" type="line"/>
      <point x="372" y="0" type="line" smooth="yes"/>
      <point x="452" y="0"/>
      <point x="500" y="65"/>
      <point x="500" y="116" type="curve" smooth="yes"/>
      <point x="500" y="144"/>
      <point x="486" y="174"/>
      <point x="449" y="174" type="curve" smooth="yes" name="hr02"/>
      <point x="422" y="174"/>
      <point x="389" y="158"/>
      <point x="389" y="116" type="curve" smooth="yes"/>
      <point x="389" y="92"/>
      <point x="400" y="85"/>
    </contour>
  </outline>
</glyph>
<glyph name="bracketleft" format="1">
  <advance width="400"/>
  <unicode hex="005B"/>
  <outline>
    <contour>
      <point x="182" y="-188" type="line"/>
      <point x="61" y="-188" type="line"/>
      <point x="247" y="689" type="line"/>
      <point x="368" y="689" type="line"/>
      <point x="381" y="750" type="line"/>
      <point x="188" y="750" type="line"/>
      <point x="-24" y="-250" type="line"/>
      <point x="169" y="-250" type="line"/>
    </contour>
  </outline>
</glyph>
<glyph name="backslash" format="1">
  <advance width="362"/>
  <unicode hex="005C"/>
  <outline>
    <contour>
      <point x="254" y="-250" type="line"/>
      <point x="326" y="-250" type="line"/>
      <point x="114" y="750" type="line"/>
      <point x="42" y="750" type="line"/>
    </contour>
  </outline>
</glyph>
<glyph name="bracketright" format="1">
  <advance width="400"/>
  <unicode hex="005D"/>
  <outline>
    <contour>
      <point x="175" y="688" type="line"/>
      <point x="296" y="688" type="line"/>
      <point x="110" y="-189" type="line"/>
      <point x="-11" y="-189" type="line"/>
      <point x="-24" y="-250" type="line"/>
      <point x="169" y="-250" type="line"/>
      <point x="381" y="750" type="line"/>
      <point x="188" y="750" type="line"/>
    </contour>
  </outline>
</glyph>
<glyph name="asciicircum" format="1">
  <advance width="421"/>
  <unicode hex="005E"/>
  <outline>
    <contour>
      <point x="343" y="561" type="line"/>
      <point x="283" y="750" type="line"/>
      <point x="262" y="750" type="line"/>
      <point x="50" y="561" type="line"/>
      <point x="94" y="561" type="line"/>
      <point x="251" y="641" type="line"/>
      <point x="311" y="561" type="line"/>
    </contour>
  </outline>
</glyph>
<glyph name="underscore" format="1">
  <advance width="444"/>
  <unicode hex="005F"/>
  <outline>
    <contour>
      <point x="404" y="79" type="line"/>
      <point x="54" y="79" type="line"/>
      <point x="36" y="0" type="line"/>
      <point x="387" y="0" type="line"/>
    </contour>
  </outline>
</glyph>
<glyph name="grave" format="1">
  <advance width="201"/>
  <unicode hex="0060"/>
  <outline>
    <contour>
      <point x="83" y="561" type="line"/>
      <point x="158" y="561" type="line"/>
      <point x="129" y="750" type="line"/>
      <point x="24" y="750" type="line"/>
    </contour>
  </outline>
</glyph>
<glyph name="a" format="1">
  <advance width="526"/>
  <unicode hex="0061"/>
  <outline>
    <contour>
      <point x="336" y="500" type="line" name="hr00"/>
      <point x="325" y="447" type="line"/>
      <point x="325" y="454" type="line" smooth="yes"/>
      <point x="325" y="483"/>
      <point x="301" y="505"/>
      <point x="244" y="505" type="curve" smooth="yes"/>
      <point x="70" y="505"/>
      <point x="-13" y="290"/>
      <point x="-13" y="155" type="curve" smooth="yes"/>
      <point x="-13" y="36"/>
      <point x="52" y="-6"/>
      <point x="120" y="-6" type="curve" smooth="yes"/>
      <point x="191" y="-6"/>
      <point x="238" y="40"/>
      <point x="269" y="86" type="curve"/>
      <point x="275" y="26"/>
      <point x="311" y="-6"/>
      <point x="367" y="-6" type="curve" smooth="yes"/>
      <point x="421" y="-6"/>
      <point x="511" y="16"/>
      <point x="568" y="179" type="curve"/>
      <point x="526" y="179" type="line"/>
      <point x="511" y="129"/>
      <point x="484" y="85"/>
      <point x="445" y="85" type="curve" smooth="yes"/>
      <point x="417" y="85"/>
      <point x="404" y="100"/>
      <point x="404" y="128" type="curve" smooth="yes"/>
      <point x="404" y="137"/>
      <point x="405" y="147"/>
      <point x="408" y="160" type="curve" smooth="yes"/>
      <point x="480" y="500" type="line"/>
    </contour>
    <contour>
      <point x="275" y="443" type="curve" smooth="yes"/>
      <point x="307" y="443"/>
      <point x="316" y="417"/>
      <point x="316" y="405" type="curve"/>
      <point x="268" y="179" type="line" smooth="yes"/>
      <point x="256" y="121"/>
      <point x="214" y="91"/>
      <point x="185" y="91" type="curve" smooth="yes"/>
      <point x="167" y="91"/>
      <point x="135" y="92"/>
      <point x="135" y="169" type="curve" smooth="yes"/>
      <point x="135" y="263"/>
      <point x="190" y="443"/>
    </contour>
  </outline>
</glyph>
<glyph name="b" format="1">
  <advance width="430"/>
  <unicode hex="0062"/>
  <outline>
    <contour>
      <point x="99" y="680" type="line"/>
      <point x="-12" y="160" type="line" smooth="yes"/>
      <point x="-16" y="142"/>
      <point x="-18" y="125"/>
      <point x="-18" y="111" type="curve" smooth="yes"/>
      <point x="-18" y="25"/>
      <point x="48" y="-3"/>
      <point x="147" y="-3" type="curve" smooth="yes"/>
      <point x="326" y="-3"/>
      <point x="412" y="218"/>
      <point x="412" y="375" type="curve" smooth="yes"/>
      <point x="412" y="434"/>
      <point x="381" y="502"/>
      <point x="285" y="502" type="curve" smooth="yes"/>
      <point x="252" y="502"/>
      <point x="222" y="490"/>
      <point x="199" y="473" type="curve"/>
      <point x="247" y="700" type="line"/>
    </contour>
    <contour>
      <point x="300" y="368" type="curve" smooth="yes"/>
      <point x="300" y="296"/>
      <point x="250" y="68"/>
      <point x="168" y="68" type="curve" smooth="yes"/>
      <point x="138" y="68"/>
      <point x="124" y="75"/>
      <point x="124" y="105" type="curve" smooth="yes"/>
      <point x="124" y="118"/>
      <point x="127" y="136"/>
      <point x="132" y="160" type="curve" smooth="yes"/>
      <point x="189" y="428" type="line"/>
      <point x="198" y="435"/>
      <point x="233" y="442"/>
      <point x="243" y="442" type="curve" smooth="yes"/>
      <point x="268" y="442"/>
      <point x="300" y="428"/>
    </contour>
  </outline>
</glyph>
<glyph name="c" format="1">
  <advance width="360"/>
  <unicode hex="0063"/>
  <outline>
    <contour>
      <point x="292" y="401" type="curve"/>
      <point x="305" y="405"/>
      <point x="315" y="407"/>
      <point x="324" y="407" type="curve" smooth="yes"/>
      <point x="336" y="407"/>
      <point x="344" y="404"/>
      <point x="349" y="401" type="curve"/>
      <point x="353" y="414"/>
      <point x="354" y="423"/>
      <point x="354" y="434" type="curve" smooth="yes"/>
      <point x="354" y="489"/>
      <point x="298" y="503"/>
      <point x="244" y="503" type="curve" smooth="yes"/>
      <point x="50" y="503"/>
      <point x="-13" y="310"/>
      <point x="-13" y="164" type="curve" smooth="yes"/>
      <point x="-13" y="46"/>
      <point x="41" y="0"/>
      <point x="124" y="0" type="curve" smooth="yes"/>
      <point x="301" y="0"/>
      <point x="355" y="125"/>
      <point x="403" y="179" type="curve"/>
      <point x="369" y="179" type="line"/>
      <point x="323" y="127"/>
      <point x="266" y="85"/>
      <point x="195" y="85" type="curve" smooth="yes"/>
      <point x="134" y="85"/>
      <point x="122" y="133"/>
      <point x="122" y="192" type="curve" smooth="yes"/>
      <point x="122" y="300"/>
      <point x="176" y="463"/>
      <point x="260" y="463" type="curve" smooth="yes"/>
      <point x="282" y="463"/>
      <point x="297" y="453"/>
      <point x="297" y="429" type="curve" smooth="yes"/>
      <point x="297" y="421"/>
      <point x="295" y="412"/>
    </contour>
  </outline>
</glyph>
<glyph name="e" format="1">
  <advance width="384"/>
  <unicode hex="0065"/>
  <outline>
    <contour>
      <point x="135" y="162" type="curve" smooth="yes" name="hr00"/>
      <point x="135" y="174"/>
      <point x="136" y="188"/>
      <point x="137" y="202" type="curve"/>
      <point x="257" y="209"/>
      <point x="367" y="298"/>
      <point x="367" y="413" type="curve" smooth="yes"/>
      <point x="367" y="463"/>
      <point x="346" y="509"/>
      <point x="257" y="509" type="curve" smooth="yes"/>
      <point x="52" y="509"/>
      <point x="-13" y="268"/>
      <point x="-13" y="153" type="curve" smooth="yes"/>
      <point x="-13" y="40"/>
      <point x="49" y="-6"/>
      <point x="143" y="-6" type="curve" smooth="yes"/>
      <point x="276" y="-6"/>
      <point x="361" y="87"/>
      <point x="418" y="179" type="curve"/>
      <point x="384" y="179" type="line"/>
      <point x="334" y="122"/>
      <point x="286" y="78"/>
      <point x="207" y="78" type="curve" smooth="yes"/>
      <point x="159" y="78"/>
      <point x="135" y="94"/>
    </contour>
    <contour>
      <point x="290" y="415" type="curve" smooth="yes"/>
      <point x="290" y="332"/>
      <point x="222" y="255"/>
      <point x="145" y="250" type="curve"/>
      <point x="165" y="349"/>
      <point x="214" y="456"/>
      <point x="265" y="456" type="curve" smooth="yes"/>
      <point x="284" y="456"/>
      <point x="290" y="440"/>
    </contour>
  </outline>
</glyph>
<glyph name="g" format="1">
  <advance width="495"/>
  <unicode hex="0067"/>
  <outline>
    <contour>
      <point x="312" y="500" type="line"/>
      <point x="301" y="452" type="line"/>
      <point x="287" y="479"/>
      <point x="258" y="499"/>
      <point x="222" y="499" type="curve" smooth="yes"/>
      <point x="28" y="499"/>
      <point x="-25" y="270"/>
      <point x="-25" y="132" type="curve" smooth="yes"/>
      <point x="-25" y="73"/>
      <point x="3" y="-8"/>
      <point x="99" y="-8" type="curve" smooth="yes"/>
      <point x="145" y="-8"/>
      <point x="184" y="13"/>
      <point x="214" y="40" type="curve"/>
      <point x="204" y="-5" type="line"/>
      <point x="114" y="-38"/>
      <point x="41" y="-71"/>
      <point x="41" y="-153" type="curve" smooth="yes"/>
      <point x="41" y="-218"/>
      <point x="92" y="-250"/>
      <point x="153" y="-250" type="curve" smooth="yes"/>
      <point x="219" y="-250"/>
      <point x="303" y="-223"/>
      <point x="333" y="-80" type="curve" smooth="yes"/>
      <point x="350" y="0" type="line"/>
      <point x="429" y="29"/>
      <point x="499" y="66"/>
      <point x="512" y="131" type="curve"/>
      <point x="516" y="210" type="line"/>
      <point x="483" y="135"/>
      <point x="426" y="90"/>
      <point x="362" y="57" type="curve"/>
      <point x="456" y="500" type="line"/>
    </contour>
    <contour>
      <point x="233" y="443" type="curve" smooth="yes"/>
      <point x="250" y="443"/>
      <point x="274" y="430"/>
      <point x="290" y="400" type="curve"/>
      <point x="231" y="123" type="line"/>
      <point x="212" y="103"/>
      <point x="191" y="88"/>
      <point x="171" y="88" type="curve" smooth="yes"/>
      <point x="127" y="88"/>
      <point x="98" y="103"/>
      <point x="98" y="151" type="curve" smooth="yes"/>
      <point x="98" y="237"/>
      <point x="136" y="443"/>
    </contour>
    <contour>
      <point x="96" y="-139" type="curve" smooth="yes"/>
      <point x="96" y="-100"/>
      <point x="137" y="-75"/>
      <point x="194" y="-53" type="curve"/>
      <point x="188" y="-83" type="line" smooth="yes"/>
      <point x="176" y="-142"/>
      <point x="150" y="-172"/>
      <point x="130" y="-172" type="curve" smooth="yes"/>
      <point x="108" y="-172"/>
      <point x="96" y="-153"/>
    </contour>
  </outline>
</glyph>
<glyph name="h" format="1">
  <advance width="515"/>
  <unicode hex="0068"/>
  <outline>
    <contour>
      <point x="438" y="351" type="line" smooth="yes"/>
      <point x="440" y="359"/>
      <point x="440" y="367"/>
      <point x="440" y="375" type="curve" smooth="yes"/>
      <point x="440" y="442"/>
      <point x="379" y="500"/>
      <point x="325" y="500" type="curve" smooth="yes"/>
      <point x="282" y="500"/>
      <point x="236" y="476"/>
      <point x="195" y="447" type="curve"/>
      <point x="249" y="700" type="line"/>
      <point x="101" y="680" type="line"/>
      <point x="-44" y="0" type="line"/>
      <point x="100" y="0" type="line"/>
      <point x="186" y="404" type="line"/>
      <point x="206" y="418"/>
      <point x="224" y="425"/>
      <point x="248" y="425" type="curve" smooth="yes"/>
      <point x="275" y="425"/>
      <point x="294" y="402"/>
      <point x="294" y="366" type="curve" smooth="yes"/>
      <point x="294" y="358"/>
      <point x="293" y="349"/>
      <point x="291" y="340" type="curve" smooth="yes"/>
      <point x="253" y="160" type="line" smooth="yes"/>
      <point x="249" y="141"/>
      <point x="247" y="125"/>
      <point x="247" y="109" type="curve" smooth="yes"/>
      <point x="247" y="34"/>
      <point x="293" y="0"/>
      <point x="371" y="0" type="curve" smooth="yes"/>
      <point x="449" y="0"/>
      <point x="562" y="133"/>
      <point x="608" y="179" type="curve"/>
      <point x="574" y="179" type="line"/>
      <point x="534" y="147"/>
      <point x="482" y="91"/>
      <point x="442" y="91" type="curve" smooth="yes"/>
      <point x="403" y="91"/>
      <point x="392" y="106"/>
      <point x="392" y="128" type="curve" smooth="yes"/>
      <point x="392" y="137"/>
      <point x="394" y="148"/>
      <point x="397" y="160" type="curve" smooth="yes"/>
    </contour>
  </outline>
</glyph>
<glyph name="i" format="1">
  <advance width="269"/>
  <unicode hex="0069"/>
  <outline>
    <contour>
      <point x="64" y="500" type="line"/>
      <point x="-8" y="160" type="line" smooth="yes"/>
      <point x="-12" y="141"/>
      <point x="-14" y="124"/>
      <point x="-14" y="109" type="curve" smooth="yes"/>
      <point x="-14" y="34"/>
      <point x="34" y="0"/>
      <point x="111" y="0" type="curve" smooth="yes"/>
      <point x="189" y="0"/>
      <point x="302" y="133"/>
      <point x="348" y="179" type="curve"/>
      <point x="314" y="179" type="line"/>
      <point x="274" y="147"/>
      <point x="222" y="91"/>
      <point x="182" y="91" type="curve" smooth="yes"/>
      <point x="142" y="91"/>
      <point x="132" y="107"/>
      <point x="132" y="129" type="curve" smooth="yes"/>
      <point x="132" y="138"/>
      <point x="134" y="149"/>
      <point x="136" y="160" type="curve" smooth="yes"/>
      <point x="208" y="500" type="line"/>
    </contour>
    <contour>
      <point x="83" y="632" type="curve" smooth="yes"/>
      <point x="83" y="588"/>
      <point x="118" y="553"/>
      <point x="162" y="553" type="curve" smooth="yes"/>
      <point x="206" y="553"/>
      <point x="242" y="588"/>
      <point x="242" y="632" type="curve" smooth="yes"/>
      <point x="242" y="676"/>
      <point x="206" y="712"/>
      <point x="162" y="712" type="curve" smooth="yes"/>
      <point x="118" y="712"/>
      <point x="83" y="676"/>
    </contour>
  </outline>
</glyph>
<glyph name="j" format="1">
  <advance width="221"/>
  <unicode hex="006A"/>
  <outline>
    <contour>
      <point x="54" y="500" type="line"/>
      <point x="-51" y="8" type="line"/>
      <point x="-145" y="-20"/>
      <point x="-223" y="-50"/>
      <point x="-223" y="-142" type="curve" smooth="yes"/>
      <point x="-223" y="-207"/>
      <point x="-166" y="-250"/>
      <point x="-105" y="-250" type="curve" smooth="yes"/>
      <point x="-39" y="-250"/>
      <point x="45" y="-223"/>
      <point x="75" y="-80" type="curve" smooth="yes"/>
      <point x="95" y="16" type="line"/>
      <point x="173" y="38"/>
      <point x="241" y="68"/>
      <point x="254" y="131" type="curve"/>
      <point x="258" y="210" type="line"/>
      <point x="224" y="136"/>
      <point x="167" y="92"/>
      <point x="105" y="62" type="curve"/>
      <point x="198" y="500" type="line"/>
    </contour>
    <contour>
      <point x="65" y="634" type="curve" smooth="yes"/>
      <point x="65" y="590"/>
      <point x="100" y="555"/>
      <point x="144" y="555" type="curve" smooth="yes"/>
      <point x="188" y="555"/>
      <point x="224" y="590"/>
      <point x="224" y="634" type="curve" smooth="yes"/>
      <point x="224" y="678"/>
      <point x="188" y="714"/>
      <point x="144" y="714" type="curve" smooth="yes"/>
      <point x="100" y="714"/>
      <point x="65" y="678"/>
    </contour>
    <contour>
      <point x="-168" y="-128" type="curve" smooth="yes"/>
      <point x="-168" y="-74"/>
      <point x="-120" y="-46"/>
      <point x="-58" y="-25" type="curve"/>
      <point x="-70" y="-83" type="line" smooth="yes"/>
      <point x="-82" y="-142"/>
      <point x="-108" y="-161"/>
      <point x="-128" y="-161" type="curve" smooth="yes"/>
      <point x="-150" y="-161"/>
      <point x="-168" y="-142"/>
    </contour>
  </outline>
</glyph>
<glyph name="k" format="1">
  <advance width="489"/>
  <unicode hex="006B"/>
  <outline>
    <contour>
      <point x="370" y="500" type="line"/>
      <point x="370" y="501"/>
      <point x="252" y="410"/>
      <point x="177" y="350" type="curve"/>
      <point x="252" y="700" type="line"/>
      <point x="104" y="680" type="line"/>
      <point x="-41" y="0" type="line"/>
      <point x="103" y="0" type="line"/>
      <point x="160" y="269" type="line"/>
      <point x="181" y="283"/>
      <point x="199" y="291"/>
      <point x="224" y="291" type="curve" smooth="yes"/>
      <point x="251" y="291"/>
      <point x="270" y="268"/>
      <point x="270" y="232" type="curve" smooth="yes"/>
      <point x="270" y="224"/>
      <point x="269" y="215"/>
      <point x="267" y="206" type="curve" smooth="yes"/>
      <point x="256" y="160" type="line" smooth="yes"/>
      <point x="251" y="141"/>
      <point x="249" y="123"/>
      <point x="249" y="107" type="curve" smooth="yes"/>
      <point x="249" y="34"/>
      <point x="297" y="0"/>
      <point x="374" y="0" type="curve" smooth="yes"/>
      <point x="452" y="0"/>
      <point x="548" y="133"/>
      <point x="594" y="179" type="curve"/>
      <point x="560" y="179" type="line"/>
      <point x="520" y="147"/>
      <point x="485" y="91"/>
      <point x="445" y="91" type="curve" smooth="yes"/>
      <point x="406" y="91"/>
      <point x="395" y="106"/>
      <point x="395" y="128" type="curve" smooth="yes"/>
      <point x="395" y="138"/>
      <point x="397" y="149"/>
      <point x="400" y="160" type="curve" smooth="yes"/>
      <point x="414" y="217" type="line" smooth="yes"/>
      <point x="416" y="225"/>
      <point x="417" y="234"/>
      <point x="417" y="242" type="curve" smooth="yes"/>
      <point x="417" y="308"/>
      <point x="355" y="366"/>
      <point x="301" y="366" type="curve" smooth="yes"/>
      <point x="292" y="366"/>
      <point x="284" y="365"/>
      <point x="275" y="363" type="curve"/>
      <point x="478" y="500" type="line"/>
    </contour>
  </outline>
</glyph>
<glyph name="l" format="1">
  <advance width="286"/>
  <unicode hex="006C"/>
  <outline>
    <contour>
      <point x="111" y="680" type="line"/>
      <point x="0" y="160" type="line" smooth="yes"/>
      <point x="-4" y="141"/>
      <point x="-6" y="124"/>
      <point x="-6" y="109" type="curve" smooth="yes"/>
      <point x="-6" y="34"/>
      <point x="41" y="0"/>
      <point x="118" y="0" type="curve" smooth="yes"/>
      <point x="196" y="0"/>
      <point x="309" y="133"/>
      <point x="355" y="179" type="curve"/>
      <point x="321" y="179" type="line"/>
      <point x="281" y="147"/>
      <point x="229" y="91"/>
      <point x="189" y="91" type="curve" smooth="yes"/>
      <point x="150" y="91"/>
      <point x="139" y="106"/>
      <point x="139" y="128" type="curve" smooth="yes"/>
      <point x="139" y="136"/>
      <point x="141" y="145"/>
      <point x="144" y="160" type="curve" smooth="yes"/>
      <point x="259" y="700" type="line"/>
    </contour>
  </outline>
</glyph>
<glyph name="m" format="1">
  <advance width="744"/>
  <unicode hex="006D"/>
  <outline>
    <contour>
      <point x="683" y="351" type="line"/>
      <point x="684" y="359"/>
      <point x="685" y="366"/>
      <point x="685" y="374" type="curve" smooth="yes"/>
      <point x="685" y="442"/>
      <point x="625" y="500"/>
      <point x="570" y="500" type="curve" smooth="yes"/>
      <point x="521" y="500"/>
      <point x="468" y="469"/>
      <point x="424" y="434" type="curve"/>
      <point x="402" y="473"/>
      <point x="362" y="500"/>
      <point x="325" y="500" type="curve" smooth="yes"/>
      <point x="282" y="500"/>
      <point x="236" y="476"/>
      <point x="196" y="447" type="curve"/>
      <point x="207" y="500" type="line"/>
      <point x="63" y="500" type="line"/>
      <point x="-43" y="0" type="line"/>
      <point x="101" y="0" type="line"/>
      <point x="187" y="404" type="line"/>
      <point x="207" y="418"/>
      <point x="224" y="425"/>
      <point x="248" y="425" type="curve" smooth="yes"/>
      <point x="275" y="425"/>
      <point x="294" y="402"/>
      <point x="294" y="366" type="curve" smooth="yes"/>
      <point x="294" y="358"/>
      <point x="293" y="349"/>
      <point x="291" y="340" type="curve" smooth="yes"/>
      <point x="219" y="0" type="line"/>
      <point x="364" y="0" type="line"/>
      <point x="438" y="351" type="line"/>
      <point x="439" y="358"/>
      <point x="440" y="365"/>
      <point x="440" y="372" type="curve" smooth="yes"/>
      <point x="440" y="384"/>
      <point x="438" y="395"/>
      <point x="435" y="407" type="curve"/>
      <point x="454" y="419"/>
      <point x="471" y="425"/>
      <point x="493" y="425" type="curve" smooth="yes"/>
      <point x="520" y="425"/>
      <point x="539" y="402"/>
      <point x="539" y="366" type="curve" smooth="yes"/>
      <point x="539" y="358"/>
      <point x="538" y="349"/>
      <point x="536" y="340" type="curve" smooth="yes"/>
      <point x="498" y="160" type="line" smooth="yes"/>
      <point x="494" y="141"/>
      <point x="492" y="125"/>
      <point x="492" y="109" type="curve" smooth="yes"/>
      <point x="492" y="34"/>
      <point x="538" y="0"/>
      <point x="616" y="0" type="curve" smooth="yes"/>
      <point x="694" y="0"/>
      <point x="784" y="130"/>
      <point x="830" y="184" type="curve"/>
      <point x="783" y="184" type="line"/>
      <point x="760" y="141"/>
      <point x="718" y="82"/>
      <point x="678" y="82" type="curve" smooth="yes"/>
      <point x="646" y="82"/>
      <point x="637" y="100"/>
      <point x="637" y="123" type="curve" smooth="yes"/>
      <point x="637" y="135"/>
      <point x="639" y="148"/>
      <point x="642" y="160" type="curve" smooth="yes"/>
    </contour>
  </outline>
</glyph>
<glyph name="p" format="1">
  <advance width="455"/>
  <unicode hex="0070"/>
  <outline>
    <contour>
      <point x="63" y="500" type="line"/>
      <point x="-96" y="-250" type="line"/>
      <point x="55" y="-214" type="line"/>
      <point x="107" y="31" type="line"/>
      <point x="137" y="12"/>
      <point x="168" y="1"/>
      <point x="201" y="1" type="curve" smooth="yes"/>
      <point x="303" y="1"/>
      <point x="389" y="74"/>
      <point x="420" y="289" type="curve" smooth="yes"/>
      <point x="424" y="315"/>
      <point x="426" y="338"/>
      <point x="426" y="359" type="curve" smooth="yes"/>
      <point x="426" y="462"/>
      <point x="377" y="499"/>
      <point x="273" y="499" type="curve" smooth="yes"/>
      <point x="248" y="499"/>
      <point x="224" y="492"/>
      <point x="203" y="481" type="curve"/>
      <point x="207" y="500" type="line"/>
    </contour>
    <contour>
      <point x="185" y="75" type="curve" smooth="yes"/>
      <point x="169" y="75"/>
      <point x="144" y="75"/>
      <point x="120" y="93" type="curve"/>
      <point x="192" y="429" type="line"/>
      <point x="211" y="442"/>
      <point x="230" y="450"/>
      <point x="249" y="450" type="curve" smooth="yes"/>
      <point x="281" y="450"/>
      <point x="305" y="438"/>
      <point x="305" y="378" type="curve" smooth="yes"/>
      <point x="305" y="354"/>
      <point x="301" y="321"/>
      <point x="292" y="277" type="curve" smooth="yes"/>
      <point x="259" y="118"/>
      <point x="235" y="75"/>
    </contour>
  </outline>
</glyph>
<glyph name="q" format="1">
  <advance width="476"/>
  <unicode hex="0071"/>
  <outline>
    <contour>
      <point x="325" y="500" type="line"/>
      <point x="319" y="472" type="line"/>
      <point x="303" y="496"/>
      <point x="270" y="499"/>
      <point x="241" y="499" type="curve" smooth="yes"/>
      <point x="102" y="499"/>
      <point x="-14" y="343"/>
      <point x="-14" y="110" type="curve" smooth="yes"/>
      <point x="-14" y="37"/>
      <point x="30" y="4"/>
      <point x="97" y="4" type="curve" smooth="yes"/>
      <point x="154" y="4"/>
      <point x="204" y="54"/>
      <point x="245" y="122" type="curve"/>
      <point x="166" y="-250" type="line"/>
      <point x="317" y="-214" type="line"/>
      <point x="469" y="500" type="line"/>
    </contour>
    <contour>
      <point x="263" y="455" type="curve" smooth="yes"/>
      <point x="291" y="455"/>
      <point x="302" y="441"/>
      <point x="302" y="413" type="curve" smooth="yes"/>
      <point x="302" y="397"/>
      <point x="298" y="375"/>
      <point x="293" y="350" type="curve" smooth="yes"/>
      <point x="258" y="184" type="line"/>
      <point x="217" y="123"/>
      <point x="178" y="75"/>
      <point x="145" y="75" type="curve" smooth="yes"/>
      <point x="117" y="75"/>
      <point x="112" y="101"/>
      <point x="112" y="142" type="curve" smooth="yes"/>
      <point x="112" y="287"/>
      <point x="186" y="455"/>
    </contour>
  </outline>
</glyph>
<glyph name="r" format="1">
  <advance width="393"/>
  <unicode hex="0072"/>
  <outline>
    <contour>
      <point x="74" y="500" type="line"/>
      <point x="-32" y="0" type="line"/>
      <point x="112" y="0" type="line"/>
      <point x="195" y="392" type="line"/>
      <point x="218" y="413"/>
      <point x="234" y="424"/>
      <point x="264" y="424" type="curve" smooth="yes"/>
      <point x="294" y="424"/>
      <point x="266" y="358"/>
      <point x="322" y="358" type="curve" smooth="yes"/>
      <point x="371" y="358"/>
      <point x="397" y="401"/>
      <point x="397" y="436" type="curve" smooth="yes"/>
      <point x="397" y="474"/>
      <point x="370" y="500"/>
      <point x="325" y="500" type="curve" smooth="yes"/>
      <point x="283" y="500"/>
      <point x="243" y="478"/>
      <point x="207" y="450" type="curve"/>
      <point x="218" y="500" type="line"/>
    </contour>
  </outline>
</glyph>
<glyph name="s" format="1">
  <advance width="406"/>
  <unicode hex="0073"/>
  <outline>
    <contour>
      <point x="143" y="490" type="line"/>
      <point x="126" y="414"/>
      <point x="103" y="325"/>
      <point x="67" y="260" type="curve"/>
      <point x="27" y="257"/>
      <point x="-9" y="211"/>
      <point x="-9" y="131" type="curve" smooth="yes"/>
      <point x="-9" y="33"/>
      <point x="47" y="0"/>
      <point x="162" y="0" type="curve" smooth="yes"/>
      <point x="255" y="0"/>
      <point x="312" y="38"/>
      <point x="338" y="93" type="curve"/>
      <point x="378" y="127"/>
      <point x="418" y="162"/>
      <point x="446" y="184" type="curve"/>
      <point x="420" y="218" type="line"/>
      <point x="408" y="204"/>
      <point x="383" y="178"/>
      <point x="355" y="153" type="curve"/>
      <point x="356" y="160"/>
      <point x="356" y="167"/>
      <point x="356" y="174" type="curve" smooth="yes"/>
      <point x="356" y="291"/>
      <point x="288" y="341"/>
      <point x="288" y="506" type="curve" smooth="yes"/>
      <point x="288" y="520" type="line"/>
    </contour>
    <contour>
      <point x="144" y="199" type="curve" smooth="yes"/>
      <point x="144" y="229"/>
      <point x="135" y="247"/>
      <point x="111" y="255" type="curve"/>
      <point x="133" y="305"/>
      <point x="147" y="369"/>
      <point x="163" y="418" type="curve"/>
      <point x="165" y="293"/>
      <point x="210" y="240"/>
      <point x="210" y="178" type="curve" smooth="yes"/>
      <point x="210" y="101"/>
      <point x="161" y="59"/>
      <point x="127" y="59" type="curve" smooth="yes"/>
      <point x="74" y="59"/>
      <point x="42" y="85"/>
      <point x="42" y="144" type="curve"/>
      <point x="54" y="138"/>
      <point x="66" y="135"/>
      <point x="78" y="135" type="curve" smooth="yes"/>
      <point x="113" y="135"/>
      <point x="144" y="161"/>
    </contour>
  </outline>
</glyph>
<glyph name="t" format="1">
  <advance width="292"/>
  <unicode hex="0074"/>
  <outline>
    <contour>
      <point x="106" y="638" type="line"/>
      <point x="76" y="500" type="line"/>
      <point x="43" y="500" type="line"/>
      <point x="35" y="460" type="line"/>
      <point x="68" y="460" type="line"/>
      <point x="51" y="374"/>
      <point x="-1" y="162"/>
      <point x="-1" y="109" type="curve" smooth="yes"/>
      <point x="-1" y="34"/>
      <point x="46" y="0"/>
      <point x="123" y="0" type="curve" smooth="yes"/>
      <point x="201" y="0"/>
      <point x="314" y="133"/>
      <point x="360" y="179" type="curve"/>
      <point x="326" y="179" type="line"/>
      <point x="286" y="147"/>
      <point x="234" y="91"/>
      <point x="194" y="91" type="curve" smooth="yes"/>
      <point x="154" y="91"/>
      <point x="144" y="106"/>
      <point x="144" y="129" type="curve" smooth="yes"/>
      <point x="144" y="134"/>
      <point x="143" y="144"/>
      <point x="212" y="460" type="curve"/>
      <point x="272" y="460" type="line"/>
      <point x="280" y="500" type="line"/>
      <point x="220" y="500" type="line"/>
      <point x="239" y="590"/>
      <point x="254" y="658"/>
      <point x="254" y="658" type="curve"/>
    </contour>
  </outline>
</glyph>
<glyph name="u" format="1">
  <advance width="520"/>
  <unicode hex="0075"/>
  <outline>
    <contour>
      <point x="331" y="500" type="line"/>
      <point x="259" y="160" type="line" smooth="yes"/>
      <point x="256" y="148"/>
      <point x="254" y="137"/>
      <point x="253" y="127" type="curve"/>
      <point x="228" y="107"/>
      <point x="203" y="91"/>
      <point x="182" y="91" type="curve" smooth="yes"/>
      <point x="142" y="91"/>
      <point x="132" y="107"/>
      <point x="132" y="129" type="curve" smooth="yes"/>
      <point x="132" y="138"/>
      <point x="134" y="149"/>
      <point x="136" y="160" type="curve" smooth="yes"/>
      <point x="208" y="500" type="line"/>
      <point x="64" y="500" type="line"/>
      <point x="-8" y="160" type="line" smooth="yes"/>
      <point x="-12" y="141"/>
      <point x="-14" y="124"/>
      <point x="-14" y="109" type="curve" smooth="yes"/>
      <point x="-14" y="34"/>
      <point x="34" y="0"/>
      <point x="111" y="0" type="curve" smooth="yes"/>
      <point x="154" y="0"/>
      <point x="208" y="40"/>
      <point x="255" y="84" type="curve"/>
      <point x="264" y="26"/>
      <point x="310" y="0"/>
      <point x="378" y="0" type="curve" smooth="yes"/>
      <point x="456" y="0"/>
      <point x="569" y="133"/>
      <point x="615" y="179" type="curve"/>
      <point x="581" y="179" type="line"/>
      <point x="541" y="147"/>
      <point x="489" y="91"/>
      <point x="449" y="91" type="curve" smooth="yes"/>
      <point x="409" y="91"/>
      <point x="399" y="107"/>
      <point x="399" y="129" type="curve" smooth="yes"/>
      <point x="399" y="138"/>
      <point x="401" y="149"/>
      <point x="403" y="160" type="curve" smooth="yes"/>
      <point x="475" y="500" type="line"/>
    </contour>
  </outline>
</glyph>
<glyph name="v" format="1">
  <advance width="416"/>
  <unicode hex="0076"/>
  <outline>
    <contour>
      <point x="328" y="520" type="curve" smooth="yes"/>
      <point x="295" y="520"/>
      <point x="271" y="492"/>
      <point x="271" y="471" type="curve" smooth="yes"/>
      <point x="271" y="443"/>
      <point x="284" y="415"/>
      <point x="313" y="415" type="curve" smooth="yes"/>
      <point x="319" y="415"/>
      <point x="328" y="417"/>
      <point x="334" y="419" type="curve"/>
      <point x="334" y="310"/>
      <point x="267" y="91"/>
      <point x="169" y="91" type="curve" smooth="yes"/>
      <point x="140" y="91"/>
      <point x="131" y="104"/>
      <point x="131" y="123" type="curve" smooth="yes"/>
      <point x="131" y="134"/>
      <point x="133" y="146"/>
      <point x="136" y="160" type="curve" smooth="yes"/>
      <point x="208" y="500" type="line"/>
      <point x="64" y="500" type="line"/>
      <point x="-8" y="160" type="line" smooth="yes"/>
      <point x="-12" y="141"/>
      <point x="-13" y="124"/>
      <point x="-13" y="109" type="curve" smooth="yes"/>
      <point x="-13" y="34"/>
      <point x="34" y="0"/>
      <point x="111" y="0" type="curve" smooth="yes"/>
      <point x="313" y="0"/>
      <point x="392" y="274"/>
      <point x="392" y="430" type="curve" smooth="yes"/>
      <point x="392" y="482"/>
      <point x="371" y="520"/>
    </contour>
  </outline>
</glyph>
<glyph name="w" format="1">
  <advance width="671"/>
  <unicode hex="0077"/>
  <outline>
    <contour>
      <point x="592" y="520" type="curve" smooth="yes"/>
      <point x="559" y="520"/>
      <point x="535" y="492"/>
      <point x="535" y="471" type="curve" smooth="yes"/>
      <point x="535" y="443"/>
      <point x="548" y="415"/>
      <point x="577" y="415" type="curve" smooth="yes"/>
      <point x="583" y="415"/>
      <point x="592" y="417"/>
      <point x="598" y="419" type="curve"/>
      <point x="598" y="310"/>
      <point x="531" y="91"/>
      <point x="433" y="91" type="curve" smooth="yes"/>
      <point x="404" y="91"/>
      <point x="395" y="104"/>
      <point x="395" y="123" type="curve" smooth="yes"/>
      <point x="395" y="134"/>
      <point x="397" y="146"/>
      <point x="400" y="160" type="curve" smooth="yes"/>
      <point x="472" y="500" type="line"/>
      <point x="328" y="500" type="line"/>
      <point x="256" y="160" type="line" smooth="yes"/>
      <point x="253" y="148"/>
      <point x="251" y="136"/>
      <point x="251" y="126" type="curve"/>
      <point x="227" y="106"/>
      <point x="202" y="91"/>
      <point x="181" y="91" type="curve" smooth="yes"/>
      <point x="141" y="91"/>
      <point x="131" y="107"/>
      <point x="131" y="129" type="curve" smooth="yes"/>
      <point x="131" y="138"/>
      <point x="133" y="149"/>
      <point x="135" y="160" type="curve" smooth="yes"/>
      <point x="207" y="500" type="line"/>
      <point x="63" y="500" type="line"/>
      <point x="-9" y="160" type="line" smooth="yes"/>
      <point x="-13" y="141"/>
      <point x="-15" y="124"/>
      <point x="-15" y="109" type="curve" smooth="yes"/>
      <point x="-15" y="34"/>
      <point x="33" y="0"/>
      <point x="110" y="0" type="curve" smooth="yes"/>
      <point x="152" y="0"/>
      <point x="206" y="40"/>
      <point x="253" y="83" type="curve"/>
      <point x="263" y="26"/>
      <point x="307" y="0"/>
      <point x="375" y="0" type="curve" smooth="yes"/>
      <point x="577" y="0"/>
      <point x="656" y="274"/>
      <point x="656" y="430" type="curve" smooth="yes"/>
      <point x="656" y="482"/>
      <point x="635" y="520"/>
    </contour>
  </outline>
</glyph>
<glyph name="x" format="1">
  <advance width="365"/>
  <unicode hex="0078"/>
  <outline>
    <contour>
      <point x="-34" y="58" type="line"/>
      <point x="5" y="89"/>
      <point x="49" y="129"/>
      <point x="84" y="158" type="curve"/>
      <point x="85" y="155" type="line"/>
      <point x="113" y="24"/>
      <point x="129" y="0"/>
      <point x="217" y="0" type="curve" smooth="yes"/>
      <point x="295" y="0"/>
      <point x="408" y="133"/>
      <point x="454" y="179" type="curve"/>
      <point x="420" y="179" type="line"/>
      <point x="380" y="147"/>
      <point x="328" y="91"/>
      <point x="288" y="91" type="curve" smooth="yes"/>
      <point x="243" y="91"/>
      <point x="238" y="114"/>
      <point x="229" y="155" type="curve" smooth="yes"/>
      <point x="216" y="213" type="line"/>
      <point x="272" y="270"/>
      <point x="362" y="373"/>
      <point x="362" y="440" type="curve" smooth="yes"/>
      <point x="362" y="483"/>
      <point x="343" y="524"/>
      <point x="306" y="524" type="curve" smooth="yes"/>
      <point x="270" y="524"/>
      <point x="238" y="509"/>
      <point x="238" y="475" type="curve" smooth="yes"/>
      <point x="238" y="444"/>
      <point x="250" y="419"/>
      <point x="285" y="419" type="curve" smooth="yes"/>
      <point x="290" y="419"/>
      <point x="296" y="420"/>
      <point x="302" y="421" type="curve"/>
      <point x="300" y="372"/>
      <point x="253" y="309"/>
      <point x="205" y="265" type="curve"/>
      <point x="154" y="500" type="line"/>
      <point x="10" y="500" type="line"/>
      <point x="75" y="201" type="line"/>
      <point x="42" y="167"/>
      <point x="-22" y="109"/>
      <point x="-53" y="88" type="curve"/>
    </contour>
  </outline>
</glyph>
<glyph name="z" format="1">
  <advance width="383"/>
  <unicode hex="007A"/>
  <outline>
    <contour>
      <point x="246" y="62" type="curve"/>
      <point x="246" y="44"/>
      <point x="222" y="40"/>
      <point x="191" y="40" type="curve" smooth="yes"/>
      <point x="167" y="40"/>
      <point x="141" y="41"/>
      <point x="118" y="42" type="curve"/>
      <point x="381" y="500" type="line"/>
      <point x="112" y="500" type="line" smooth="yes"/>
      <point x="32" y="500"/>
      <point x="-5" y="458"/>
      <point x="-5" y="407" type="curve" smooth="yes"/>
      <point x="-5" y="375"/>
      <point x="14" y="349"/>
      <point x="42" y="349" type="curve" smooth="yes"/>
      <point x="74" y="349"/>
      <point x="105" y="362"/>
      <point x="105" y="409" type="curve" smooth="yes"/>
      <point x="105" y="426"/>
      <point x="97" y="438"/>
      <point x="88" y="438" type="curve"/>
      <point x="88" y="456"/>
      <point x="112" y="460"/>
      <point x="143" y="460" type="curve" smooth="yes"/>
      <point x="166" y="460"/>
      <point x="193" y="459"/>
      <point x="216" y="458" type="curve"/>
      <point x="-47" y="0" type="line"/>
      <point x="222" y="0" type="line" smooth="yes"/>
      <point x="302" y="0"/>
      <point x="339" y="42"/>
      <point x="339" y="93" type="curve" smooth="yes"/>
      <point x="339" y="125"/>
      <point x="320" y="151"/>
      <point x="292" y="151" type="curve" smooth="yes"/>
      <point x="260" y="151"/>
      <point x="228" y="137"/>
      <point x="228" y="90" type="curve" smooth="yes"/>
      <point x="228" y="73"/>
      <point x="237" y="62"/>
    </contour>
  </outline>
</glyph>
<glyph name="bar" format="1">
  <advance width="532"/>
  <unicode hex="007C"/>
  <outline>
    <contour>
      <point x="312" y="751" type="line"/>
      <point x="219" y="751" type="line"/>
      <point x="219" y="-250" type="line"/>
      <point x="312" y="-250" type="line"/>
    </contour>
  </outline>
</glyph>
<glyph name="asciitilde" format="1">
  <advance width="431"/>
  <unicode hex="007E"/>
  <outline>
    <contour>
      <point x="444" y="670" type="line"/>
      <point x="430" y="655"/>
      <point x="406" y="647"/>
      <point x="381" y="647" type="curve" smooth="yes"/>
      <point x="323" y="647"/>
      <point x="289" y="680"/>
      <point x="216" y="680" type="curve" smooth="yes"/>
      <point x="140" y="680"/>
      <point x="81" y="646"/>
      <point x="49" y="582" type="curve"/>
      <point x="55" y="580" type="line"/>
      <point x="73" y="597"/>
      <point x="95" y="606"/>
      <point x="121" y="606" type="curve" smooth="yes"/>
      <point x="176" y="606"/>
      <point x="223" y="569"/>
      <point x="289" y="569" type="curve" smooth="yes"/>
      <point x="365" y="569"/>
      <point x="439" y="622"/>
      <point x="450" y="669" type="curve"/>
    </contour>
  </outline>
</glyph>
<glyph name="exclamdown" format="1">
  <advance width="219"/>
  <unicode hex="00A1"/>
  <outline>
    <contour>
      <point x="69" y="221" type="line"/>
      <point x="-61" y="-248" type="line"/>
      <point x="83" y="-248" type="line"/>
      <point x="154" y="221" type="line"/>
    </contour>
    <contour>
      <point x="59" y="372" type="curve" smooth="yes"/>
      <point x="59" y="328"/>
      <point x="94" y="293"/>
      <point x="138" y="293" type="curve" smooth="yes"/>
      <point x="182" y="293"/>
      <point x="218" y="328"/>
      <point x="218" y="372" type="curve" smooth="yes"/>
      <point x="218" y="416"/>
      <point x="182" y="452"/>
      <point x="138" y="452" type="curve" smooth="yes"/>
      <point x="94" y="452"/>
      <point x="59" y="416"/>
    </contour>
  </outline>
</glyph>
<glyph name="sterling" format="1">
  <advance width="465"/>
  <unicode hex="00A3"/>
  <outline>
    <contour>
      <point x="420" y="423" type="line" name="hr00"/>
      <point x="406" y="408"/>
      <point x="382" y="400"/>
      <point x="357" y="400" type="curve" smooth="yes"/>
      <point x="325" y="400"/>
      <point x="300" y="410"/>
      <point x="272" y="419" type="curve"/>
      <point x="352" y="750" type="line"/>
      <point x="202" y="719" type="line"/>
      <point x="130" y="424" type="line"/>
      <point x="84" y="410"/>
      <point x="47" y="380"/>
      <point x="25" y="335" type="curve"/>
      <point x="31" y="333" type="line"/>
      <point x="49" y="350"/>
      <point x="71" y="359"/>
      <point x="97" y="359" type="curve" smooth="yes"/>
      <point x="103" y="359"/>
      <point x="109" y="358"/>
      <point x="114" y="358" type="curve"/>
      <point x="28" y="0" type="line"/>
      <point x="323" y="0" type="line" smooth="yes"/>
      <point x="377" y="0"/>
      <point x="417" y="62"/>
      <point x="427" y="158" type="curve"/>
      <point x="319" y="78"/>
      <point x="263" y="100"/>
      <point x="193" y="91" type="curve"/>
      <point x="249" y="322" type="line"/>
      <point x="265" y="322" type="line" smooth="yes"/>
      <point x="341" y="322"/>
      <point x="415" y="375"/>
      <point x="426" y="422" type="curve"/>
    </contour>
  </outline>
</glyph>
<glyph name="currency" format="1">
  <advance width="500"/>
  <unicode hex="00A4"/>
  <outline>
    <contour>
      <point x="68" y="492" type="line"/>
      <point x="125" y="435" type="line"/>
      <point x="107" y="410"/>
      <point x="96" y="379"/>
      <point x="96" y="345" type="curve" smooth="yes"/>
      <point x="96" y="312"/>
      <point x="107" y="281"/>
      <point x="125" y="256" type="curve"/>
      <point x="69" y="200" type="line"/>
      <point x="105" y="164" type="line"/>
      <point x="161" y="220" type="line"/>
      <point x="187" y="201"/>
      <point x="219" y="190"/>
      <point x="253" y="190" type="curve" smooth="yes"/>
      <point x="287" y="190"/>
      <point x="318" y="201"/>
      <point x="343" y="219" type="curve"/>
      <point x="398" y="164" type="line"/>
      <point x="434" y="200" type="line"/>
      <point x="379" y="255" type="line"/>
      <point x="398" y="281"/>
      <point x="409" y="312"/>
      <point x="409" y="346" type="curve" smooth="yes"/>
      <point x="409" y="380"/>
      <point x="398" y="412"/>
      <point x="379" y="438" type="curve"/>
      <point x="434" y="493" type="line"/>
      <point x="398" y="529" type="line"/>
      <point x="342" y="473" type="line"/>
      <point x="317" y="491"/>
      <point x="286" y="502"/>
      <point x="253" y="502" type="curve" smooth="yes"/>
      <point x="219" y="502"/>
      <point x="188" y="491"/>
      <point x="162" y="472" type="curve"/>
      <point x="106" y="528" type="line"/>
    </contour>
    <contour>
      <point x="253" y="446" type="curve" smooth="yes"/>
      <point x="308" y="446"/>
      <point x="353" y="401"/>
      <point x="353" y="346" type="curve" smooth="yes"/>
      <point x="353" y="291"/>
      <point x="308" y="246"/>
      <point x="253" y="246" type="curve" smooth="yes"/>
      <point x="198" y="246"/>
      <point x="153" y="291"/>
      <point x="153" y="346" type="curve" smooth="yes"/>
      <point x="153" y="401"/>
      <point x="198" y="446"/>
    </contour>
  </outline>
</glyph>
<glyph name="yen" format="1">
  <advance width="474"/>
  <unicode hex="00A5"/>
  <outline>
    <contour>
      <point x="314" y="307" type="line"/>
      <point x="510" y="750" type="line"/>
      <point x="444" y="750" type="line"/>
      <point x="294" y="389" type="line"/>
      <point x="206" y="750" type="line"/>
      <point x="42" y="750" type="line"/>
      <point x="154" y="307" type="line"/>
      <point x="58" y="307" type="line"/>
      <point x="44" y="257" type="line"/>
      <point x="143" y="257" type="line"/>
      <point x="129" y="192" type="line"/>
      <point x="33" y="192" type="line"/>
      <point x="19" y="142" type="line"/>
      <point x="118" y="142" type="line"/>
      <point x="88" y="0" type="line"/>
      <point x="248" y="0" type="line"/>
      <point x="278" y="142" type="line"/>
      <point x="406" y="142" type="line"/>
      <point x="420" y="192" type="line"/>
      <point x="289" y="192" type="line"/>
      <point x="303" y="257" type="line"/>
      <point x="431" y="257" type="line"/>
      <point x="445" y="307" type="line"/>
    </contour>
  </outline>
</glyph>
<glyph name="brokenbar" format="1">
  <advance width="532"/>
  <unicode hex="00A6"/>
  <outline>
    <contour>
      <point x="312" y="222" type="line"/>
      <point x="219" y="222" type="line"/>
      <point x="219" y="-250" type="line"/>
      <point x="312" y="-250" type="line"/>
    </contour>
    <contour>
      <point x="312" y="301" type="line"/>
      <point x="312" y="751" type="line"/>
      <point x="219" y="751" type="line"/>
      <point x="219" y="301" type="line"/>
    </contour>
  </outline>
</glyph>
<glyph name="section" format="1">
  <advance width="542"/>
  <unicode hex="00A7"/>
  <outline>
    <contour>
      <point x="525" y="654" type="curve" smooth="yes"/>
      <point x="525" y="744"/>
      <point x="433" y="750"/>
      <point x="390" y="750" type="curve" smooth="yes"/>
      <point x="295" y="750"/>
      <point x="183" y="691"/>
      <point x="183" y="583" type="curve" smooth="yes"/>
      <point x="183" y="565"/>
      <point x="185" y="550"/>
      <point x="188" y="535" type="curve"/>
      <point x="128" y="512"/>
      <point x="84" y="462"/>
      <point x="84" y="402" type="curve" smooth="yes"/>
      <point x="84" y="268"/>
      <point x="264" y="250"/>
      <point x="264" y="99" type="curve" smooth="yes"/>
      <point x="264" y="38"/>
      <point x="246" y="-4"/>
      <point x="178" y="-4" type="curve" smooth="yes"/>
      <point x="126" y="-4"/>
      <point x="102" y="22"/>
      <point x="102" y="67" type="curve" smooth="yes"/>
      <point x="102" y="122"/>
      <point x="118" y="144"/>
      <point x="183" y="150" type="curve"/>
      <point x="172" y="165"/>
      <point x="144" y="200"/>
      <point x="108" y="200" type="curve" smooth="yes"/>
      <point x="47" y="200"/>
      <point x="8" y="150"/>
      <point x="8" y="75" type="curve" smooth="yes"/>
      <point x="8" y="-40"/>
      <point x="114" y="-54"/>
      <point x="178" y="-54" type="curve" smooth="yes"/>
      <point x="306" y="-54"/>
      <point x="390" y="19"/>
      <point x="390" y="132" type="curve" smooth="yes"/>
      <point x="390" y="136" type="line"/>
      <point x="464" y="150"/>
      <point x="506" y="225"/>
      <point x="506" y="310" type="curve" smooth="yes"/>
      <point x="506" y="463"/>
      <point x="308" y="477"/>
      <point x="308" y="613" type="curve" smooth="yes"/>
      <point x="308" y="657"/>
      <point x="348" y="713"/>
      <point x="400" y="713" type="curve" smooth="yes"/>
      <point x="442" y="713"/>
      <point x="458" y="687"/>
      <point x="458" y="659" type="curve" smooth="yes"/>
      <point x="458" y="633"/>
      <point x="444" y="603"/>
      <point x="422" y="590" type="curve"/>
      <point x="433" y="578"/>
      <point x="446" y="574"/>
      <point x="458" y="574" type="curve" smooth="yes"/>
      <point x="500" y="574"/>
      <point x="525" y="609"/>
    </contour>
    <contour>
      <point x="403" y="246" type="curve" smooth="yes"/>
      <point x="403" y="221"/>
      <point x="396" y="198"/>
      <point x="384" y="183" type="curve"/>
      <point x="351" y="322"/>
      <point x="190" y="375"/>
      <point x="190" y="443" type="curve" smooth="yes"/>
      <point x="190" y="461"/>
      <point x="197" y="476"/>
      <point x="209" y="488" type="curve"/>
      <point x="267" y="393"/>
      <point x="403" y="364"/>
    </contour>
  </outline>
</glyph>
<glyph name="dieresis" format="1">
  <advance width="392"/>
  <unicode hex="00A8"/>
  <outline>
    <contour>
      <point x="56" y="634" type="curve" smooth="yes"/>
      <point x="56" y="600"/>
      <point x="83" y="573"/>
      <point x="117" y="573" type="curve" smooth="yes"/>
      <point x="150" y="573"/>
      <point x="178" y="600"/>
      <point x="178" y="634" type="curve" smooth="yes"/>
      <point x="178" y="667"/>
      <point x="150" y="695"/>
      <point x="117" y="695" type="curve" smooth="yes"/>
      <point x="83" y="695"/>
      <point x="56" y="667"/>
    </contour>
    <contour>
      <point x="236" y="634" type="curve" smooth="yes"/>
      <point x="236" y="600"/>
      <point x="263" y="573"/>
      <point x="297" y="573" type="curve" smooth="yes"/>
      <point x="330" y="573"/>
      <point x="358" y="600"/>
      <point x="358" y="634" type="curve" smooth="yes"/>
      <point x="358" y="667"/>
      <point x="330" y="695"/>
      <point x="297" y="695" type="curve" smooth="yes"/>
      <point x="263" y="695"/>
      <point x="236" y="667"/>
    </contour>
  </outline>
</glyph>
<glyph name="copyright" format="1">
  <advance width="587"/>
  <unicode hex="00A9"/>
  <outline>
    <contour>
      <point x="300" y="484" type="line"/>
      <point x="219" y="484"/>
      <point x="152" y="421"/>
      <point x="152" y="336" type="curve" smooth="yes"/>
      <point x="152" y="253"/>
      <point x="217" y="182"/>
      <point x="298" y="182" type="curve" smooth="yes"/>
      <point x="347" y="182"/>
      <point x="393" y="208"/>
      <point x="421" y="250" type="curve"/>
      <point x="377" y="279" type="line"/>
      <point x="362" y="251"/>
      <point x="333" y="234"/>
      <point x="302" y="234" type="curve" smooth="yes"/>
      <point x="249" y="234"/>
      <point x="207" y="281"/>
      <point x="207" y="341" type="curve" smooth="yes"/>
      <point x="207" y="403"/>
      <point x="253" y="432"/>
      <point x="300" y="432" type="curve" smooth="yes"/>
      <point x="349" y="432"/>
      <point x="365" y="397"/>
      <point x="367" y="390" type="curve" smooth="yes"/>
      <point x="369" y="383"/>
      <point x="366" y="376"/>
      <point x="372" y="369" type="curve"/>
      <point x="424" y="389" type="line"/>
      <point x="411" y="442"/>
      <point x="362" y="481"/>
      <point x="299" y="481" type="curve"/>
    </contour>
    <contour>
      <point x="293" y="76" type="curve" smooth="yes"/>
      <point x="425" y="76"/>
      <point x="535" y="189"/>
      <point x="535" y="332" type="curve" smooth="yes"/>
      <point x="535" y="475"/>
      <point x="425" y="587"/>
      <point x="293" y="587" type="curve" smooth="yes"/>
      <point x="161" y="587"/>
      <point x="51" y="474"/>
      <point x="51" y="331" type="curve" smooth="yes"/>
      <point x="51" y="189"/>
      <point x="161" y="76"/>
    </contour>
    <contour>
      <point x="97" y="331" type="curve" smooth="yes"/>
      <point x="97" y="451"/>
      <point x="187" y="544"/>
      <point x="295" y="544" type="curve" smooth="yes"/>
      <point x="402" y="544"/>
      <point x="492" y="451"/>
      <point x="492" y="331" type="curve" smooth="yes"/>
      <point x="492" y="211"/>
      <point x="402" y="118"/>
      <point x="295" y="118" type="curve" smooth="yes"/>
      <point x="187" y="118"/>
      <point x="97" y="211"/>
    </contour>
  </outline>
</glyph>
<glyph name="ordfeminine" format="1">
  <advance width="345"/>
  <unicode hex="00AA"/>
  <outline>
    <contour>
      <point x="320" y="740" type="line"/>
      <point x="237" y="740" type="line"/>
      <point x="234" y="725" type="line"/>
      <point x="223" y="733"/>
      <point x="208" y="739"/>
      <point x="195" y="739" type="curve" smooth="yes"/>
      <point x="79" y="739"/>
      <point x="43" y="628"/>
      <point x="43" y="535" type="curve" smooth="yes"/>
      <point x="43" y="503"/>
      <point x="59" y="467"/>
      <point x="114" y="467" type="curve" smooth="yes"/>
      <point x="150" y="467"/>
      <point x="176" y="489"/>
      <point x="193" y="511" type="curve"/>
      <point x="199" y="486"/>
      <point x="217" y="470"/>
      <point x="251" y="470" type="curve" smooth="yes"/>
      <point x="271" y="470"/>
      <point x="295" y="473"/>
      <point x="311" y="520" type="curve"/>
      <point x="306" y="518"/>
      <point x="300" y="518"/>
      <point x="296" y="518" type="curve" smooth="yes"/>
      <point x="280" y="518"/>
      <point x="275" y="527"/>
      <point x="275" y="538" type="curve" smooth="yes"/>
      <point x="275" y="544"/>
      <point x="277" y="550"/>
      <point x="278" y="556" type="curve"/>
    </contour>
    <contour>
      <point x="195" y="556" type="line"/>
      <point x="186" y="529"/>
      <point x="174" y="512"/>
      <point x="155" y="512" type="curve" smooth="yes"/>
      <point x="140" y="512"/>
      <point x="121" y="518"/>
      <point x="121" y="550" type="curve" smooth="yes"/>
      <point x="121" y="623"/>
      <point x="156" y="709"/>
      <point x="199" y="709" type="curve" smooth="yes"/>
      <point x="208" y="709"/>
      <point x="219" y="707"/>
      <point x="228" y="699" type="curve"/>
    </contour>
  </outline>
</glyph>
<glyph name="guillemotleft" format="1">
  <advance width="589"/>
  <unicode hex="00AB"/>
  <outline>
    <contour>
      <point x="336" y="429" type="line"/>
      <point x="29" y="279" type="line"/>
      <point x="20" y="238" type="line"/>
      <point x="267" y="101" type="line"/>
      <point x="279" y="158" type="line"/>
      <point x="85" y="254" type="line"/>
      <point x="326" y="374" type="line"/>
    </contour>
    <contour>
      <point x="546" y="429" type="line"/>
      <point x="239" y="279" type="line"/>
      <point x="230" y="238" type="line"/>
      <point x="477" y="101" type="line"/>
      <point x="489" y="158" type="line"/>
      <point x="295" y="254" type="line"/>
      <point x="536" y="374" type="line"/>
    </contour>
  </outline>
</glyph>
<glyph name="logicalnot" format="1">
  <advance width="444"/>
  <unicode hex="00AC"/>
  <outline>
    <contour>
      <point x="399" y="301" type="line"/>
      <point x="37" y="301" type="line"/>
      <point x="19" y="222" type="line"/>
      <point x="270" y="222" type="line"/>
      <point x="235" y="51" type="line"/>
      <point x="348" y="51" type="line"/>
    </contour>
  </outline>
</glyph>
<glyph name="registered" format="1">
  <advance width="553"/>
  <unicode hex="00AE"/>
  <outline>
    <contour>
      <point x="276" y="79" type="curve" smooth="yes"/>
      <point x="408" y="79"/>
      <point x="518" y="192"/>
      <point x="518" y="335" type="curve" smooth="yes"/>
      <point x="518" y="478"/>
      <point x="408" y="590"/>
      <point x="276" y="590" type="curve" smooth="yes"/>
      <point x="144" y="590"/>
      <point x="34" y="477"/>
      <point x="34" y="334" type="curve" smooth="yes"/>
      <point x="34" y="192"/>
      <point x="144" y="79"/>
    </contour>
    <contour>
      <point x="80" y="334" type="curve" smooth="yes"/>
      <point x="80" y="454"/>
      <point x="170" y="547"/>
      <point x="278" y="547" type="curve" smooth="yes"/>
      <point x="385" y="547"/>
      <point x="475" y="454"/>
      <point x="475" y="334" type="curve" smooth="yes"/>
      <point x="475" y="214"/>
      <point x="385" y="121"/>
      <point x="278" y="121" type="curve" smooth="yes"/>
      <point x="170" y="121"/>
      <point x="80" y="214"/>
    </contour>
    <contour>
      <point x="176" y="192" type="line"/>
      <point x="222" y="192" type="line"/>
      <point x="222" y="315" type="line"/>
      <point x="288" y="315" type="line"/>
      <point x="350" y="190" type="line"/>
      <point x="397" y="197" type="line"/>
      <point x="332" y="322" type="line"/>
      <point x="367" y="332"/>
      <point x="391" y="363"/>
      <point x="391" y="398" type="curve" smooth="yes"/>
      <point x="391" y="454"/>
      <point x="340" y="483"/>
      <point x="271" y="483" type="curve" smooth="yes"/>
      <point x="177" y="483" type="line"/>
    </contour>
    <contour>
      <point x="222" y="442" type="line"/>
      <point x="272" y="442" type="line" smooth="yes"/>
      <point x="305" y="442"/>
      <point x="345" y="432"/>
      <point x="345" y="397" type="curve" smooth="yes"/>
      <point x="345" y="360"/>
      <point x="303" y="353"/>
      <point x="274" y="353" type="curve" smooth="yes"/>
      <point x="222" y="353" type="line"/>
    </contour>
  </outline>
</glyph>
<glyph name="degree" format="1">
  <advance width="314"/>
  <unicode hex="00B0"/>
  <outline>
    <contour>
      <point x="199" y="702" type="curve" smooth="yes"/>
      <point x="99" y="702"/>
      <point x="37" y="606"/>
      <point x="37" y="488" type="curve" smooth="yes"/>
      <point x="37" y="416"/>
      <point x="55" y="374"/>
      <point x="133" y="374" type="curve" smooth="yes"/>
      <point x="229" y="374"/>
      <point x="281" y="504"/>
      <point x="281" y="589" type="curve" smooth="yes"/>
      <point x="281" y="662"/>
      <point x="257" y="702"/>
    </contour>
    <contour>
      <point x="111" y="519" type="curve" smooth="yes"/>
      <point x="119" y="616"/>
      <point x="168" y="667"/>
      <point x="196" y="667" type="curve" smooth="yes"/>
      <point x="217" y="667"/>
      <point x="221" y="639"/>
      <point x="221" y="604" type="curve" smooth="yes"/>
      <point x="221" y="503"/>
      <point x="189" y="411"/>
      <point x="136" y="411" type="curve" smooth="yes"/>
      <point x="114" y="411"/>
      <point x="109" y="444"/>
      <point x="109" y="476" type="curve" smooth="yes"/>
      <point x="109" y="492"/>
      <point x="110" y="507"/>
    </contour>
  </outline>
</glyph>
<glyph name="plusminus" format="1">
  <advance width="533"/>
  <unicode hex="00B1"/>
  <outline>
    <contour>
      <point x="375" y="543" type="line"/>
      <point x="262" y="543" type="line"/>
      <point x="235" y="421" type="line"/>
      <point x="107" y="421" type="line"/>
      <point x="83" y="309" type="line"/>
      <point x="211" y="309" type="line"/>
      <point x="184" y="186" type="line"/>
      <point x="297" y="186" type="line"/>
      <point x="324" y="309" type="line"/>
      <point x="452" y="309" type="line"/>
      <point x="475" y="421" type="line"/>
      <point x="348" y="421" type="line"/>
    </contour>
    <contour>
      <point x="416" y="147" type="line"/>
      <point x="49" y="147" type="line"/>
      <point x="31" y="68" type="line"/>
      <point x="399" y="68" type="line"/>
    </contour>
  </outline>
</glyph>
<glyph name="twosuperior" format="1">
  <advance width="300"/>
  <unicode hex="00B2"/>
  <outline>
    <contour>
      <point x="176" y="407" type="curve" smooth="yes"/>
      <point x="129" y="409"/>
      <point x="96" y="416"/>
      <point x="71" y="416" type="curve"/>
      <point x="119" y="489"/>
      <point x="278" y="542"/>
      <point x="278" y="663" type="curve" smooth="yes"/>
      <point x="278" y="715"/>
      <point x="247" y="749"/>
      <point x="168" y="749" type="curve" smooth="yes"/>
      <point x="80" y="749"/>
      <point x="48" y="707"/>
      <point x="48" y="670" type="curve" smooth="yes"/>
      <point x="48" y="638"/>
      <point x="66" y="621"/>
      <point x="89" y="621" type="curve" smooth="yes"/>
      <point x="103" y="621"/>
      <point x="119" y="627"/>
      <point x="134" y="640" type="curve"/>
      <point x="118" y="644"/>
      <point x="112" y="664"/>
      <point x="112" y="677" type="curve" smooth="yes"/>
      <point x="112" y="704"/>
      <point x="120" y="720"/>
      <point x="159" y="720" type="curve" smooth="yes"/>
      <point x="176" y="720"/>
      <point x="194" y="702"/>
      <point x="194" y="676" type="curve" smooth="yes"/>
      <point x="194" y="532"/>
      <point x="3" y="479"/>
      <point x="3" y="361" type="curve" smooth="yes"/>
      <point x="3" y="355"/>
      <point x="4" y="349"/>
      <point x="5" y="343" type="curve"/>
      <point x="16" y="347"/>
      <point x="37" y="359"/>
      <point x="51" y="359" type="curve" smooth="yes"/>
      <point x="110" y="359"/>
      <point x="131" y="339"/>
      <point x="194" y="339" type="curve" smooth="yes"/>
      <point x="262" y="339"/>
      <point x="263" y="375"/>
      <point x="263" y="444" type="curve"/>
      <point x="230" y="414"/>
      <point x="211" y="407"/>
    </contour>
  </outline>
</glyph>
<glyph name="acute" format="1">
  <advance width="201"/>
  <unicode hex="00B4"/>
  <outline>
    <contour>
      <point x="83" y="561" type="line"/>
      <point x="158" y="561" type="line"/>
      <point x="279" y="750" type="line"/>
      <point x="174" y="750" type="line"/>
    </contour>
  </outline>
</glyph>
<glyph name="paragraph" format="1">
  <advance width="542"/>
  <unicode hex="00B6"/>
  <outline>
    <contour>
      <point x="239" y="-81" type="line"/>
      <point x="316" y="288" type="line"/>
      <point x="330" y="291"/>
      <point x="344" y="294"/>
      <point x="359" y="299" type="curve"/>
      <point x="278" y="-81" type="line"/>
      <point x="372" y="-81" type="line"/>
      <point x="499" y="512" type="line" smooth="yes"/>
      <point x="504" y="538"/>
      <point x="507" y="562"/>
      <point x="507" y="584" type="curve" smooth="yes"/>
      <point x="507" y="705"/>
      <point x="422" y="749"/>
      <point x="322" y="749" type="curve" smooth="yes"/>
      <point x="157" y="749"/>
      <point x="72" y="616"/>
      <point x="72" y="492" type="curve" smooth="yes"/>
      <point x="72" y="397"/>
      <point x="121" y="308"/>
      <point x="222" y="288" type="curve"/>
      <point x="145" y="-81" type="line"/>
    </contour>
    <contour>
      <point x="327" y="339" type="line"/>
      <point x="399" y="682" type="line"/>
      <point x="413" y="669"/>
      <point x="422" y="650"/>
      <point x="422" y="619" type="curve" smooth="yes"/>
      <point x="422" y="605"/>
      <point x="420" y="589"/>
      <point x="416" y="570" type="curve" smooth="yes"/>
      <point x="368" y="343" type="line"/>
      <point x="357" y="340"/>
      <point x="345" y="339"/>
      <point x="333" y="339" type="curve" smooth="yes"/>
    </contour>
  </outline>
</glyph>
<glyph name="periodcentered" format="1">
  <advance width="434"/>
  <unicode hex="00B7"/>
  <outline>
    <contour>
      <point x="120" y="267" type="curve" smooth="yes"/>
      <point x="120" y="214"/>
      <point x="163" y="171"/>
      <point x="216" y="171" type="curve" smooth="yes"/>
      <point x="269" y="171"/>
      <point x="313" y="214"/>
      <point x="313" y="267" type="curve" smooth="yes"/>
      <point x="313" y="320"/>
      <point x="269" y="364"/>
      <point x="216" y="364" type="curve" smooth="yes"/>
      <point x="163" y="364"/>
      <point x="120" y="320"/>
    </contour>
  </outline>
</glyph>
<glyph name="cedilla" format="1">
  <advance width="833"/>
  <unicode hex="00B8"/>
  <outline>
    <contour>
      <point x="300" y="-108" type="curve" smooth="yes"/>
      <point x="300" y="-77"/>
      <point x="280" y="-58"/>
      <point x="238" y="-58" type="curve" smooth="yes"/>
      <point x="223" y="-58"/>
      <point x="205" y="-61"/>
      <point x="185" y="-66" type="curve"/>
      <point x="214" y="6" type="line"/>
      <point x="179" y="29" type="line"/>
      <point x="126" y="-119" type="line"/>
      <point x="137" y="-114"/>
      <point x="152" y="-107"/>
      <point x="178" y="-107" type="curve" smooth="yes"/>
      <point x="206" y="-107"/>
      <point x="217" y="-125"/>
      <point x="217" y="-143" type="curve" smooth="yes"/>
      <point x="217" y="-164"/>
      <point x="204" y="-185"/>
      <point x="187" y="-185" type="curve" smooth="yes"/>
      <point x="159" y="-185"/>
      <point x="154" y="-158"/>
      <point x="113" y="-158" type="curve" smooth="yes"/>
      <point x="94" y="-158"/>
      <point x="82" y="-174"/>
      <point x="73" y="-190" type="curve"/>
      <point x="102" y="-205"/>
      <point x="129" y="-218"/>
      <point x="180" y="-218" type="curve" smooth="yes"/>
      <point x="238" y="-218"/>
      <point x="300" y="-180"/>
    </contour>
  </outline>
</glyph>
<glyph name="onesuperior" format="1">
  <advance width="217"/>
  <unicode hex="00B9"/>
  <outline>
    <contour>
      <point x="198" y="749" type="line"/>
      <point x="128" y="710"/>
      <point x="83" y="707"/>
      <point x="51" y="707" type="curve"/>
      <point x="44" y="682" type="line"/>
      <point x="99" y="682" type="line"/>
      <point x="22" y="345" type="line"/>
      <point x="106" y="345" type="line"/>
    </contour>
  </outline>
</glyph>
<glyph name="guillemotright" format="1">
  <advance width="586"/>
  <unicode hex="00BB"/>
  <outline>
    <contour>
      <point x="75" y="374" type="line" name="hr00"/>
      <point x="269" y="254" type="line"/>
      <point x="29" y="158" type="line"/>
      <point x="15" y="101" type="line"/>
      <point x="319" y="225" type="line"/>
      <point x="330" y="279" type="line"/>
      <point x="84" y="429" type="line"/>
    </contour>
    <contour>
      <point x="297" y="374" type="line"/>
      <point x="491" y="254" type="line"/>
      <point x="251" y="158" type="line"/>
      <point x="237" y="101" type="line"/>
      <point x="541" y="225" type="line"/>
      <point x="552" y="279" type="line"/>
      <point x="306" y="429" type="line"/>
    </contour>
  </outline>
</glyph>
<glyph name="onequarter" format="1">
  <advance width="689"/>
  <unicode hex="00BC"/>
  <outline>
    <contour>
      <point x="475" y="750" type="line"/>
      <point x="403" y="750" type="line"/>
      <point x="139" y="-165" type="line"/>
      <point x="211" y="-165" type="line"/>
    </contour>
    <contour>
      <point x="515" y="150" type="line"/>
      <point x="481" y="1" type="line"/>
      <point x="564" y="1" type="line"/>
      <point x="598" y="150" type="line"/>
      <point x="633" y="150" type="line"/>
      <point x="645" y="189" type="line"/>
      <point x="607" y="189" type="line"/>
      <point x="657" y="406" type="line"/>
      <point x="571" y="395" type="line"/>
      <point x="524" y="189" type="line"/>
      <point x="434" y="189" type="line"/>
      <point x="463" y="240"/>
      <point x="519" y="286"/>
      <point x="519" y="355" type="curve" smooth="yes"/>
      <point x="519" y="389"/>
      <point x="488" y="406"/>
      <point x="454" y="406" type="curve"/>
      <point x="457" y="395"/>
      <point x="458" y="384"/>
      <point x="458" y="373" type="curve" smooth="yes"/>
      <point x="458" y="294"/>
      <point x="394" y="209"/>
      <point x="374" y="150" type="curve"/>
    </contour>
    <contour>
      <point x="246" y="629" type="line"/>
      <point x="176" y="590"/>
      <point x="131" y="587"/>
      <point x="99" y="587" type="curve"/>
      <point x="92" y="562" type="line"/>
      <point x="147" y="562" type="line"/>
      <point x="70" y="225" type="line"/>
      <point x="154" y="225" type="line"/>
    </contour>
  </outline>
</glyph>
<glyph name="onehalf" format="1">
  <advance width="675"/>
  <unicode hex="00BD"/>
  <outline>
    <contour>
      <point x="470" y="750" type="line"/>
      <point x="398" y="750" type="line"/>
      <point x="134" y="-165" type="line"/>
      <point x="206" y="-165" type="line"/>
    </contour>
    <contour>
      <point x="539" y="67" type="curve" smooth="yes"/>
      <point x="492" y="69"/>
      <point x="459" y="76"/>
      <point x="434" y="76" type="curve"/>
      <point x="482" y="149"/>
      <point x="641" y="202"/>
      <point x="641" y="323" type="curve" smooth="yes"/>
      <point x="641" y="375"/>
      <point x="610" y="409"/>
      <point x="531" y="409" type="curve" smooth="yes"/>
      <point x="443" y="409"/>
      <point x="411" y="367"/>
      <point x="411" y="330" type="curve" smooth="yes"/>
      <point x="411" y="298"/>
      <point x="429" y="281"/>
      <point x="452" y="281" type="curve" smooth="yes"/>
      <point x="466" y="281"/>
      <point x="482" y="287"/>
      <point x="497" y="300" type="curve"/>
      <point x="481" y="304"/>
      <point x="475" y="324"/>
      <point x="475" y="337" type="curve" smooth="yes"/>
      <point x="475" y="364"/>
      <point x="483" y="380"/>
      <point x="522" y="380" type="curve" smooth="yes"/>
      <point x="539" y="380"/>
      <point x="557" y="362"/>
      <point x="557" y="336" type="curve" smooth="yes"/>
      <point x="557" y="192"/>
      <point x="366" y="139"/>
      <point x="366" y="21" type="curve" smooth="yes"/>
      <point x="366" y="15"/>
      <point x="367" y="9"/>
      <point x="368" y="3" type="curve"/>
      <point x="379" y="7"/>
      <point x="400" y="19"/>
      <point x="414" y="19" type="curve" smooth="yes"/>
      <point x="473" y="19"/>
      <point x="494" y="-1"/>
      <point x="557" y="-1" type="curve" smooth="yes"/>
      <point x="625" y="-1"/>
      <point x="626" y="35"/>
      <point x="626" y="104" type="curve"/>
      <point x="593" y="74"/>
      <point x="574" y="67"/>
    </contour>
    <contour>
      <point x="246" y="629" type="line"/>
      <point x="176" y="590"/>
      <point x="131" y="587"/>
      <point x="99" y="587" type="curve"/>
      <point x="92" y="562" type="line"/>
      <point x="147" y="562" type="line"/>
      <point x="70" y="225" type="line"/>
      <point x="154" y="225" type="line"/>
    </contour>
  </outline>
</glyph>
<glyph name="threequarters" format="1">
  <advance width="819"/>
  <unicode hex="00BE"/>
  <outline>
    <contour>
      <point x="591" y="750" type="line"/>
      <point x="519" y="750" type="line"/>
      <point x="255" y="-165" type="line"/>
      <point x="327" y="-165" type="line"/>
    </contour>
    <contour>
      <point x="177" y="364" type="curve"/>
      <point x="172" y="383"/>
      <point x="156" y="391"/>
      <point x="130" y="391" type="curve" smooth="yes"/>
      <point x="85" y="391"/>
      <point x="61" y="360"/>
      <point x="61" y="309" type="curve" smooth="yes"/>
      <point x="61" y="231"/>
      <point x="143" y="222"/>
      <point x="190" y="222" type="curve" smooth="yes"/>
      <point x="276" y="222"/>
      <point x="339" y="297"/>
      <point x="339" y="362" type="curve" smooth="yes"/>
      <point x="339" y="401"/>
      <point x="318" y="435"/>
      <point x="267" y="450" type="curve"/>
      <point x="321" y="475"/>
      <point x="346" y="514"/>
      <point x="346" y="550" type="curve" smooth="yes"/>
      <point x="346" y="592"/>
      <point x="311" y="629"/>
      <point x="244" y="629" type="curve" smooth="yes"/>
      <point x="157" y="629"/>
      <point x="119" y="587"/>
      <point x="119" y="550" type="curve" smooth="yes"/>
      <point x="119" y="518"/>
      <point x="137" y="501"/>
      <point x="160" y="501" type="curve" smooth="yes"/>
      <point x="174" y="501"/>
      <point x="190" y="507"/>
      <point x="205" y="520" type="curve"/>
      <point x="189" y="524"/>
      <point x="183" y="544"/>
      <point x="183" y="557" type="curve" smooth="yes"/>
      <point x="183" y="584"/>
      <point x="197" y="600"/>
      <point x="235" y="600" type="curve" smooth="yes"/>
      <point x="259" y="600"/>
      <point x="272" y="582"/>
      <point x="272" y="558" type="curve" smooth="yes"/>
      <point x="272" y="520"/>
      <point x="240" y="467"/>
      <point x="173" y="451" type="curve"/>
      <point x="226" y="434"/>
      <point x="248" y="391"/>
      <point x="248" y="350" type="curve" smooth="yes"/>
      <point x="248" y="302"/>
      <point x="219" y="256"/>
      <point x="177" y="256" type="curve" smooth="yes"/>
      <point x="147" y="256"/>
      <point x="126" y="264"/>
      <point x="126" y="300" type="curve" smooth="yes"/>
      <point x="126" y="327"/>
      <point x="130" y="360"/>
    </contour>
    <contour>
      <point x="634" y="150" type="line"/>
      <point x="600" y="1" type="line"/>
      <point x="683" y="1" type="line"/>
      <point x="717" y="150" type="line"/>
      <point x="752" y="150" type="line"/>
      <point x="764" y="189" type="line"/>
      <point x="726" y="189" type="line"/>
      <point x="776" y="406" type="line"/>
      <point x="690" y="395" type="line"/>
      <point x="643" y="189" type="line"/>
      <point x="553" y="189" type="line"/>
      <point x="582" y="240"/>
      <point x="638" y="286"/>
      <point x="638" y="355" type="curve" smooth="yes"/>
      <point x="638" y="389"/>
      <point x="607" y="406"/>
      <point x="573" y="406" type="curve"/>
      <point x="576" y="395"/>
      <point x="577" y="384"/>
      <point x="577" y="373" type="curve" smooth="yes"/>
      <point x="577" y="294"/>
      <point x="513" y="209"/>
      <point x="493" y="150" type="curve"/>
    </contour>
  </outline>
</glyph>
<glyph name="questiondown" format="1">
  <advance width="439"/>
  <unicode hex="00BF"/>
  <outline>
    <contour>
      <point x="12" y="-128" type="curve" smooth="yes"/>
      <point x="12" y="-190"/>
      <point x="46" y="-247"/>
      <point x="173" y="-247" type="curve" smooth="yes"/>
      <point x="324" y="-247"/>
      <point x="383" y="-154"/>
      <point x="383" y="-86" type="curve" smooth="yes"/>
      <point x="383" y="-30"/>
      <point x="346" y="-2"/>
      <point x="307" y="-2" type="curve" smooth="yes"/>
      <point x="279" y="-2"/>
      <point x="251" y="-16"/>
      <point x="234" y="-44" type="curve"/>
      <point x="262" y="-52"/>
      <point x="272" y="-87"/>
      <point x="272" y="-110" type="curve" smooth="yes"/>
      <point x="272" y="-160"/>
      <point x="230" y="-193"/>
      <point x="192" y="-193" type="curve" smooth="yes"/>
      <point x="163" y="-193"/>
      <point x="137" y="-173"/>
      <point x="137" y="-124" type="curve" smooth="yes"/>
      <point x="137" y="28"/>
      <point x="319" y="80"/>
      <point x="319" y="221" type="curve"/>
      <point x="253" y="221" type="line"/>
      <point x="189" y="69"/>
      <point x="12" y="58"/>
    </contour>
    <contour>
      <point x="231" y="372" type="curve" smooth="yes"/>
      <point x="231" y="328"/>
      <point x="266" y="293"/>
      <point x="310" y="293" type="curve" smooth="yes"/>
      <point x="354" y="293"/>
      <point x="390" y="328"/>
      <point x="390" y="372" type="curve" smooth="yes"/>
      <point x="390" y="417"/>
      <point x="354" y="453"/>
      <point x="310" y="453" type="curve" smooth="yes"/>
      <point x="266" y="453"/>
      <point x="231" y="417"/>
    </contour>
  </outline>
</glyph>
<glyph name="Acircumflex" format="1">
  <advance width="668"/>
  <unicode hex="00C2"/>
  <outline>
    <contour>
      <point x="535" y="0" type="line"/>
      <point x="692" y="736" type="line"/>
      <point x="668" y="746"/>
      <point x="636" y="751"/>
      <point x="612" y="751" type="curve" smooth="yes"/>
      <point x="494" y="751"/>
      <point x="364" y="614"/>
      <point x="263" y="452" type="curve"/>
      <point x="241" y="454"/>
      <point x="221" y="455"/>
      <point x="204" y="455" type="curve" smooth="yes"/>
      <point x="101" y="455"/>
      <point x="9" y="401"/>
      <point x="9" y="340" type="curve" smooth="yes"/>
      <point x="9" y="295"/>
      <point x="37" y="277"/>
      <point x="66" y="277" type="curve" smooth="yes"/>
      <point x="109" y="277"/>
      <point x="127" y="295"/>
      <point x="127" y="316" type="curve" smooth="yes"/>
      <point x="127" y="330"/>
      <point x="119" y="347"/>
      <point x="114" y="347" type="curve"/>
      <point x="128" y="383"/>
      <point x="171" y="395"/>
      <point x="231" y="399" type="curve"/>
      <point x="143" y="247"/>
      <point x="84" y="84"/>
      <point x="84" y="-1" type="curve" smooth="yes"/>
      <point x="84" y="-107"/>
      <point x="149" y="-109"/>
      <point x="218" y="-113" type="curve"/>
      <point x="217" y="-104"/>
      <point x="204" y="-108"/>
      <point x="204" y="-57" type="curve" smooth="yes"/>
      <point x="204" y="47"/>
      <point x="258" y="237"/>
      <point x="333" y="399" type="curve"/>
      <point x="376" y="396"/>
      <point x="417" y="385"/>
      <point x="468" y="363" type="curve"/>
      <point x="391" y="0" type="line"/>
    </contour>
    <contour>
      <point x="477" y="407" type="line"/>
      <point x="438" y="422"/>
      <point x="395" y="433"/>
      <point x="353" y="441" type="curve"/>
      <point x="409" y="553"/>
      <point x="474" y="646"/>
      <point x="535" y="679" type="curve"/>
    </contour>
    <contour>
      <point x="710" y="811" type="line"/>
      <point x="650" y="1000" type="line"/>
      <point x="629" y="1000" type="line"/>
      <point x="417" y="811" type="line"/>
      <point x="461" y="811" type="line"/>
      <point x="618" y="891" type="line"/>
      <point x="678" y="811" type="line"/>
    </contour>
  </outline>
</glyph>
<glyph name="Aring" format="1">
  <advance width="668"/>
  <unicode hex="00C5"/>
  <outline>
    <contour>
      <point x="535" y="0" type="line"/>
      <point x="692" y="736" type="line"/>
      <point x="668" y="746"/>
      <point x="636" y="751"/>
      <point x="612" y="751" type="curve" smooth="yes"/>
      <point x="494" y="751"/>
      <point x="364" y="614"/>
      <point x="263" y="452" type="curve"/>
      <point x="241" y="454"/>
      <point x="221" y="455"/>
      <point x="204" y="455" type="curve" smooth="yes"/>
      <point x="101" y="455"/>
      <point x="9" y="401"/>
      <point x="9" y="340" type="curve" smooth="yes"/>
      <point x="9" y="295"/>
      <point x="37" y="277"/>
      <point x="66" y="277" type="curve" smooth="yes"/>
      <point x="109" y="277"/>
      <point x="127" y="295"/>
      <point x="127" y="316" type="curve" smooth="yes"/>
      <point x="127" y="330"/>
      <point x="119" y="347"/>
      <point x="114" y="347" type="curve"/>
      <point x="128" y="383"/>
      <point x="171" y="395"/>
      <point x="231" y="399" type="curve"/>
      <point x="143" y="247"/>
      <point x="84" y="84"/>
      <point x="84" y="-1" type="curve" smooth="yes"/>
      <point x="84" y="-107"/>
      <point x="149" y="-109"/>
      <point x="218" y="-113" type="curve"/>
      <point x="217" y="-104"/>
      <point x="204" y="-108"/>
      <point x="204" y="-57" type="curve" smooth="yes"/>
      <point x="204" y="47"/>
      <point x="258" y="237"/>
      <point x="333" y="399" type="curve"/>
      <point x="376" y="396"/>
      <point x="417" y="385"/>
      <point x="468" y="363" type="curve"/>
      <point x="391" y="0" type="line"/>
    </contour>
    <contour>
      <point x="477" y="407" type="line"/>
      <point x="438" y="422"/>
      <point x="395" y="433"/>
      <point x="353" y="441" type="curve"/>
      <point x="409" y="553"/>
      <point x="474" y="646"/>
      <point x="535" y="679" type="curve"/>
    </contour>
    <contour>
      <point x="621" y="963" type="curve" smooth="yes"/>
      <point x="561" y="963"/>
      <point x="536" y="908"/>
      <point x="536" y="872" type="curve" smooth="yes"/>
      <point x="536" y="834"/>
      <point x="563" y="802"/>
      <point x="606" y="802" type="curve" smooth="yes"/>
      <point x="668" y="802"/>
      <point x="693" y="842"/>
      <point x="693" y="886" type="curve" smooth="yes"/>
      <point x="693" y="929"/>
      <point x="670" y="963"/>
    </contour>
    <contour>
      <point x="656" y="883" type="curve" smooth="yes"/>
      <point x="656" y="855"/>
      <point x="641" y="837"/>
      <point x="610" y="837" type="curve" smooth="yes"/>
      <point x="586" y="837"/>
      <point x="576" y="852"/>
      <point x="576" y="874" type="curve" smooth="yes"/>
      <point x="576" y="899"/>
      <point x="588" y="930"/>
      <point x="623" y="930" type="curve" smooth="yes"/>
      <point x="655" y="930"/>
      <point x="656" y="902"/>
    </contour>
  </outline>
</glyph>
<glyph name="AE" format="1">
  <advance width="764"/>
  <unicode hex="00C6"/>
  <outline>
    <contour>
      <point x="760" y="0" type="line"/>
      <point x="781" y="106" type="line"/>
      <point x="557" y="106" type="line"/>
      <point x="608" y="345" type="line"/>
      <point x="759" y="345" type="line"/>
      <point x="779" y="419" type="line"/>
      <point x="624" y="419" type="line"/>
      <point x="678" y="672" type="line"/>
      <point x="716" y="657"/>
      <point x="752" y="640"/>
      <point x="802" y="640" type="curve" smooth="yes"/>
      <point x="885" y="640"/>
      <point x="895" y="707"/>
      <point x="909" y="750" type="curve"/>
      <point x="865" y="736"/>
      <point x="827" y="731"/>
      <point x="792" y="731" type="curve" smooth="yes"/>
      <point x="722" y="731"/>
      <point x="667" y="751"/>
      <point x="612" y="751" type="curve" smooth="yes" name="hr01"/>
      <point x="494" y="751"/>
      <point x="364" y="614"/>
      <point x="263" y="452" type="curve"/>
      <point x="241" y="454"/>
      <point x="221" y="455"/>
      <point x="204" y="455" type="curve" smooth="yes"/>
      <point x="101" y="455"/>
      <point x="9" y="401"/>
      <point x="9" y="340" type="curve" smooth="yes" name="hr02"/>
      <point x="9" y="295"/>
      <point x="37" y="277"/>
      <point x="66" y="277" type="curve" smooth="yes"/>
      <point x="109" y="277"/>
      <point x="127" y="295"/>
      <point x="127" y="316" type="curve" smooth="yes"/>
      <point x="127" y="330"/>
      <point x="119" y="347"/>
      <point x="114" y="347" type="curve"/>
      <point x="128" y="383"/>
      <point x="171" y="395"/>
      <point x="231" y="399" type="curve" name="hr03"/>
      <point x="143" y="247"/>
      <point x="84" y="84"/>
      <point x="84" y="-1" type="curve" smooth="yes"/>
      <point x="84" y="-107"/>
      <point x="149" y="-109"/>
      <point x="218" y="-113" type="curve"/>
      <point x="217" y="-104"/>
      <point x="204" y="-108"/>
      <point x="204" y="-57" type="curve" smooth="yes"/>
      <point x="204" y="47"/>
      <point x="258" y="237"/>
      <point x="333" y="399" type="curve"/>
      <point x="376" y="396"/>
      <point x="417" y="385"/>
      <point x="468" y="363" type="curve"/>
      <point x="391" y="0" type="line"/>
    </contour>
    <contour>
      <point x="477" y="407" type="line"/>
      <point x="438" y="422"/>
      <point x="395" y="433"/>
      <point x="353" y="441" type="curve"/>
      <point x="409" y="553"/>
      <point x="474" y="646"/>
      <point x="535" y="679" type="curve"/>
    </contour>
  </outline>
</glyph>
<glyph name="Ccedilla" format="1">
  <advance width="497"/>
  <unicode hex="00C7"/>
  <outline>
    <contour>
      <point x="362" y="-108" type="curve" smooth="yes"/>
      <point x="362" y="-77"/>
      <point x="342" y="-58"/>
      <point x="300" y="-58" type="curve" smooth="yes"/>
      <point x="285" y="-58"/>
      <point x="267" y="-61"/>
      <point x="247" y="-66" type="curve"/>
      <point x="271" y="-5" type="line"/>
      <point x="362" y="1"/>
      <point x="475" y="38"/>
      <point x="523" y="170" type="curve"/>
      <point x="500" y="180" type="line"/>
      <point x="463" y="116"/>
      <point x="390" y="84"/>
      <point x="313" y="84" type="curve" smooth="yes"/>
      <point x="205" y="84"/>
      <point x="181" y="140"/>
      <point x="181" y="271" type="curve" smooth="yes"/>
      <point x="181" y="449"/>
      <point x="260" y="703"/>
      <point x="383" y="703" type="curve" smooth="yes"/>
      <point x="447" y="703"/>
      <point x="452" y="648"/>
      <point x="452" y="632" type="curve" smooth="yes"/>
      <point x="452" y="607"/>
      <point x="433" y="557"/>
      <point x="408" y="550" type="curve"/>
      <point x="427" y="528"/>
      <point x="449" y="524"/>
      <point x="465" y="524" type="curve" smooth="yes"/>
      <point x="516" y="524"/>
      <point x="535" y="563"/>
      <point x="535" y="616" type="curve" smooth="yes"/>
      <point x="535" y="713"/>
      <point x="454" y="750"/>
      <point x="361" y="750" type="curve" smooth="yes"/>
      <point x="95" y="750"/>
      <point x="24" y="467"/>
      <point x="24" y="249" type="curve" smooth="yes"/>
      <point x="24" y="53"/>
      <point x="130" y="-1"/>
      <point x="228" y="-5" type="curve"/>
      <point x="188" y="-119" type="line"/>
      <point x="199" y="-114"/>
      <point x="214" y="-107"/>
      <point x="240" y="-107" type="curve" smooth="yes"/>
      <point x="268" y="-107"/>
      <point x="279" y="-125"/>
      <point x="279" y="-143" type="curve" smooth="yes"/>
      <point x="279" y="-164"/>
      <point x="266" y="-185"/>
      <point x="249" y="-185" type="curve" smooth="yes"/>
      <point x="221" y="-185"/>
      <point x="216" y="-158"/>
      <point x="175" y="-158" type="curve" smooth="yes"/>
      <point x="156" y="-158"/>
      <point x="144" y="-174"/>
      <point x="135" y="-190" type="curve"/>
      <point x="164" y="-205"/>
      <point x="191" y="-218"/>
      <point x="242" y="-218" type="curve" smooth="yes"/>
      <point x="300" y="-218"/>
      <point x="362" y="-180"/>
    </contour>
  </outline>
</glyph>
<glyph name="Egrave" format="1">
  <advance width="459"/>
  <unicode hex="00C8"/>
  <outline>
    <contour>
      <point x="461" y="180" type="line"/>
      <point x="425" y="114"/>
      <point x="337" y="78"/>
      <point x="276" y="78" type="curve" smooth="yes"/>
      <point x="208" y="78"/>
      <point x="181" y="123"/>
      <point x="181" y="179" type="curve" smooth="yes"/>
      <point x="181" y="271"/>
      <point x="253" y="394"/>
      <point x="360" y="418" type="curve"/>
      <point x="288" y="437"/>
      <point x="259" y="494"/>
      <point x="259" y="552" type="curve" smooth="yes" name="hr01"/>
      <point x="259" y="622"/>
      <point x="302" y="693"/>
      <point x="361" y="693" type="curve" smooth="yes"/>
      <point x="388" y="693"/>
      <point x="416" y="678"/>
      <point x="416" y="637" type="curve" smooth="yes"/>
      <point x="416" y="603"/>
      <point x="397" y="558"/>
      <point x="372" y="550" type="curve"/>
      <point x="386" y="531"/>
      <point x="402" y="523"/>
      <point x="419" y="523" type="curve" smooth="yes" name="hr02"/>
      <point x="459" y="523"/>
      <point x="493" y="567"/>
      <point x="493" y="627" type="curve" smooth="yes"/>
      <point x="493" y="709"/>
      <point x="429" y="752"/>
      <point x="350" y="752" type="curve" smooth="yes"/>
      <point x="222" y="752"/>
      <point x="131" y="640"/>
      <point x="131" y="537" type="curve" smooth="yes"/>
      <point x="131" y="492"/>
      <point x="149" y="448"/>
      <point x="192" y="417" type="curve"/>
      <point x="77" y="389"/>
      <point x="7" y="263"/>
      <point x="7" y="158" type="curve" smooth="yes" name="hr03"/>
      <point x="7" y="64"/>
      <point x="63" y="-18"/>
      <point x="191" y="-18" type="curve" smooth="yes"/>
      <point x="310" y="-18"/>
      <point x="432" y="52"/>
      <point x="484" y="170" type="curve"/>
    </contour>
    <contour>
      <point x="311" y="811" type="line"/>
      <point x="386" y="811" type="line"/>
      <point x="357" y="1000" type="line"/>
      <point x="252" y="1000" type="line"/>
    </contour>
  </outline>
</glyph>
<glyph name="Eacute" format="1">
  <advance width="459"/>
  <unicode hex="00C9"/>
  <outline>
    <contour>
      <point x="461" y="180" type="line"/>
      <point x="425" y="114"/>
      <point x="337" y="78"/>
      <point x="276" y="78" type="curve" smooth="yes"/>
      <point x="208" y="78"/>
      <point x="181" y="123"/>
      <point x="181" y="179" type="curve" smooth="yes"/>
      <point x="181" y="271"/>
      <point x="253" y="394"/>
      <point x="360" y="418" type="curve"/>
      <point x="288" y="437"/>
      <point x="259" y="494"/>
      <point x="259" y="552" type="curve" smooth="yes" name="hr01"/>
      <point x="259" y="622"/>
      <point x="302" y="693"/>
      <point x="361" y="693" type="curve" smooth="yes"/>
      <point x="388" y="693"/>
      <point x="416" y="678"/>
      <point x="416" y="637" type="curve" smooth="yes"/>
      <point x="416" y="603"/>
      <point x="397" y="558"/>
      <point x="372" y="550" type="curve"/>
      <point x="386" y="531"/>
      <point x="402" y="523"/>
      <point x="419" y="523" type="curve" smooth="yes" name="hr02"/>
      <point x="459" y="523"/>
      <point x="493" y="567"/>
      <point x="493" y="627" type="curve" smooth="yes"/>
      <point x="493" y="709"/>
      <point x="429" y="752"/>
      <point x="350" y="752" type="curve" smooth="yes"/>
      <point x="222" y="752"/>
      <point x="131" y="640"/>
      <point x="131" y="537" type="curve" smooth="yes"/>
      <point x="131" y="492"/>
      <point x="149" y="448"/>
      <point x="192" y="417" type="curve"/>
      <point x="77" y="389"/>
      <point x="7" y="263"/>
      <point x="7" y="158" type="curve" smooth="yes" name="hr03"/>
      <point x="7" y="64"/>
      <point x="63" y="-18"/>
      <point x="191" y="-18" type="curve" smooth="yes"/>
      <point x="310" y="-18"/>
      <point x="432" y="52"/>
      <point x="484" y="170" type="curve"/>
    </contour>
    <contour>
      <point x="330" y="811" type="line"/>
      <point x="405" y="811" type="line"/>
      <point x="526" y="1000" type="line"/>
      <point x="421" y="1000" type="line"/>
    </contour>
  </outline>
</glyph>
<glyph name="Edieresis" format="1">
  <advance width="459"/>
  <unicode hex="00CB"/>
  <outline>
    <contour>
      <point x="461" y="180" type="line"/>
      <point x="424" y="116"/>
      <point x="380" y="84"/>
      <point x="303" y="84" type="curve" smooth="yes"/>
      <point x="239" y="84"/>
      <point x="186" y="144"/>
      <point x="186" y="217" type="curve" smooth="yes"/>
      <point x="186" y="286"/>
      <point x="233" y="366"/>
      <point x="360" y="418" type="curve"/>
      <point x="266" y="460"/>
      <point x="228" y="525"/>
      <point x="228" y="583" type="curve" smooth="yes"/>
      <point x="228" y="650"/>
      <point x="277" y="706"/>
      <point x="350" y="706" type="curve" smooth="yes"/>
      <point x="414" y="706"/>
      <point x="416" y="648"/>
      <point x="416" y="632" type="curve" smooth="yes"/>
      <point x="416" y="607"/>
      <point x="397" y="557"/>
      <point x="372" y="550" type="curve"/>
      <point x="391" y="528"/>
      <point x="413" y="524"/>
      <point x="429" y="524" type="curve" smooth="yes"/>
      <point x="480" y="524"/>
      <point x="499" y="563"/>
      <point x="499" y="616" type="curve" smooth="yes"/>
      <point x="499" y="713"/>
      <point x="408" y="750"/>
      <point x="315" y="750" type="curve" smooth="yes"/>
      <point x="173" y="750"/>
      <point x="93" y="660"/>
      <point x="93" y="569" type="curve" smooth="yes"/>
      <point x="93" y="512"/>
      <point x="124" y="454"/>
      <point x="192" y="417" type="curve"/>
      <point x="71" y="392"/>
      <point x="11" y="292"/>
      <point x="11" y="196" type="curve" smooth="yes"/>
      <point x="11" y="93"/>
      <point x="80" y="-6"/>
      <point x="218" y="-6" type="curve" smooth="yes"/>
      <point x="312" y="-6"/>
      <point x="431" y="24"/>
      <point x="484" y="170" type="curve"/>
    </contour>
    <contour>
      <point x="188" y="884" type="curve" smooth="yes"/>
      <point x="188" y="850"/>
      <point x="215" y="823"/>
      <point x="249" y="823" type="curve" smooth="yes"/>
      <point x="282" y="823"/>
      <point x="310" y="850"/>
      <point x="310" y="884" type="curve" smooth="yes"/>
      <point x="310" y="917"/>
      <point x="282" y="945"/>
      <point x="249" y="945" type="curve" smooth="yes"/>
      <point x="215" y="945"/>
      <point x="188" y="917"/>
    </contour>
    <contour>
      <point x="368" y="884" type="curve" smooth="yes"/>
      <point x="368" y="850"/>
      <point x="395" y="823"/>
      <point x="429" y="823" type="curve" smooth="yes"/>
      <point x="462" y="823"/>
      <point x="490" y="850"/>
      <point x="490" y="884" type="curve" smooth="yes"/>
      <point x="490" y="917"/>
      <point x="462" y="945"/>
      <point x="429" y="945" type="curve" smooth="yes"/>
      <point x="395" y="945"/>
      <point x="368" y="917"/>
    </contour>
  </outline>
</glyph>
<glyph name="Iacute" format="1">
  <advance width="375"/>
  <unicode hex="00CD"/>
  <outline>
    <contour>
      <point x="397" y="748" type="line" name="hr00"/>
      <point x="384" y="749"/>
      <point x="371" y="750"/>
      <point x="357" y="750" type="curve" smooth="yes"/>
      <point x="190" y="750"/>
      <point x="6" y="623"/>
      <point x="6" y="490" type="curve" smooth="yes"/>
      <point x="6" y="418"/>
      <point x="44" y="393"/>
      <point x="113" y="393" type="curve"/>
      <point x="112" y="402"/>
      <point x="99" y="410"/>
      <point x="99" y="461" type="curve" smooth="yes"/>
      <point x="99" y="568"/>
      <point x="152" y="643"/>
      <point x="239" y="679" type="curve"/>
      <point x="94" y="0" type="line"/>
      <point x="238" y="0" type="line"/>
    </contour>
    <contour>
      <point x="269" y="811" type="line"/>
      <point x="344" y="811" type="line"/>
      <point x="465" y="1000" type="line"/>
      <point x="360" y="1000" type="line"/>
    </contour>
  </outline>
</glyph>
<glyph name="Icircumflex" format="1">
  <advance width="375"/>
  <unicode hex="00CE"/>
  <outline>
    <contour>
      <point x="397" y="748" type="line"/>
      <point x="384" y="749"/>
      <point x="371" y="750"/>
      <point x="357" y="750" type="curve" smooth="yes"/>
      <point x="190" y="750"/>
      <point x="6" y="623"/>
      <point x="6" y="490" type="curve" smooth="yes"/>
      <point x="6" y="418"/>
      <point x="44" y="393"/>
      <point x="113" y="393" type="curve"/>
      <point x="112" y="402"/>
      <point x="99" y="410"/>
      <point x="99" y="461" type="curve" smooth="yes"/>
      <point x="99" y="568"/>
      <point x="152" y="643"/>
      <point x="239" y="679" type="curve"/>
      <point x="94" y="0" type="line"/>
      <point x="238" y="0" type="line"/>
    </contour>
    <contour>
      <point x="444" y="811" type="line"/>
      <point x="384" y="1000" type="line"/>
      <point x="363" y="1000" type="line"/>
      <point x="151" y="811" type="line"/>
      <point x="195" y="811" type="line"/>
      <point x="352" y="891" type="line"/>
      <point x="412" y="811" type="line"/>
    </contour>
  </outline>
</glyph>
<glyph name="Ntilde" format="1">
  <advance width="686"/>
  <unicode hex="00D1"/>
  <outline>
    <contour>
      <point x="570" y="748" type="line"/>
      <point x="461" y="206" type="line"/>
      <point x="382" y="736" type="line"/>
      <point x="353" y="750"/>
      <point x="319" y="750"/>
      <point x="289" y="750" type="curve" smooth="yes"/>
      <point x="117" y="750"/>
      <point x="6" y="604"/>
      <point x="6" y="490" type="curve" smooth="yes"/>
      <point x="6" y="418"/>
      <point x="44" y="393"/>
      <point x="113" y="393" type="curve"/>
      <point x="112" y="402"/>
      <point x="99" y="410"/>
      <point x="99" y="461" type="curve" smooth="yes"/>
      <point x="99" y="567"/>
      <point x="151" y="643"/>
      <point x="238" y="679" type="curve"/>
      <point x="94" y="0" type="line"/>
      <point x="238" y="0" type="line"/>
      <point x="349" y="523" type="line"/>
      <point x="434" y="0" type="line"/>
      <point x="555" y="0" type="line"/>
      <point x="714" y="748" type="line"/>
    </contour>
    <contour>
      <point x="703" y="920" type="line"/>
      <point x="689" y="905"/>
      <point x="665" y="897"/>
      <point x="640" y="897" type="curve" smooth="yes"/>
      <point x="582" y="897"/>
      <point x="548" y="930"/>
      <point x="475" y="930" type="curve" smooth="yes" name="hr01"/>
      <point x="399" y="930"/>
      <point x="340" y="896"/>
      <point x="308" y="832" type="curve"/>
      <point x="314" y="830" type="line"/>
      <point x="332" y="847"/>
      <point x="354" y="856"/>
      <point x="380" y="856" type="curve" smooth="yes"/>
      <point x="435" y="856"/>
      <point x="482" y="819"/>
      <point x="548" y="819" type="curve" smooth="yes" name="hr02"/>
      <point x="624" y="819"/>
      <point x="698" y="872"/>
      <point x="709" y="919" type="curve"/>
    </contour>
  </outline>
</glyph>
<glyph name="Ograve" format="1">
  <advance width="658"/>
  <unicode hex="00D2"/>
  <outline>
    <contour>
      <point x="431" y="656" type="curve" name="hr00"/>
      <point x="413" y="662"/>
      <point x="396" y="664"/>
      <point x="379" y="664" type="curve" smooth="yes"/>
      <point x="199" y="664"/>
      <point x="108" y="357"/>
      <point x="108" y="195" type="curve" smooth="yes"/>
      <point x="108" y="49"/>
      <point x="182" y="-6"/>
      <point x="287" y="-6" type="curve" smooth="yes"/>
      <point x="549" y="-6"/>
      <point x="656" y="301"/>
      <point x="656" y="494" type="curve" smooth="yes"/>
      <point x="656" y="643"/>
      <point x="594" y="750"/>
      <point x="419" y="750" type="curve" smooth="yes"/>
      <point x="208" y="750"/>
      <point x="16" y="617"/>
      <point x="16" y="477" type="curve" smooth="yes"/>
      <point x="16" y="416"/>
      <point x="54" y="393"/>
      <point x="117" y="393" type="curve"/>
      <point x="117" y="401"/>
      <point x="107" y="408"/>
      <point x="107" y="447" type="curve" smooth="yes"/>
      <point x="107" y="606"/>
      <point x="242" y="704"/>
      <point x="395" y="704" type="curve" smooth="yes"/>
      <point x="500" y="704"/>
      <point x="523" y="645"/>
      <point x="523" y="529" type="curve" smooth="yes"/>
      <point x="523" y="327"/>
      <point x="415" y="75"/>
      <point x="314" y="75" type="curve" smooth="yes"/>
      <point x="273" y="75"/>
      <point x="256" y="123"/>
      <point x="256" y="191" type="curve" smooth="yes"/>
      <point x="256" y="345"/>
      <point x="340" y="601"/>
    </contour>
    <contour>
      <point x="351" y="811" type="line"/>
      <point x="426" y="811" type="line"/>
      <point x="397" y="1000" type="line"/>
      <point x="292" y="1000" type="line"/>
    </contour>
  </outline>
</glyph>
<glyph name="Oacute" format="1">
  <advance width="658"/>
  <unicode hex="00D3"/>
  <outline>
    <contour>
      <point x="388" y="656" type="curve"/>
      <point x="371" y="661"/>
      <point x="356" y="664"/>
      <point x="341" y="664" type="curve" smooth="yes"/>
      <point x="193" y="664"/>
      <point x="127" y="404"/>
      <point x="127" y="217" type="curve" smooth="yes"/>
      <point x="127" y="51"/>
      <point x="204" y="-9"/>
      <point x="332" y="-9" type="curve" smooth="yes"/>
      <point x="511" y="-9"/>
      <point x="631" y="284"/>
      <point x="631" y="479" type="curve" smooth="yes"/>
      <point x="631" y="653"/>
      <point x="555" y="750"/>
      <point x="357" y="750" type="curve" smooth="yes"/>
      <point x="190" y="750"/>
      <point x="6" y="623"/>
      <point x="6" y="490" type="curve" smooth="yes"/>
      <point x="6" y="418"/>
      <point x="44" y="393"/>
      <point x="113" y="393" type="curve"/>
      <point x="112" y="402"/>
      <point x="99" y="410"/>
      <point x="99" y="461" type="curve" smooth="yes"/>
      <point x="99" y="613"/>
      <point x="207" y="704"/>
      <point x="369" y="704" type="curve" smooth="yes"/>
      <point x="495" y="704"/>
      <point x="515" y="610"/>
      <point x="515" y="500" type="curve" smooth="yes"/>
      <point x="515" y="313"/>
      <point x="418" y="75"/>
      <point x="332" y="75" type="curve" smooth="yes"/>
      <point x="277" y="75"/>
      <point x="253" y="151"/>
      <point x="253" y="237" type="curve" smooth="yes"/>
      <point x="253" y="401"/>
      <point x="306" y="548"/>
    </contour>
    <contour>
      <point x="431" y="811" type="line"/>
      <point x="506" y="811" type="line"/>
      <point x="627" y="1000" type="line"/>
      <point x="522" y="1000" type="line"/>
    </contour>
  </outline>
</glyph>
<glyph name="Otilde" format="1">
  <advance width="658"/>
  <unicode hex="00D5"/>
  <outline>
    <contour>
      <point x="431" y="656" type="curve"/>
      <point x="413" y="662"/>
      <point x="396" y="664"/>
      <point x="379" y="664" type="curve" smooth="yes"/>
      <point x="199" y="664"/>
      <point x="108" y="357"/>
      <point x="108" y="195" type="curve" smooth="yes"/>
      <point x="108" y="49"/>
      <point x="182" y="-6"/>
      <point x="287" y="-6" type="curve" smooth="yes"/>
      <point x="549" y="-6"/>
      <point x="656" y="301"/>
      <point x="656" y="494" type="curve" smooth="yes"/>
      <point x="656" y="643"/>
      <point x="594" y="750"/>
      <point x="419" y="750" type="curve" smooth="yes"/>
      <point x="208" y="750"/>
      <point x="16" y="617"/>
      <point x="16" y="477" type="curve" smooth="yes"/>
      <point x="16" y="416"/>
      <point x="54" y="393"/>
      <point x="117" y="393" type="curve"/>
      <point x="117" y="401"/>
      <point x="107" y="408"/>
      <point x="107" y="447" type="curve" smooth="yes"/>
      <point x="107" y="606"/>
      <point x="242" y="704"/>
      <point x="395" y="704" type="curve" smooth="yes"/>
      <point x="500" y="704"/>
      <point x="523" y="645"/>
      <point x="523" y="529" type="curve" smooth="yes"/>
      <point x="523" y="327"/>
      <point x="415" y="75"/>
      <point x="314" y="75" type="curve" smooth="yes"/>
      <point x="273" y="75"/>
      <point x="256" y="123"/>
      <point x="256" y="191" type="curve" smooth="yes"/>
      <point x="256" y="345"/>
      <point x="340" y="601"/>
    </contour>
    <contour>
      <point x="669" y="920" type="line"/>
      <point x="655" y="905"/>
      <point x="631" y="897"/>
      <point x="606" y="897" type="curve" smooth="yes"/>
      <point x="548" y="897"/>
      <point x="514" y="930"/>
      <point x="441" y="930" type="curve" smooth="yes" name="hr01"/>
      <point x="365" y="930"/>
      <point x="306" y="896"/>
      <point x="274" y="832" type="curve"/>
      <point x="280" y="830" type="line"/>
      <point x="298" y="847"/>
      <point x="320" y="856"/>
      <point x="346" y="856" type="curve" smooth="yes"/>
      <point x="401" y="856"/>
      <point x="448" y="819"/>
      <point x="514" y="819" type="curve" smooth="yes" name="hr02"/>
      <point x="590" y="819"/>
      <point x="664" y="872"/>
      <point x="675" y="919" type="curve"/>
    </contour>
  </outline>
</glyph>
<glyph name="Odieresis" format="1">
  <advance width="658"/>
  <unicode hex="00D6"/>
  <outline>
    <contour>
      <point x="388" y="656" type="curve"/>
      <point x="371" y="661"/>
      <point x="356" y="664"/>
      <point x="341" y="664" type="curve" smooth="yes"/>
      <point x="193" y="664"/>
      <point x="127" y="404"/>
      <point x="127" y="217" type="curve" smooth="yes"/>
      <point x="127" y="51"/>
      <point x="204" y="-9"/>
      <point x="332" y="-9" type="curve" smooth="yes"/>
      <point x="511" y="-9"/>
      <point x="631" y="284"/>
      <point x="631" y="479" type="curve" smooth="yes"/>
      <point x="631" y="653"/>
      <point x="555" y="750"/>
      <point x="357" y="750" type="curve" smooth="yes"/>
      <point x="190" y="750"/>
      <point x="6" y="623"/>
      <point x="6" y="490" type="curve" smooth="yes"/>
      <point x="6" y="418"/>
      <point x="44" y="393"/>
      <point x="113" y="393" type="curve"/>
      <point x="112" y="402"/>
      <point x="99" y="410"/>
      <point x="99" y="461" type="curve" smooth="yes"/>
      <point x="99" y="613"/>
      <point x="207" y="704"/>
      <point x="369" y="704" type="curve" smooth="yes"/>
      <point x="495" y="704"/>
      <point x="515" y="610"/>
      <point x="515" y="500" type="curve" smooth="yes"/>
      <point x="515" y="313"/>
      <point x="418" y="75"/>
      <point x="332" y="75" type="curve" smooth="yes"/>
      <point x="277" y="75"/>
      <point x="253" y="151"/>
      <point x="253" y="237" type="curve" smooth="yes"/>
      <point x="253" y="401"/>
      <point x="306" y="548"/>
    </contour>
    <contour>
      <point x="308" y="884" type="curve" smooth="yes"/>
      <point x="308" y="850"/>
      <point x="335" y="823"/>
      <point x="369" y="823" type="curve" smooth="yes"/>
      <point x="402" y="823"/>
      <point x="430" y="850"/>
      <point x="430" y="884" type="curve" smooth="yes"/>
      <point x="430" y="917"/>
      <point x="402" y="945"/>
      <point x="369" y="945" type="curve" smooth="yes"/>
      <point x="335" y="945"/>
      <point x="308" y="917"/>
    </contour>
    <contour>
      <point x="488" y="884" type="curve" smooth="yes"/>
      <point x="488" y="850"/>
      <point x="515" y="823"/>
      <point x="549" y="823" type="curve" smooth="yes"/>
      <point x="582" y="823"/>
      <point x="610" y="850"/>
      <point x="610" y="884" type="curve" smooth="yes"/>
      <point x="610" y="917"/>
      <point x="582" y="945"/>
      <point x="549" y="945" type="curve" smooth="yes"/>
      <point x="515" y="945"/>
      <point x="488" y="917"/>
    </contour>
  </outline>
</glyph>
<glyph name="multiply" format="1">
  <advance width="515"/>
  <unicode hex="00D7"/>
  <outline>
    <contour>
      <point x="98" y="355" type="line"/>
      <point x="193" y="260" type="line"/>
      <point x="98" y="165" type="line"/>
      <point x="163" y="101" type="line"/>
      <point x="257" y="195" type="line"/>
      <point x="353" y="100" type="line"/>
      <point x="417" y="165" type="line"/>
      <point x="322" y="260" type="line"/>
      <point x="417" y="355" type="line"/>
      <point x="353" y="420" type="line"/>
      <point x="257" y="324" type="line"/>
      <point x="163" y="419" type="line"/>
    </contour>
  </outline>
</glyph>
<glyph name="Oslash" format="1">
  <advance width="658"/>
  <unicode hex="00D8"/>
  <outline>
    <contour>
      <point x="330" y="-9" type="line"/>
      <point x="511" y="-9"/>
      <point x="631" y="202"/>
      <point x="631" y="413" type="curve" smooth="yes"/>
      <point x="631" y="546"/>
      <point x="586" y="642"/>
      <point x="476" y="680" type="curve"/>
      <point x="491" y="750" type="line"/>
      <point x="439" y="750" type="line"/>
      <point x="427" y="692" type="line"/>
      <point x="405" y="696"/>
      <point x="382" y="698"/>
      <point x="357" y="698" type="curve" smooth="yes"/>
      <point x="190" y="698"/>
      <point x="6" y="571"/>
      <point x="6" y="438" type="curve" smooth="yes"/>
      <point x="6" y="366"/>
      <point x="44" y="341"/>
      <point x="113" y="341" type="curve"/>
      <point x="112" y="350"/>
      <point x="99" y="358"/>
      <point x="99" y="409" type="curve" smooth="yes"/>
      <point x="99" y="561"/>
      <point x="207" y="652"/>
      <point x="369" y="652" type="curve" smooth="yes"/>
      <point x="387" y="652"/>
      <point x="403" y="649"/>
      <point x="417" y="645" type="curve"/>
      <point x="297" y="81" type="line"/>
      <point x="267" y="93"/>
      <point x="253" y="127"/>
      <point x="253" y="185" type="curve" smooth="yes"/>
      <point x="253" y="349"/>
      <point x="306" y="496"/>
      <point x="388" y="604" type="curve"/>
      <point x="371" y="609"/>
      <point x="356" y="612"/>
      <point x="341" y="612" type="curve" smooth="yes"/>
      <point x="194" y="612"/>
      <point x="127" y="353"/>
      <point x="127" y="166" type="curve" smooth="yes"/>
      <point x="127" y="32"/>
      <point x="183" y="-1"/>
      <point x="278" y="-7" type="curve"/>
      <point x="227" y="-250" type="line"/>
      <point x="279" y="-250" type="line"/>
    </contour>
    <contour>
      <point x="515" y="434" type="curve" smooth="yes"/>
      <point x="515" y="250"/>
      <point x="429" y="95"/>
      <point x="348" y="76" type="curve"/>
      <point x="463" y="619" type="line"/>
      <point x="506" y="579"/>
      <point x="515" y="507"/>
    </contour>
  </outline>
</glyph>
<glyph name="Ucircumflex" format="1">
  <advance width="678"/>
  <unicode hex="00DB"/>
  <outline>
    <contour>
      <point x="557" y="748" type="line"/>
      <point x="429" y="152" type="line"/>
      <point x="403" y="105"/>
      <point x="372" y="75"/>
      <point x="332" y="75" type="curve" smooth="yes"/>
      <point x="277" y="75"/>
      <point x="253" y="151"/>
      <point x="253" y="237" type="curve" smooth="yes"/>
      <point x="253" y="394"/>
      <point x="347" y="633"/>
      <point x="432" y="745" type="curve"/>
      <point x="414" y="750"/>
      <point x="391" y="750"/>
      <point x="357" y="750" type="curve" smooth="yes"/>
      <point x="190" y="750"/>
      <point x="6" y="623"/>
      <point x="6" y="490" type="curve" smooth="yes"/>
      <point x="6" y="418"/>
      <point x="44" y="393"/>
      <point x="113" y="393" type="curve"/>
      <point x="112" y="402"/>
      <point x="99" y="410"/>
      <point x="99" y="461" type="curve" smooth="yes"/>
      <point x="99" y="585"/>
      <point x="170" y="668"/>
      <point x="285" y="695" type="curve"/>
      <point x="178" y="588"/>
      <point x="126" y="349"/>
      <point x="126" y="213" type="curve" smooth="yes"/>
      <point x="126" y="52"/>
      <point x="196" y="1"/>
      <point x="311" y="1" type="curve" smooth="yes"/>
      <point x="341" y="1"/>
      <point x="375" y="22"/>
      <point x="408" y="52" type="curve"/>
      <point x="397" y="0" type="line"/>
      <point x="541" y="0" type="line"/>
      <point x="700" y="748" type="line"/>
    </contour>
    <contour>
      <point x="635" y="811" type="line"/>
      <point x="575" y="1000" type="line"/>
      <point x="554" y="1000" type="line"/>
      <point x="342" y="811" type="line"/>
      <point x="386" y="811" type="line"/>
      <point x="543" y="891" type="line"/>
      <point x="603" y="811" type="line"/>
    </contour>
  </outline>
</glyph>
<glyph name="Udieresis" format="1">
  <advance width="719"/>
  <unicode hex="00DC"/>
  <outline>
    <contour>
      <point x="620" y="748" type="line" name="hr00"/>
      <point x="553" y="439" type="line" smooth="yes"/>
      <point x="482" y="112"/>
      <point x="445" y="91"/>
      <point x="360" y="91" type="curve" smooth="yes"/>
      <point x="310" y="91"/>
      <point x="291" y="124"/>
      <point x="291" y="181" type="curve" smooth="yes"/>
      <point x="291" y="265"/>
      <point x="333" y="400"/>
      <point x="426" y="745" type="curve"/>
      <point x="405" y="749"/>
      <point x="395" y="750"/>
      <point x="378" y="750" type="curve" smooth="yes"/>
      <point x="184" y="750"/>
      <point x="0" y="626"/>
      <point x="0" y="485" type="curve" smooth="yes"/>
      <point x="0" y="418"/>
      <point x="41" y="393"/>
      <point x="107" y="393" type="curve"/>
      <point x="106" y="402"/>
      <point x="93" y="409"/>
      <point x="93" y="462" type="curve" smooth="yes"/>
      <point x="93" y="582"/>
      <point x="161" y="663"/>
      <point x="270" y="692" type="curve"/>
      <point x="237" y="560" type="line" smooth="yes"/>
      <point x="195" y="391"/>
      <point x="155" y="251"/>
      <point x="155" y="152" type="curve" smooth="yes"/>
      <point x="155" y="51"/>
      <point x="204" y="-7"/>
      <point x="348" y="-7" type="curve" smooth="yes"/>
      <point x="573" y="-7"/>
      <point x="631" y="132"/>
      <point x="695" y="436" type="curve" smooth="yes"/>
      <point x="761" y="748" type="line"/>
    </contour>
    <contour>
      <point x="373" y="884" type="curve" smooth="yes"/>
      <point x="373" y="850"/>
      <point x="400" y="823"/>
      <point x="434" y="823" type="curve" smooth="yes"/>
      <point x="467" y="823"/>
      <point x="495" y="850"/>
      <point x="495" y="884" type="curve" smooth="yes"/>
      <point x="495" y="917"/>
      <point x="467" y="945"/>
      <point x="434" y="945" type="curve" smooth="yes"/>
      <point x="400" y="945"/>
      <point x="373" y="917"/>
    </contour>
    <contour>
      <point x="553" y="884" type="curve" smooth="yes"/>
      <point x="553" y="850"/>
      <point x="580" y="823"/>
      <point x="614" y="823" type="curve" smooth="yes"/>
      <point x="647" y="823"/>
      <point x="675" y="850"/>
      <point x="675" y="884" type="curve" smooth="yes"/>
      <point x="675" y="917"/>
      <point x="647" y="945"/>
      <point x="614" y="945" type="curve" smooth="yes"/>
      <point x="580" y="945"/>
      <point x="553" y="917"/>
    </contour>
  </outline>
</glyph>
<glyph name="Yacute" format="1">
  <advance width="620"/>
  <unicode hex="00DD"/>
  <outline>
    <contour>
      <point x="438" y="0" type="line"/>
      <point x="504" y="308" type="line"/>
      <point x="698" y="745" type="line"/>
      <point x="632" y="745" type="line"/>
      <point x="484" y="390" type="line"/>
      <point x="397" y="748" type="line"/>
      <point x="384" y="749"/>
      <point x="371" y="750"/>
      <point x="357" y="750" type="curve" smooth="yes"/>
      <point x="190" y="750"/>
      <point x="6" y="623"/>
      <point x="6" y="490" type="curve" smooth="yes"/>
      <point x="6" y="418"/>
      <point x="44" y="393"/>
      <point x="113" y="393" type="curve"/>
      <point x="112" y="402"/>
      <point x="99" y="410"/>
      <point x="99" y="461" type="curve" smooth="yes"/>
      <point x="99" y="571"/>
      <point x="155" y="649"/>
      <point x="248" y="683" type="curve"/>
      <point x="344" y="308" type="line"/>
      <point x="278" y="0" type="line"/>
    </contour>
    <contour>
      <point x="467" y="811" type="line"/>
      <point x="542" y="811" type="line"/>
      <point x="663" y="1000" type="line"/>
      <point x="558" y="1000" type="line"/>
    </contour>
  </outline>
</glyph>
<glyph name="Thorn" format="1">
  <advance width="583"/>
  <unicode hex="00DE"/>
  <outline>
    <contour>
      <point x="250" y="730" type="line"/>
      <point x="225" y="616" type="line"/>
      <point x="106" y="573"/>
      <point x="6" y="478"/>
      <point x="6" y="380" type="curve" smooth="yes"/>
      <point x="6" y="308"/>
      <point x="44" y="283"/>
      <point x="113" y="283" type="curve"/>
      <point x="112" y="292"/>
      <point x="99" y="300"/>
      <point x="99" y="351" type="curve" smooth="yes"/>
      <point x="99" y="450"/>
      <point x="140" y="523"/>
      <point x="214" y="562" type="curve"/>
      <point x="94" y="0" type="line"/>
      <point x="238" y="0" type="line"/>
      <point x="275" y="175" type="line"/>
      <point x="304" y="175" type="line" smooth="yes"/>
      <point x="483" y="175"/>
      <point x="592" y="316"/>
      <point x="592" y="443" type="curve" smooth="yes"/>
      <point x="592" y="542"/>
      <point x="525" y="632"/>
      <point x="374" y="639" type="curve"/>
      <point x="398" y="750" type="line"/>
    </contour>
    <contour>
      <point x="288" y="212" type="line"/>
      <point x="285" y="209"/>
      <point x="283" y="207"/>
      <point x="281" y="204" type="curve"/>
      <point x="364" y="594" type="line"/>
      <point x="448" y="591"/>
      <point x="482" y="530"/>
      <point x="482" y="458" type="curve" smooth="yes"/>
      <point x="482" y="348"/>
      <point x="402" y="212"/>
      <point x="297" y="212" type="curve" smooth="yes"/>
    </contour>
  </outline>
</glyph>
<glyph name="germandbls" format="1">
  <advance width="450"/>
  <unicode hex="00DF"/>
  <outline>
    <contour>
      <point x="225" y="530" type="line" smooth="yes"/>
      <point x="239" y="597"/>
      <point x="273" y="612"/>
      <point x="295" y="612" type="curve" smooth="yes"/>
      <point x="321" y="612"/>
      <point x="333" y="601"/>
      <point x="333" y="562" type="curve" smooth="yes"/>
      <point x="333" y="503"/>
      <point x="291" y="468"/>
      <point x="250" y="451" type="curve"/>
      <point x="232" y="393" type="line"/>
      <point x="286" y="379"/>
      <point x="304" y="350"/>
      <point x="304" y="306" type="curve" smooth="yes"/>
      <point x="304" y="285"/>
      <point x="300" y="260"/>
      <point x="294" y="232" type="curve" smooth="yes"/>
      <point x="264" y="88"/>
      <point x="236" y="69"/>
      <point x="195" y="61" type="curve"/>
      <point x="182" y="2" type="line"/>
      <point x="193" y="1"/>
      <point x="204" y="0"/>
      <point x="215" y="0" type="curve" smooth="yes"/>
      <point x="296" y="0"/>
      <point x="359" y="39"/>
      <point x="400" y="240" type="curve" smooth="yes"/>
      <point x="403" y="255"/>
      <point x="405" y="270"/>
      <point x="405" y="285" type="curve" smooth="yes"/>
      <point x="405" y="345"/>
      <point x="379" y="403"/>
      <point x="308" y="427" type="curve"/>
      <point x="368" y="455"/>
      <point x="400" y="516"/>
      <point x="400" y="573" type="curve" smooth="yes"/>
      <point x="400" y="639"/>
      <point x="356" y="700"/>
      <point x="263" y="700" type="curve" smooth="yes"/>
      <point x="197" y="700"/>
      <point x="111" y="673"/>
      <point x="81" y="530" type="curve" smooth="yes"/>
      <point x="-85" y="-250" type="line"/>
      <point x="66" y="-214" type="line"/>
    </contour>
  </outline>
</glyph>
<glyph name="atilde" format="1">
  <advance width="503"/>
  <unicode hex="00E3"/>
  <outline>
    <contour>
      <point x="317" y="500" type="line"/>
      <point x="311" y="474" type="line"/>
      <point x="293" y="489"/>
      <point x="268" y="499"/>
      <point x="244" y="499" type="curve" smooth="yes"/>
      <point x="44" y="499"/>
      <point x="-18" y="293"/>
      <point x="-18" y="121" type="curve" smooth="yes"/>
      <point x="-18" y="62"/>
      <point x="10" y="-6"/>
      <point x="106" y="-6" type="curve" smooth="yes"/>
      <point x="167" y="-6"/>
      <point x="212" y="35"/>
      <point x="242" y="76" type="curve"/>
      <point x="255" y="24"/>
      <point x="299" y="0"/>
      <point x="364" y="0" type="curve" smooth="yes"/>
      <point x="442" y="0"/>
      <point x="555" y="133"/>
      <point x="601" y="179" type="curve"/>
      <point x="567" y="179" type="line"/>
      <point x="527" y="147"/>
      <point x="475" y="91"/>
      <point x="435" y="91" type="curve" smooth="yes"/>
      <point x="395" y="91"/>
      <point x="385" y="107"/>
      <point x="385" y="129" type="curve" smooth="yes"/>
      <point x="385" y="138"/>
      <point x="387" y="149"/>
      <point x="389" y="160" type="curve" smooth="yes"/>
      <point x="461" y="500" type="line"/>
    </contour>
    <contour>
      <point x="252" y="443" type="curve" smooth="yes"/>
      <point x="266" y="443"/>
      <point x="285" y="439"/>
      <point x="301" y="425" type="curve"/>
      <point x="245" y="160" type="line" smooth="yes"/>
      <point x="242" y="148"/>
      <point x="240" y="137"/>
      <point x="239" y="127" type="curve"/>
      <point x="220" y="99"/>
      <point x="198" y="77"/>
      <point x="175" y="77" type="curve" smooth="yes"/>
      <point x="150" y="77"/>
      <point x="117" y="88"/>
      <point x="117" y="148" type="curve" smooth="yes"/>
      <point x="117" y="284"/>
      <point x="177" y="443"/>
    </contour>
    <contour>
      <point x="480" y="670" type="line"/>
      <point x="466" y="655"/>
      <point x="442" y="647"/>
      <point x="417" y="647" type="curve" smooth="yes"/>
      <point x="359" y="647"/>
      <point x="325" y="680"/>
      <point x="252" y="680" type="curve" smooth="yes"/>
      <point x="176" y="680"/>
      <point x="117" y="646"/>
      <point x="85" y="582" type="curve"/>
      <point x="91" y="580" type="line"/>
      <point x="109" y="597"/>
      <point x="131" y="606"/>
      <point x="157" y="606" type="curve" smooth="yes"/>
      <point x="212" y="606"/>
      <point x="259" y="569"/>
      <point x="325" y="569" type="curve" smooth="yes"/>
      <point x="401" y="569"/>
      <point x="475" y="622"/>
      <point x="486" y="669" type="curve"/>
    </contour>
  </outline>
</glyph>
<glyph name="adieresis" format="1">
  <advance width="503"/>
  <unicode hex="00E4"/>
  <outline>
    <contour>
      <point x="317" y="500" type="line"/>
      <point x="311" y="474" type="line"/>
      <point x="293" y="489"/>
      <point x="268" y="499"/>
      <point x="244" y="499" type="curve" smooth="yes"/>
      <point x="44" y="499"/>
      <point x="-18" y="293"/>
      <point x="-18" y="121" type="curve" smooth="yes"/>
      <point x="-18" y="62"/>
      <point x="10" y="-6"/>
      <point x="106" y="-6" type="curve" smooth="yes"/>
      <point x="167" y="-6"/>
      <point x="212" y="35"/>
      <point x="242" y="76" type="curve"/>
      <point x="255" y="24"/>
      <point x="299" y="0"/>
      <point x="364" y="0" type="curve" smooth="yes"/>
      <point x="442" y="0"/>
      <point x="555" y="133"/>
      <point x="601" y="179" type="curve"/>
      <point x="567" y="179" type="line"/>
      <point x="527" y="147"/>
      <point x="475" y="91"/>
      <point x="435" y="91" type="curve" smooth="yes"/>
      <point x="395" y="91"/>
      <point x="385" y="107"/>
      <point x="385" y="129" type="curve" smooth="yes"/>
      <point x="385" y="138"/>
      <point x="387" y="149"/>
      <point x="389" y="160" type="curve" smooth="yes"/>
      <point x="461" y="500" type="line"/>
    </contour>
    <contour>
      <point x="252" y="443" type="curve" smooth="yes"/>
      <point x="266" y="443"/>
      <point x="285" y="439"/>
      <point x="301" y="425" type="curve"/>
      <point x="245" y="160" type="line" smooth="yes"/>
      <point x="242" y="148"/>
      <point x="240" y="137"/>
      <point x="239" y="127" type="curve"/>
      <point x="220" y="99"/>
      <point x="198" y="77"/>
      <point x="175" y="77" type="curve" smooth="yes"/>
      <point x="150" y="77"/>
      <point x="117" y="88"/>
      <point x="117" y="148" type="curve" smooth="yes"/>
      <point x="117" y="284"/>
      <point x="177" y="443"/>
    </contour>
    <contour>
      <point x="146" y="634" type="curve" smooth="yes"/>
      <point x="146" y="600"/>
      <point x="173" y="573"/>
      <point x="207" y="573" type="curve" smooth="yes"/>
      <point x="240" y="573"/>
      <point x="268" y="600"/>
      <point x="268" y="634" type="curve" smooth="yes"/>
      <point x="268" y="667"/>
      <point x="240" y="695"/>
      <point x="207" y="695" type="curve" smooth="yes"/>
      <point x="173" y="695"/>
      <point x="146" y="667"/>
    </contour>
    <contour>
      <point x="326" y="634" type="curve" smooth="yes"/>
      <point x="326" y="600"/>
      <point x="353" y="573"/>
      <point x="387" y="573" type="curve" smooth="yes"/>
      <point x="420" y="573"/>
      <point x="448" y="600"/>
      <point x="448" y="634" type="curve" smooth="yes"/>
      <point x="448" y="667"/>
      <point x="420" y="695"/>
      <point x="387" y="695" type="curve" smooth="yes"/>
      <point x="353" y="695"/>
      <point x="326" y="667"/>
    </contour>
  </outline>
</glyph>
<glyph name="aring" format="1">
  <advance width="503"/>
  <unicode hex="00E5"/>
  <outline>
    <contour>
      <point x="317" y="500" type="line"/>
      <point x="311" y="474" type="line"/>
      <point x="293" y="489"/>
      <point x="268" y="499"/>
      <point x="244" y="499" type="curve" smooth="yes"/>
      <point x="44" y="499"/>
      <point x="-18" y="293"/>
      <point x="-18" y="121" type="curve" smooth="yes"/>
      <point x="-18" y="62"/>
      <point x="10" y="-6"/>
      <point x="106" y="-6" type="curve" smooth="yes"/>
      <point x="167" y="-6"/>
      <point x="212" y="35"/>
      <point x="242" y="76" type="curve"/>
      <point x="255" y="24"/>
      <point x="299" y="0"/>
      <point x="364" y="0" type="curve" smooth="yes"/>
      <point x="442" y="0"/>
      <point x="555" y="133"/>
      <point x="601" y="179" type="curve"/>
      <point x="567" y="179" type="line"/>
      <point x="527" y="147"/>
      <point x="475" y="91"/>
      <point x="435" y="91" type="curve" smooth="yes"/>
      <point x="395" y="91"/>
      <point x="385" y="107"/>
      <point x="385" y="129" type="curve" smooth="yes"/>
      <point x="385" y="138"/>
      <point x="387" y="149"/>
      <point x="389" y="160" type="curve" smooth="yes"/>
      <point x="461" y="500" type="line"/>
    </contour>
    <contour>
      <point x="252" y="443" type="curve" smooth="yes"/>
      <point x="266" y="443"/>
      <point x="285" y="439"/>
      <point x="301" y="425" type="curve"/>
      <point x="245" y="160" type="line" smooth="yes"/>
      <point x="242" y="148"/>
      <point x="240" y="137"/>
      <point x="239" y="127" type="curve"/>
      <point x="220" y="99"/>
      <point x="198" y="77"/>
      <point x="175" y="77" type="curve" smooth="yes"/>
      <point x="150" y="77"/>
      <point x="117" y="88"/>
      <point x="117" y="148" type="curve" smooth="yes"/>
      <point x="117" y="284"/>
      <point x="177" y="443"/>
    </contour>
    <contour>
      <point x="324" y="718" type="curve" smooth="yes"/>
      <point x="264" y="718"/>
      <point x="239" y="663"/>
      <point x="239" y="627" type="curve" smooth="yes"/>
      <point x="239" y="589"/>
      <point x="266" y="557"/>
      <point x="309" y="557" type="curve" smooth="yes"/>
      <point x="371" y="557"/>
      <point x="396" y="597"/>
      <point x="396" y="641" type="curve" smooth="yes"/>
      <point x="396" y="684"/>
      <point x="373" y="718"/>
    </contour>
    <contour>
      <point x="359" y="638" type="curve" smooth="yes"/>
      <point x="359" y="610"/>
      <point x="344" y="592"/>
      <point x="313" y="592" type="curve" smooth="yes"/>
      <point x="289" y="592"/>
      <point x="279" y="607"/>
      <point x="279" y="629" type="curve" smooth="yes"/>
      <point x="279" y="654"/>
      <point x="291" y="685"/>
      <point x="326" y="685" type="curve" smooth="yes"/>
      <point x="358" y="685"/>
      <point x="359" y="657"/>
    </contour>
  </outline>
</glyph>
<glyph name="ae" format="1">
  <advance width="625"/>
  <unicode hex="00E6"/>
  <outline>
    <contour>
      <point x="106" y="-6" type="curve" smooth="yes"/>
      <point x="181" y="-6"/>
      <point x="231" y="55"/>
      <point x="260" y="102" type="curve"/>
      <point x="278" y="43"/>
      <point x="326" y="0"/>
      <point x="400" y="0" type="curve" smooth="yes"/>
      <point x="529" y="0"/>
      <point x="625" y="101"/>
      <point x="682" y="204" type="curve"/>
      <point x="637" y="204" type="line"/>
      <point x="602" y="130"/>
      <point x="518" y="72"/>
      <point x="469" y="72" type="curve" smooth="yes"/>
      <point x="430" y="72"/>
      <point x="387" y="92"/>
      <point x="387" y="158" type="curve" smooth="yes"/>
      <point x="387" y="170"/>
      <point x="388" y="185"/>
      <point x="390" y="201" type="curve"/>
      <point x="485" y="213"/>
      <point x="616" y="283"/>
      <point x="616" y="405" type="curve" smooth="yes"/>
      <point x="616" y="475"/>
      <point x="570" y="509"/>
      <point x="488" y="509" type="curve" smooth="yes"/>
      <point x="420" y="509"/>
      <point x="371" y="478"/>
      <point x="335" y="433" type="curve"/>
      <point x="334" y="466"/>
      <point x="287" y="499"/>
      <point x="244" y="499" type="curve" smooth="yes"/>
      <point x="44" y="499"/>
      <point x="-18" y="293"/>
      <point x="-18" y="121" type="curve" smooth="yes"/>
      <point x="-18" y="62"/>
      <point x="10" y="-6"/>
    </contour>
    <contour>
      <point x="252" y="443" type="curve" smooth="yes"/>
      <point x="271" y="443"/>
      <point x="299" y="436"/>
      <point x="316" y="407" type="curve"/>
      <point x="269" y="332"/>
      <point x="252" y="230"/>
      <point x="252" y="159" type="curve" smooth="yes"/>
      <point x="252" y="147" type="line"/>
      <point x="229" y="111"/>
      <point x="203" y="77"/>
      <point x="175" y="77" type="curve" smooth="yes"/>
      <point x="150" y="77"/>
      <point x="117" y="88"/>
      <point x="117" y="148" type="curve" smooth="yes"/>
      <point x="117" y="284"/>
      <point x="177" y="443"/>
    </contour>
    <contour>
      <point x="556" y="400" type="curve"/>
      <point x="555" y="329"/>
      <point x="490" y="250"/>
      <point x="398" y="249" type="curve"/>
      <point x="419" y="343"/>
      <point x="465" y="456"/>
      <point x="521" y="456" type="curve" smooth="yes"/>
      <point x="551" y="456"/>
      <point x="556" y="421"/>
    </contour>
  </outline>
</glyph>
